<svg xmlns="http://www.w3.org/2000/svg" enable-background="new 0 0 2000 2000" viewBox="33.581 426.94 1915.843 1441.451"><ellipse cx="1000" cy="1762.22" fill="#1f1f23" opacity=".15" rx="857.84" ry="40.65" class="color231f20 svgShape"/><ellipse cx="1145.23" cy="553.21" fill="#e8f9eb" rx="59.2" ry="60.75" class="colore8f7f9 svgShape"/><path fill="#e8f9eb" d="M1721.01,1482.67h-40.12c-20.62-111.21-124.53-195.82-249.7-195.82h-114.57      c50.29,0,91.07-38.02,91.07-84.91c0-46.89-40.77-84.91-91.07-84.91h-281.18c109.19,0,197.71-82.53,197.71-184.34      c0-101.81-88.52-184.34-197.71-184.34H823.21c-19.29-15.57-31.51-38.55-31.51-64.2v0c0-29.17,15.78-54.9,39.81-70.18h129.05      c35.99,0,65.16-27.2,65.16-60.75c0-33.55-29.17-60.75-65.16-60.75H615.9c-35.99,0-65.16,27.2-65.16,60.75      c0,18.42,8.82,34.89,22.71,46.03H436.18c-50.29,0-91.07,38.01-91.07,84.91v0c0,25.65,12.22,48.64,31.51,64.2h-41.24      c-109.19,0-197.71,82.53-197.71,184.34c0,101.81,88.52,184.34,197.71,184.34h499.55c-50.3,0-91.07,38.02-91.07,84.91      c0,46.89,40.77,84.91,91.07,84.91H391.16c-139.99,0-253.48,105.81-253.48,236.34v0c0,96.61,62.2,179.63,151.28,216.28      c154.2-10.8,415.12-17.9,711.05-17.9c349.68,0,650.44,9.92,784.04,24.14c46.4-21.6,78.29-66.28,78.29-117.93v-13.35      C1862.33,1541.66,1799.06,1482.67,1721.01,1482.67z" class="colore8f7f9 svgShape"/><path fill="#66e87c" d="M216.08,1696.34c2.69-1.96,8.14,0.39,25.85-6.99c25.84-10.76,35.93-66.37,35.93-66.37       c-39.32-4.92-36.83,51.73-52.05,61.42c-6.87,4.37-10.1,8.61-11.58,11.94H216.08z" class="color66e8c4 svgShape"/><path fill="#3fd258" d="M265.67,1639.54c-8.08,16.48-17.63,40.79-33.73,48.54c-4.49,2.16-7.78,4.61-10.23,7.02       c3.88-0.48,10.01-1.49,20.23-5.75c25.84-10.76,35.93-66.37,35.93-66.37S273.76,1623.06,265.67,1639.54z" class="color3fd2c5 svgShape"/><path fill="#3586e6" d="M199.5,1696.34h4.26c2.77-5.89,3.66-16.96-5.6-37.28c-17.14-37.61-25.79-86.39-13.84-100.74       c0,0-40.9,29.15-31.6,59.47C161.44,1646.25,205.38,1665.2,199.5,1696.34z" class="color35bfe6 svgShape"/><path fill="#167ffc" d="M201.23,1696.34h2.53c2.77-5.89,3.66-16.95-5.6-37.28c-17.14-37.61-25.79-86.39-13.84-100.74       c0,0-26.99,30.02-16.75,58.76C177.67,1645.46,208.83,1660.24,201.23,1696.34z" class="color0a88d2 svgShape"/><path fill="#4989d5" d="M159.11,1680.44c15.56,6.34,22.22,10.56,26.56,15.9h5.46c-4.08-12.35-6.52-25.56-16.11-35.54       c-10.89-11.34-52.84-30.01-54.28-32.17C119.32,1626.46,138.09,1671.88,159.11,1680.44z" class="color49d3d5 svgShape"/><path fill="#0f5cb8" d="M186.34,1692.85c0.32,0.99,0.8,2.19,1.36,3.49h3.44c-4.09-12.35-6.52-25.56-16.11-35.54       c-10.89-11.34-52.84-30.01-54.28-32.17c0,0,20.36,25.54,43.01,37.21C179.98,1674.19,184.27,1686.54,186.34,1692.85z" class="color0fa1b8 svgShape"/><path fill="#66e87c" d="M211.31,1678.51c-0.52,7.45-2.21,13.39-3.99,17.83h2.98c10.22-13.19,25.93-38.79,22.99-68.68       c-4.3-43.68-8.98-98.44-8.98-98.44s-57.5,43.6-29.21,91.95C209.2,1645.28,212.29,1664.51,211.31,1678.51z" class="color66e8c7 svgShape"/><path fill="#3fd258" d="M214.22,1597.92c5.83,36.2,5.91,76.73-3.39,93.88c1.69-1.2,3.51-2.46,5.36-3.74        c9.36-14.27,19.49-35.89,17.08-60.41c-4.3-43.68-8.98-98.44-8.98-98.44S206.64,1550.81,214.22,1597.92z" class="color3fd2c5 svgShape"/><path fill="#cacbf9" d="M245.11,1693.69h-65.45c-5.8,0-10.2,5.23-9.21,10.95l8.36,48.16c1.3,6.84,7.28,11.79,14.24,11.79h38.66      c6.96,0,12.94-4.95,14.24-11.79l8.36-48.16C255.31,1698.92,250.91,1693.69,245.11,1693.69z" class="colorcadbf9 svgShape"/><path fill="#a1a2eb" d="M254.44,1703.35c0.19-5.19-3.97-9.67-9.33-9.67h-65.45c-5.37,0-9.52,4.47-9.33,9.67H254.44z" class="colora1b7eb svgShape"/><path fill="#a1a2eb" d="M245.11,1693.69h-18.2c5.8,0,10.2,5.23,9.21,10.95l-8.36,48.16c-1.3,6.84-7.28,11.79-14.24,11.79h18.2      c6.96,0,12.94-4.95,14.24-11.79l8.36-48.16C255.31,1698.92,250.91,1693.69,245.11,1693.69z" class="colora1b7eb svgShape"/><path fill="#66e87c" d="M1782.57,1696.34c2.69-1.96,8.14,0.39,25.85-6.99c25.84-10.76,35.93-66.37,35.93-66.37       c-39.32-4.92-36.83,51.73-52.05,61.42c-6.87,4.37-10.1,8.61-11.58,11.94H1782.57z" class="color66e8c4 svgShape"/><path fill="#3fd258" d="M1832.16,1639.54c-8.08,16.48-17.63,40.79-33.73,48.54c-4.49,2.16-7.78,4.61-10.23,7.02       c3.88-0.48,10.01-1.49,20.23-5.75c25.84-10.76,35.93-66.37,35.93-66.37S1840.24,1623.06,1832.16,1639.54z" class="color3fd2c5 svgShape"/><path fill="#3586e6" d="M1765.98,1696.34h4.26c2.77-5.89,3.66-16.96-5.6-37.28c-17.14-37.61-25.79-86.39-13.84-100.74       c0,0-40.9,29.15-31.6,59.47C1727.93,1646.25,1771.87,1665.2,1765.98,1696.34z" class="color35bfe6 svgShape"/><path fill="#167ffc" d="M1767.72,1696.34h2.53c2.77-5.89,3.66-16.95-5.6-37.28c-17.14-37.61-25.79-86.39-13.84-100.74       c0,0-26.99,30.02-16.75,58.76C1744.16,1645.46,1775.32,1660.24,1767.72,1696.34z" class="color0a88d2 svgShape"/><path fill="#4989d5" d="M1725.6,1680.44c15.56,6.34,22.22,10.56,26.56,15.9h5.46c-4.08-12.35-6.52-25.56-16.11-35.54       c-10.89-11.34-52.84-30.01-54.28-32.17C1685.8,1626.46,1704.58,1671.88,1725.6,1680.44z" class="color49d3d5 svgShape"/><path fill="#0f5cb8" d="M1752.82,1692.85c0.32,0.99,0.8,2.19,1.36,3.49h3.44c-4.09-12.35-6.52-25.56-16.11-35.54       c-10.89-11.34-52.84-30.01-54.28-32.17c0,0,20.36,25.54,43.01,37.21C1746.46,1674.19,1750.75,1686.54,1752.82,1692.85z" class="color0fa1b8 svgShape"/><path fill="#66e87c" d="M1777.79,1678.51c-0.52,7.45-2.2,13.39-3.99,17.83h2.98c10.22-13.19,25.93-38.79,22.99-68.68       c-4.3-43.68-8.98-98.44-8.98-98.44s-57.5,43.6-29.21,91.95C1775.69,1645.28,1778.78,1664.51,1777.79,1678.51z" class="color66e8c7 svgShape"/><path fill="#3fd258" d="M1780.71,1597.92c5.83,36.2,5.91,76.73-3.39,93.88c1.69-1.2,3.51-2.46,5.36-3.74        c9.36-14.27,19.49-35.89,17.08-60.41c-4.3-43.68-8.98-98.44-8.98-98.44S1773.12,1550.81,1780.71,1597.92z" class="color3fd2c5 svgShape"/><path fill="#cacbf9" d="M1811.6,1693.69h-65.45c-5.8,0-10.2,5.23-9.21,10.95l8.36,48.16c1.3,6.84,7.28,11.79,14.24,11.79h38.66      c6.96,0,12.94-4.95,14.24-11.79l8.36-48.16C1821.8,1698.92,1817.4,1693.69,1811.6,1693.69z" class="colorcadbf9 svgShape"/><path fill="#a1a2eb" d="M1820.93,1703.35c0.19-5.19-3.97-9.67-9.33-9.67h-65.45c-5.37,0-9.52,4.47-9.33,9.67H1820.93z" class="colora1b7eb svgShape"/><path fill="#a1a2eb" d="M1811.6,1693.69h-18.2c5.8,0,10.2,5.23,9.21,10.95l-8.36,48.16c-1.3,6.84-7.28,11.79-14.24,11.79h18.2      c6.96,0,12.94-4.95,14.24-11.79l8.36-48.16C1821.8,1698.92,1817.4,1693.69,1811.6,1693.69z" class="colora1b7eb svgShape"/><g fill="#000000" class="color000 svgShape"><path fill="#ffb362" d="M749.59,844.35H406.75c-2.61,0-4.72-2.12-4.72-4.72v-20.76c0-2.61,2.12-4.72,4.72-4.72h342.84    c2.61,0,4.72,2.12,4.72,4.72v20.76C754.31,842.23,752.2,844.35,749.59,844.35z" class="colorffb262 svgShape"/><path fill="#e39849" d="M458.39 858.76h-12.11c-2.36 0-4.28-1.91-4.28-4.28v-10.14h20.66v10.14C462.67 856.85 460.75 858.76 458.39 858.76zM711.51 858.76h-12.11c-2.36 0-4.28-1.91-4.28-4.28v-10.14h20.66v10.14C715.79 856.85 713.87 858.76 711.51 858.76z" class="colore39c49 svgShape"/></g><g fill="#000000" class="color000 svgShape"><path fill="#ffb668" d="M459.65,750.44c0,0,6.87-8.39,5.72-18.7l-6.49,5.34c0,0,11.45-14.12,3.05-33.19c0,0-3.43,10.3-7.25,12.59     c0,0,8.78-12.59,1.14-27.09l-5.34,8.01l1.14-12.97l-9.16-13.35l-0.76,12.59c0,0,0-20.98-14.12-27.85l-1.53,8.78l-1.53-12.21     l-12.21-9.54l0.38,16.02l8.01,12.21l-7.63-1.91c0,0,1.91,22.51,6.87,30.14l9.92,3.82l-7.63,0.76l3.82,11.45l11.83,4.2l-9.92-0.76     c0,0,2.29,12.97,22.13,22.13l-6.49,1.53C443.63,742.43,447.83,748.53,459.65,750.44z" class="colorffcc68 svgShape"/><path fill="#ce8232" d="M421.54,662.96c0,0,38.38,67.9,49.9,123.46C471.44,786.41,441.07,699.2,421.54,662.96z" class="colorce9532 svgShape"/><path fill="#2d2d47" d="M448.23,808.44h42.14c0.81,0,1.48,0.66,1.48,1.48v3c0,0.81-0.66,1.48-1.48,1.48h-42.14      c-0.81,0-1.48-0.66-1.48-1.48v-3C446.75,809.1,447.41,808.44,448.23,808.44z" class="color2d3147 svgShape"/><path fill="#2d2d47" d="M458.47,809.76h21.66c5.89,0,10.67-4.78,10.67-10.67V772.8c0-5.89-4.78-10.67-10.67-10.67h-21.66      c-5.89,0-10.67,4.78-10.67,10.67v26.29C447.8,804.98,452.58,809.76,458.47,809.76z" class="color2d3147 svgShape"/><path fill="#4a4b97" d="M447.23 809.76h44.14c4.98 0 9.02-4.04 9.02-9.02V782.4c0-4.98-4.04-9.02-9.02-9.02h-44.14c-4.98 0-9.02 4.04-9.02 9.02v18.35C438.21 805.72 442.25 809.76 447.23 809.76zM444.43 767.94h49.73c1.06 0 1.93-.86 1.93-1.93v-3.92c0-1.06-.86-1.93-1.93-1.93h-49.73c-1.06 0-1.93.86-1.93 1.93v3.92C442.51 767.08 443.37 767.94 444.43 767.94z" class="color4a5e97 svgShape"/><path d="M447.8,773.5v-0.7c0-1.75,0.43-3.4,1.18-4.86h-3.64c-1.56,0-2.83-1.27-2.83-2.83V763      c0-1.56,1.27-2.83,2.83-2.83h10.21c-0.43,0.51-0.69,1.17-0.69,1.9v2.18c0,1.61,1.29,3.68,2.85,3.68h3.64      c-0.75,1.5-1.2,2.43-1.2,4.24v1.18c-5.42,0.81-9.59,5.15-9.59,10.95v14.37c0,5.66,3.96,10.36,9.18,11.35      c-0.4,0.52-0.64,1.18-0.64,1.89c0,1.03,0.5,1.94,1.25,2.49h-10.62c-1.64,0-2.98-1.33-2.98-2.98c0-0.7,0.24-1.33,0.64-1.84      c-5.22-0.95-9.18-5.53-9.18-11.03v-13.96C438.21,778.95,442.38,774.28,447.8,773.5z" opacity=".15" fill="#000000" class="color000 svgShape"/><path fill="#9293d3" d="M454.13,798.94h30.34c1.79,0,3.24-1.45,3.24-3.24v-9.15c0-1.79-1.45-3.24-3.24-3.24h-30.34     c-1.79,0-3.24,1.45-3.24,3.24v9.15C450.89,797.49,452.34,798.94,454.13,798.94z" class="color92aad3 svgShape"/></g><g fill="#000000" class="color000 svgShape"><path fill="#d99853" d="M867.41,1759.56h635.58c11.48,0,20.79-9.31,20.79-20.79V602.29c0-11.48-9.31-20.79-20.79-20.79H867.41     c-11.48,0-20.79,9.31-20.79,20.79v1136.49C846.62,1750.26,855.93,1759.56,867.41,1759.56z" class="colord96953 svgShape"/><path fill="#ffb464" d="M867,1759.56h616.67c11.25,0,20.37-9.12,20.37-20.37V614.08c0-11.25-9.12-20.37-20.37-20.37H867     c-11.25,0-20.37,9.12-20.37,20.37v1125.11C846.62,1750.44,855.75,1759.56,867,1759.56z" class="colorffc864 svgShape"/><polygon fill="#c1813e" points="1137.22 1070.77 1157.89 1070.77 1465.58 1070.77 1465.58 1461.19 1157.89 1461.19 1137.22 1461.19 881.21 1461.19 881.21 1070.77" class="colorc1883e svgShape"/><polygon fill="#d99853" points="1137.22 1070.77 1157.89 1070.77 1465.58 1070.77 1465.58 1087.69 1157.89 1087.69 1137.22 1087.69 881.21 1087.69 881.21 1070.77" class="colord96953 svgShape"/><polygon fill="#fcd1a4" points="1137.22 1511.72 1157.89 1511.72 1465.58 1511.72 1465.58 1724.48 1157.89 1724.48 1137.22 1724.48 881.21 1724.48 881.21 1511.72" class="colorfcd8a4 svgShape"/><polygon fill="#c1813e" points="1144.18 643.79 1154.91 643.79 1462.6 643.79 1462.6 1034.21 1154.91 1034.21 1144.18 1034.21 878.23 1034.21 878.23 643.79" class="colorc1883e svgShape"/><polygon fill="#d99853" points="1144.18 643.79 1154.91 643.79 1462.6 643.79 1462.6 659.12 1154.91 659.12 1144.18 659.12 878.23 659.12 878.23 643.79" class="colord96953 svgShape"/><rect width="24.4" height="276.56" x="1163.13" y="1480.41" fill="#ffb464" transform="rotate(-180 1175.333 1618.692)" class="colorffc864 svgShape"/><ellipse cx="1126.6" cy="1618.64" fill="#fe9526" rx="13.35" ry="16.37" class="colorea9b1c svgShape"/><ellipse cx="1224.79" cy="1618.64" fill="#fe9526" rx="13.35" ry="16.37" class="colorea9b1c svgShape"/><rect width="75.31" height="317.73" x="912.04" y="1143.46" fill="#797bff" class="color7990ff svgShape"/><rect width="75.31" height="10.46" x="912.04" y="1440.26" fill="#e4e4f9" class="colore7e4f9 svgShape"/><rect width="18.98" height="317.73" x="987.35" y="1143.46" fill="#595bd4" transform="rotate(-180 996.843 1302.323)" class="color4764c7 svgShape"/><path fill="#e1e3e1" d="M949.81,1218.93L949.81,1218.93c-11.79,0-21.35,9.56-21.35,21.35v92.85c0,11.79,9.56,21.35,21.35,21.35h0       c11.79,0,21.35-9.56,21.35-21.35v-92.85C971.16,1228.49,961.6,1218.93,949.81,1218.93z" class="colore1e3e2 svgShape"/><path fill="#595bd4" d="M928.46 1241.04v10.23h42.71v-10.23c0-5.11-1.69-9.81-4.51-13.56h-33.7C930.15 1231.23 928.46 1235.93 928.46 1241.04zM928.46 1326.9v5.47c0 2.23.33 4.39.92 6.42h40.86c.59-2.03.92-4.19.92-6.42v-5.47H928.46z" class="color4764c7 svgShape"/><circle cx="949.81" cy="1398.09" r="14.45" fill="#c5cfc7" class="colorc5cfcc svgShape"/><circle cx="949.81" cy="1398.09" r="10.12" fill="#08080b" class="color0a0b08 svgShape"/><g fill="#000000" class="color000 svgShape"><rect width="75.31" height="317.73" x="1003.12" y="1143.46" fill="#feac55" class="colorfe6555 svgShape"/><rect width="75.31" height="10.46" x="1003.12" y="1440.26" fill="#e4e4f9" class="colore7e4f9 svgShape"/><rect width="18.98" height="317.73" x="1078.43" y="1143.46" fill="#ce904f" transform="rotate(-180 1087.925 1302.323)" class="colorce5d4f svgShape"/><path fill="#e1e3e1" d="M1040.89,1218.93L1040.89,1218.93c-11.79,0-21.35,9.56-21.35,21.35v92.85c0,11.79,9.56,21.35,21.35,21.35       h0c11.79,0,21.35-9.56,21.35-21.35v-92.85C1062.25,1228.49,1052.69,1218.93,1040.89,1218.93z" class="colore1e3e2 svgShape"/><path fill="#ce904f" d="M1019.54 1241.04v10.23h42.71v-10.23c0-5.11-1.69-9.81-4.51-13.56h-33.7C1021.23 1231.23 1019.54 1235.93 1019.54 1241.04zM1019.54 1326.9v5.47c0 2.23.33 4.39.92 6.42h40.86c.59-2.03.92-4.19.92-6.42v-5.47H1019.54z" class="colorce5d4f svgShape"/><circle cx="1040.89" cy="1398.09" r="14.45" fill="#c5cfc7" class="colorc5cfcc svgShape"/><circle cx="1040.89" cy="1398.09" r="10.12" fill="#08080b" class="color0a0b08 svgShape"/></g><g fill="#000000" class="color000 svgShape"><rect width="75.31" height="317.73" x="1094.88" y="1143.46" fill="#53d86a" class="color2eb5a7 svgShape"/><rect width="75.31" height="10.46" x="1094.88" y="1440.26" fill="#e4e4f9" class="colore7e4f9 svgShape"/><rect width="18.98" height="317.73" x="1170.19" y="1143.46" fill="#1f8c32" transform="rotate(-180 1179.677 1302.323)" class="color1f8c77 svgShape"/><path fill="#e1e3e1" d="M1132.65,1218.93L1132.65,1218.93c-11.79,0-21.35,9.56-21.35,21.35v92.85c0,11.79,9.56,21.35,21.35,21.35       h0c11.79,0,21.35-9.56,21.35-21.35v-92.85C1154,1228.49,1144.44,1218.93,1132.65,1218.93z" class="colore1e3e2 svgShape"/><path fill="#1f8c32" d="M1111.29 1241.04v10.23H1154v-10.23c0-5.11-1.69-9.81-4.51-13.56h-33.7C1112.98 1231.23 1111.29 1235.93 1111.29 1241.04zM1111.29 1326.9v5.47c0 2.23.33 4.39.92 6.42h40.86c.59-2.03.92-4.19.92-6.42v-5.47H1111.29z" class="color1f8c77 svgShape"/><circle cx="1132.65" cy="1398.09" r="14.45" fill="#c5cfc7" class="colorc5cfcc svgShape"/><circle cx="1132.65" cy="1398.09" r="10.12" fill="#08080b" class="color0a0b08 svgShape"/><g fill="#000000" class="color000 svgShape"><rect width="75.31" height="317.73" x="1185.96" y="1143.46" fill="#cf7a21" class="colorbecf21 svgShape"/><rect width="75.31" height="10.46" x="1185.96" y="1440.26" fill="#e4e4f9" class="colore7e4f9 svgShape"/><rect width="18.98" height="317.73" x="1261.27" y="1143.46" fill="#885219" transform="rotate(-180 1270.759 1302.323)" class="color888419 svgShape"/><path fill="#e1e3e1" d="M1223.73,1218.93L1223.73,1218.93c-11.79,0-21.35,9.56-21.35,21.35v92.85c0,11.79,9.56,21.35,21.35,21.35       h0c11.79,0,21.35-9.56,21.35-21.35v-92.85C1245.08,1228.49,1235.52,1218.93,1223.73,1218.93z" class="colore1e3e2 svgShape"/><path fill="#885219" d="M1202.37 1241.04v10.23h42.71v-10.23c0-5.11-1.69-9.81-4.51-13.56h-33.7C1204.07 1231.23 1202.37 1235.93 1202.37 1241.04zM1202.37 1326.9v5.47c0 2.23.33 4.39.92 6.42h40.86c.59-2.03.92-4.19.92-6.42v-5.47H1202.37z" class="color888419 svgShape"/><circle cx="1223.73" cy="1398.09" r="14.45" fill="#c5cfc7" class="colorc5cfcc svgShape"/><circle cx="1223.73" cy="1398.09" r="10.12" fill="#08080b" class="color0a0b08 svgShape"/></g></g><g fill="#000000" class="color000 svgShape"><rect width="75.31" height="317.73" x="1274.6" y="716.48" fill="#53d86a" class="color2eb5a7 svgShape"/><rect width="75.31" height="10.46" x="1274.6" y="1013.28" fill="#e4e4f9" class="colore7e4f9 svgShape"/><rect width="18.98" height="317.73" x="1349.91" y="716.48" fill="#1f8c32" transform="rotate(-180 1359.401 875.344)" class="color1f8c77 svgShape"/><path fill="#e1e3e1" d="M1312.37,791.95L1312.37,791.95c-11.79,0-21.35,9.56-21.35,21.35v92.85c0,11.79,9.56,21.35,21.35,21.35h0       c11.79,0,21.35-9.56,21.35-21.35V813.3C1333.72,801.51,1324.16,791.95,1312.37,791.95z" class="colore1e3e2 svgShape"/><path fill="#1f8c32" d="M1291.02 814.07v10.23h42.71v-10.23c0-5.11-1.69-9.81-4.51-13.56h-33.7C1292.71 804.26 1291.02 808.95 1291.02 814.07zM1291.02 899.92v5.47c0 2.23.33 4.39.92 6.42h40.86c.59-2.03.92-4.19.92-6.42v-5.47H1291.02z" class="color1f8c77 svgShape"/><circle cx="1312.37" cy="971.11" r="14.45" fill="#c5cfc7" transform="rotate(-45.001 1312.365 971.13)" class="colorc5cfcc svgShape"/><circle cx="1312.37" cy="971.11" r="10.12" fill="#08080b" transform="rotate(-45.001 1312.365 971.13)" class="color0a0b08 svgShape"/><g fill="#000000" class="color000 svgShape"><rect width="75.31" height="317.73" x="1365.68" y="716.48" fill="#cf7a21" class="colorbecf21 svgShape"/><rect width="75.31" height="10.46" x="1365.68" y="1013.28" fill="#e4e4f9" class="colore7e4f9 svgShape"/><rect width="18.98" height="317.73" x="1440.99" y="716.48" fill="#885219" transform="rotate(-180 1450.483 875.344)" class="color888419 svgShape"/><path fill="#e1e3e1" d="M1403.45,791.95L1403.45,791.95c-11.79,0-21.35,9.56-21.35,21.35v92.85c0,11.79,9.56,21.35,21.35,21.35h0       c11.79,0,21.35-9.56,21.35-21.35V813.3C1424.81,801.51,1415.25,791.95,1403.45,791.95z" class="colore1e3e2 svgShape"/><path fill="#885219" d="M1382.1 814.07v10.23h42.71v-10.23c0-5.11-1.69-9.81-4.51-13.56h-33.7C1383.79 804.26 1382.1 808.95 1382.1 814.07zM1382.1 899.92v5.47c0 2.23.33 4.39.92 6.42h40.86c.59-2.03.92-4.19.92-6.42v-5.47H1382.1z" class="color888419 svgShape"/><circle cx="1403.45" cy="971.11" r="14.45" fill="#c5cfc7" transform="rotate(-80.781 1403.47 971.087)" class="colorc5cfcc svgShape"/><circle cx="1403.45" cy="971.11" r="10.12" fill="#08080b" transform="rotate(-76.714 1403.583 971.14)" class="color0a0b08 svgShape"/></g></g><g fill="#000000" class="color000 svgShape"><rect width="75.31" height="317.73" x="1277.71" y="1143.46" fill="#797bff" class="color7990ff svgShape"/><rect width="75.31" height="10.46" x="1277.71" y="1440.26" fill="#e4e4f9" class="colore7e4f9 svgShape"/><rect width="18.98" height="317.73" x="1353.02" y="1143.46" fill="#595bd4" transform="rotate(-180 1362.51 1302.323)" class="color4764c7 svgShape"/><path fill="#e1e3e1" d="M1315.48,1218.93L1315.48,1218.93c-11.79,0-21.35,9.56-21.35,21.35v92.85c0,11.79,9.56,21.35,21.35,21.35       h0c11.79,0,21.35-9.56,21.35-21.35v-92.85C1336.83,1228.49,1327.27,1218.93,1315.48,1218.93z" class="colore1e3e2 svgShape"/><path fill="#595bd4" d="M1294.13 1241.04v10.23h42.71v-10.23c0-5.11-1.69-9.81-4.51-13.56h-33.7C1295.82 1231.23 1294.13 1235.93 1294.13 1241.04zM1294.13 1326.9v5.47c0 2.23.33 4.39.92 6.42h40.86c.59-2.03.92-4.19.92-6.42v-5.47H1294.13z" class="color4764c7 svgShape"/><circle cx="1315.48" cy="1398.09" r="14.45" fill="#c5cfc7" class="colorc5cfcc svgShape"/><circle cx="1315.48" cy="1398.09" r="10.12" fill="#08080b" class="color0a0b08 svgShape"/><g fill="#000000" class="color000 svgShape"><rect width="75.31" height="317.73" x="1368.79" y="1143.46" fill="#feac55" class="colorfe6555 svgShape"/><rect width="75.31" height="10.46" x="1368.79" y="1440.26" fill="#e4e4f9" class="colore7e4f9 svgShape"/><rect width="18.98" height="317.73" x="1444.1" y="1143.46" fill="#ce904f" transform="rotate(-180 1453.593 1302.323)" class="colorce5d4f svgShape"/><path fill="#e1e3e1" d="M1406.56,1218.93L1406.56,1218.93c-11.79,0-21.35,9.56-21.35,21.35v92.85c0,11.79,9.56,21.35,21.35,21.35       h0c11.79,0,21.35-9.56,21.35-21.35v-92.85C1427.91,1228.49,1418.35,1218.93,1406.56,1218.93z" class="colore1e3e2 svgShape"/><path fill="#ce904f" d="M1385.21 1241.04v10.23h42.71v-10.23c0-5.11-1.69-9.81-4.51-13.56h-33.7C1386.9 1231.23 1385.21 1235.93 1385.21 1241.04zM1385.21 1326.9v5.47c0 2.23.33 4.39.92 6.42h40.86c.59-2.03.92-4.19.92-6.42v-5.47H1385.21z" class="colorce5d4f svgShape"/><circle cx="1406.56" cy="1398.09" r="14.45" fill="#c5cfc7" class="colorc5cfcc svgShape"/><circle cx="1406.56" cy="1398.09" r="10.12" fill="#08080b" class="color0a0b08 svgShape"/></g></g><g fill="#000000" class="color000 svgShape"><path fill="#f89227" d="M965.36,979.51v-10.09h268.05c13.78,0,24.94,14.46,24.94,32.29v0.2c0,17.83-11.17,32.29-24.94,32.29      H965.36v-10.09C973.7,1001.36,965.36,979.51,965.36,979.51z" class="colorf85427 svgShape"/><path fill="#ffa03c" d="M1233.4,969.42h-108.23c-0.42,1.64-0.66,3.37-0.66,5.16v29.49c0,10.42,7.63,18.86,17.05,18.86h110.78      c3.74-5.65,6.01-12.98,6.01-21.01v-0.2C1258.35,983.88,1247.18,969.42,1233.4,969.42z" class="colorff6c3c svgShape"/><path fill="#d87f21" d="M965.36,969.42h131.45c11.01,0,19.94,11.56,19.94,25.82v13.14c0,14.26-8.93,25.82-19.94,25.82H965.36      v-10.09c8.34-22.76,0-44.61,0-44.61V969.42z" class="colord83a21 svgShape"/><path fill="#edf0ed" d="M1095.4,979.51c7.59,0,13.73,7.96,13.73,17.78v9.05c0,9.82-6.15,17.78-13.73,17.78H965.36      c7.3-22.31,0-44.61,0-44.61H1095.4z" class="coloredf0ef svgShape"/><path fill="#dee1df" d="M965.36,979.51h130.04c7.59,0,13.73,7.96,13.73,17.78v4.53l-140.54,0      C968.45,989.03,965.36,979.51,965.36,979.51z" opacity=".83" class="colordee1de svgShape"/><path fill="#0b9e24" d="M1251.25,885.53v-6.38h-210.98c-10.84,0-19.63,9.15-19.63,20.44v0.13c0,11.29,8.79,20.44,19.63,20.44      h210.98v-6.38C1244.69,899.36,1251.25,885.53,1251.25,885.53z" class="color0b9e4a svgShape"/><path fill="#0ea929" d="M1040.27,879.15h85.19c0.33,1.04,0.52,2.13,0.52,3.26v18.66c0,6.59-6.01,11.93-13.42,11.93h-87.19      c-2.95-3.57-4.73-8.22-4.73-13.29v-0.13C1020.64,888.3,1029.43,879.15,1040.27,879.15z" class="color0ea954 svgShape"/><path fill="#1f1f23" d="M1086.42,879.15h15.25c-6.29,3.84-10.59,11.54-10.59,20.43v0.14c0,8.89,4.3,16.59,10.59,20.43h-15.25      c-10.84,0-17.19-9.25-17.19-20.54v-0.21C1069.24,888.11,1075.58,879.15,1086.42,879.15z" opacity=".15" class="color231f20 svgShape"/><path fill="#03891a" d="M1251.25,879.15h-103.46c-8.67,0-15.7,7.32-15.7,16.34v8.32c0,9.02,7.03,16.34,15.7,16.34h103.46v-6.38      c-6.56-14.4,0-28.23,0-28.23V879.15z" class="color03893f svgShape"/><path fill="#edf0ed" d="M1148.89,885.53c-5.97,0-10.81,5.04-10.81,11.25v5.73c0,6.21,4.84,11.25,10.81,11.25h102.36      c-5.74-14.12,0-28.23,0-28.23H1148.89z" class="coloredf0ef svgShape"/><path fill="#dee1df" d="M1251.25,885.53h-102.36c-5.97,0-10.81,5.04-10.81,11.25v2.86l110.62,0      C1248.82,891.55,1251.25,885.53,1251.25,885.53z" opacity=".83" class="colordee1de svgShape"/><g fill="#000000" class="color000 svgShape"><path fill="#4792eb" d="M1271.82,927.8v-7.65h-255.06c-13.11,0-21.49,11.03-21.49,24.55v0.15c0,13.53,8.38,24.43,21.49,24.43      h255.06v-7.65C1263.88,944.37,1271.82,927.8,1271.82,927.8z" class="color4796eb svgShape"/><path fill="#6062ef" d="M995.27,944.7v0.15c0,5.54,1.42,10.62,3.98,14.71h108.25c7.09,0,12.84-6.35,12.84-14.19v-25.23h-103.59      C1003.65,920.15,995.27,931.17,995.27,944.7z" class="color60abef svgShape"/><path fill="#1f1f23" d="M1072.55,920.15h18.43c-7.6,4.6-12.8,13.83-12.8,24.48v0.17c0,10.66,5.2,19.88,12.8,24.48h-18.43      c-13.11,0-23.73-10.97-23.73-24.49v-0.15C1048.82,931.11,1059.44,920.15,1072.55,920.15z" opacity=".15" class="color231f20 svgShape"/><path fill="#5355cc" d="M1271.82,920.15h-125.08c-10.48,0-18.98,8.77-18.98,19.58v9.97c0,10.82,8.5,19.58,18.98,19.58h125.08      v-7.65c-7.94-17.26,0-33.84,0-33.84V920.15z" class="color5384cc svgShape"/><path fill="#edf0ed" d="M1148.07,927.8c-7.22,0-13.07,6.04-13.07,13.49v6.87c0,7.45,5.85,13.49,13.07,13.49h123.74      c-6.94-16.92,0-33.84,0-33.84H1148.07z" class="coloredf0ef svgShape"/><path fill="#dee1df" d="M1271.82,927.8h-123.74c-7.22,0-13.07,6.04-13.07,13.49v3.43l133.73,0      C1268.87,935.01,1271.82,927.8,1271.82,927.8z" opacity=".83" class="colordee1de svgShape"/><path fill="#0205a0" d="M1152.09,939.73c0,0,1.26,1.62,1.41,5.35c0.16,3.73,1.89,8.11,1.89,8.11l4.09-4.22l4.4,4.22      c0,0-1.41-5.19-1.41-7.95c0-2.76-2.2-5.51-2.2-5.51H1152.09z" class="color022fa0 svgShape"/></g></g><g fill="#000000" class="color000 svgShape"><path fill="#6062ef" d="M1147.93,798.83c0,0,8.53-10.42,7.11-23.22l-8.06,6.63c0,0,14.22-17.53,3.79-41.23c0,0-4.26,12.79-9,15.64      c0,0,10.9-15.64,1.42-33.64l-6.63,9.95l1.42-16.11l-11.37-16.59l-0.95,15.64c0,0,0-26.06-17.53-34.59l-1.9,10.9l-1.9-15.16      l-15.16-11.85l0.47,19.9l9.95,15.16l-9.48-2.37c0,0,2.37,27.96,8.53,37.44l12.32,4.74l-9.48,0.95l4.74,14.22l14.69,5.21      l-12.32-0.95c0,0,2.84,16.11,27.48,27.48l-8.06,1.9C1128.03,788.88,1133.24,796.46,1147.93,798.83z" class="color60abef svgShape"/><path fill="#4a4b97" d="M1100.59,690.18c0,0,47.66,84.33,61.97,153.33C1162.57,843.51,1124.84,735.2,1100.59,690.18z" class="color4a5e97 svgShape"/><path fill="#2d2d47" d="M1133.74,870.86h52.34c1.01,0,1.83,0.82,1.83,1.83v3.73c0,1.01-0.82,1.83-1.83,1.83h-52.34       c-1.01,0-1.83-0.82-1.83-1.83v-3.73C1131.9,871.68,1132.72,870.86,1133.74,870.86z" class="color2d3147 svgShape"/><path fill="#2d2d47" d="M1146.45,872.51h26.91c7.32,0,13.25-5.93,13.25-13.25V826.6c0-7.32-5.93-13.25-13.25-13.25h-26.91       c-7.32,0-13.25,5.93-13.25,13.25v32.66C1133.2,866.58,1139.13,872.51,1146.45,872.51z" class="color2d3147 svgShape"/><path fill="#4a4b97" d="M1132.49 872.51h54.83c6.19 0 11.2-5.01 11.2-11.2v-22.79c0-6.19-5.01-11.2-11.2-11.2h-54.83c-6.19 0-11.2 5.01-11.2 11.2v22.79C1121.29 867.49 1126.31 872.51 1132.49 872.51zM1129.02 820.57h61.76c1.32 0 2.39-1.07 2.39-2.39v-4.87c0-1.32-1.07-2.39-2.39-2.39h-61.76c-1.32 0-2.39 1.07-2.39 2.39v4.87C1126.63 819.5 1127.7 820.57 1129.02 820.57z" class="color4a5e97 svgShape"/><path d="M1133.2,827.47v-0.87c0-2.18,0.53-4.22,1.46-6.04h-4.53c-1.94,0-3.51-1.57-3.51-3.51v-2.63       c0-1.94,1.57-3.51,3.51-3.51h12.68c-0.53,0.63-0.86,1.46-0.86,2.36v2.71c0,2,1.6,4.57,3.54,4.57h4.53       c-0.93,1.86-1.5,3.02-1.5,5.26v1.47c-6.74,1-11.91,6.39-11.91,13.6v17.84c0,7.03,4.92,12.87,11.41,14.09       c-0.5,0.65-0.79,1.46-0.79,2.35c0,1.28,0.61,2.41,1.56,3.1h-13.19c-2.04,0-3.7-1.66-3.7-3.7c0-0.86,0.3-1.66,0.79-2.29       c-6.49-1.19-11.41-6.86-11.41-13.69v-17.34C1121.29,834.24,1126.47,828.44,1133.2,827.47z" opacity=".15" fill="#000000" class="color000 svgShape"/><path fill="#9293d3" d="M1141.07,859.07h37.68c2.22,0,4.03-1.8,4.03-4.03v-11.37c0-2.22-1.8-4.03-4.03-4.03h-37.68      c-2.22,0-4.03,1.8-4.03,4.03v11.37C1137.04,857.26,1138.84,859.07,1141.07,859.07z" class="color92aad3 svgShape"/></g></g><g fill="#000000" class="color000 svgShape"><polygon fill="#6d6ea8" points="730.97 1759.56 833.11 1060.46 815.89 1060.46 713.75 1759.56" class="color6d8ca8 svgShape"/><polygon fill="#4e4f89" points="828.65 1060.46 726.52 1759.56 730.97 1759.56 833.11 1060.46" class="color4e7089 svgShape"/><rect width="179.79" height="21.52" x="739.63" y="1611.25" fill="#6d6ea8" class="color6d8ca8 svgShape"/><rect width="179.79" height="21.52" x="759.49" y="1465.19" fill="#6d6ea8" class="color6d8ca8 svgShape"/><rect width="179.79" height="21.52" x="779.34" y="1319.13" fill="#6d6ea8" class="color6d8ca8 svgShape"/><rect width="179.79" height="21.52" x="799.19" y="1173.06" fill="#6d6ea8" class="color6d8ca8 svgShape"/><polygon fill="#6d6ea8" points="907.94 1759.56 1010.07 1060.46 992.85 1060.46 890.72 1759.56" class="color6d8ca8 svgShape"/><polygon fill="#4e4f89" points="1003.25 1060.46 901.12 1759.56 907.94 1759.56 1010.07 1060.46" class="color4e7089 svgShape"/></g><g fill="#000000" class="color000 svgShape"><path fill="#e8c095" d="M908.94 1289.21c0 0-6.52 123.78-10.87 150.3 0 0 2.61 7.02 17.97 11.51 15.36 4.49 24.35 8.98 18.26 16.28 0 0-57.97 1.4-62.6-1.96-4.64-3.37-2.9-8.7 3.77-21.33 0 0-9.56-142.3-4.06-154.79H908.94zM861.26 1289.21c0 0-.87 36.35-12.17 61.33-11.3 24.98-32.75 75.22-32.75 83.36 0 8.14 0 20.21 0 20.21s-12.75 8.42-19.42-5.89c0 0 2.9-21.61 5.51-38.45 2.61-16.84 12.75-68.48 16.52-84.48 3.77-16 4.64-36.07 4.64-36.07H861.26z" class="colore8b795 svgShape"/><path fill="#2d2d3d" d="M917.34 1451.41c14.55 4.36 22.87 8.8 16.96 15.89 0 0-57.97 1.4-62.6-1.96-4.31-3.13-3.11-7.96 2.43-18.75C874.14 1446.59 903.29 1459.65 917.34 1451.41zM816.34 1454.11c0 0 8.7 7.51 4.13 15.51-4.56 8-25.65 2.26-28.26-2.03-2.61-4.29 4.71-19.38 4.71-19.38L816.34 1454.11z" class="color2d313d svgShape"/><path fill="#15151c" d="M854.35,911.84c0,0-10.77-5.58-18.98,16.17c-8.21,21.74-8.63,55.63-5.67,67.18c0,0-23.83,25.66-4.36,42.43    c0,0,26.83,28.23,28.6,35.5c0.69-1.7,12.21-22.44,30.87-23.59c18.66-1.15,64.65-49.46,40.12-56.97c0,0,1.83,7.81-6.54,5.93    c-8.37-1.88-3.1-30.69-3.18-40.88c-0.08-10.19-6.22-35.3-24.07-45.96C873.3,900.99,852.75,901.74,854.35,911.84z" class="color1c1715 svgShape"/><path fill="#ebb47a" d="M884.81,978.9c0,0,3.86,14.36,6.39,16.27c0,0,2.54,6.62-4.94,25.33c-7.48,18.71-26.43,8.26-29.46,3.16    c-3.03-5.11-9.72-14.88-3.61-24.6c0,0,8.36-6.07,3.99-19.26C857.17,979.8,883.48,974.5,884.81,978.9z" class="coloreba97a svgShape"/><path fill="#fdcb96" d="M853.91,980.13c0,0,12.68,9.84,23.05,6.04c10.37-3.8,19.56-13.83,22.4-23.87    c2.84-10.04-1.77-30.18-8.75-37.35c-6.98-7.17-32.9-11.87-40.17-2.54C843.15,931.76,840.32,969.41,853.91,980.13z" class="colorfdc596 svgShape"/><path fill="#5254dd" d="M830.52,1157.77c0,0-27.59,14.85-29.1,22.34l30.4-9.73L830.52,1157.77z" class="colordd52a8 svgShape"/><path fill="#474891" d="M911.66,1165.87c0,0,11.08,80.85,0.32,132.38c0,0-77.96,6.16-92.6-2.03c0,0-4.89-88.73,1.15-129.89    L911.66,1165.87z" class="color476291 svgShape"/><path fill="#3e3f87" d="M819.38,1296.22c0,0,0.13-7.66-0.7-15.36c6.57,3.42,21.14,12.4,43.36,8.81    c30.18-4.86,37.12-67.56,33.56-97.04c-1.33-11.02-5.05-20.95-9.18-29.08l25.25,2.32c0,0,11.08,80.85,0.32,132.38    C911.98,1298.25,834.02,1304.41,819.38,1296.22z" class="color3e5c87 svgShape"/><path fill="#f6f6f6" d="M857.44,994.26c0,0,22.68,9.93,33.66-1.4c0,0,47.55,47.63,20.56,172.57c0,0-90.67,4.68-92.47,4.99    c-1.8,0.31,6.51-27.09,17.11-34.7c10.53-7.55,71.39-42.61,20.9-139.47C856.86,995.6,856.91,995.22,857.44,994.26z" class="colorf6f6f6 svgShape"/><path fill="#dceade" d="M848.93,1168.65c71.77-16.29,49.58-89.68,52.03-104.39c2.04-12.23-18.22-52.7-25.11-65.99    c5.52,0.05,11.19-1.22,15.25-5.41c0,0,47.55,47.63,20.56,172.57c0,0-36.03,1.86-63.12,3.31    C848.67,1168.71,848.79,1168.68,848.93,1168.65z" class="colordce2ea svgShape"/><path fill="#fdcb96" d="M1008.42,990.73c0,0,3.95-5.09,3.09-8.22c-0.78-2.82-0.46-1.85-0.87-3.04c-0.14-0.41-0.36-1.23-0.36-1.23     s-2.16-7.71-0.32-9.38c1.84-1.67,3.73-0.48,4.13,3.79c0.4,4.27,6.91,4.65,7.96-2.15c1.05-6.8,4.45-14.2,6.44-12.22     c2,1.97,0.14,7.49,0.14,7.49s0.28,0.11,0.66-1.32c0.39-1.43-0.08-5.29,0.84-4.79c0.93,0.49,7.13,3.29,6.68,12.58     c-0.46,9.3-5.58,13.02-7.46,14.82c-1.88,1.8-6.93,9.54-7.07,12.59C1022.28,999.65,1007.72,995.94,1008.42,990.73z" class="colorfdc596 svgShape"/><path fill="#ffbd77" d="M1025.09,994.22c0.4-1.23-0.3-2.58-1.55-2.98l-13.19-4.25c-0.54-0.28-1.21-0.09-1.5,0.45     c-2.35,4.31-7.78,20.11-23.31,41.38c-3.58,4.9-10.76,15.21-15.27,19.91c-0.24,0.25-0.57,0.37-0.92,0.33     c-1.81-0.18-7.56-5.09-15.95-13.44c-9.85-9.81-27.84-42-49.3-37.83c-1.22,3.11-2.39,6.51-3.45,10.17     c-1.83,6.33-1.67,12.94,0.27,19.02c1.24,3.3,3,6.43,5.27,9.25c2.62,3.26,5.64,6.91,8.94,10.72     c15.42,16.34,37.61,36.67,54.31,38.91c0,0,2.89,1.14,6.94-0.72c0.16-0.1,0.31-0.2,0.47-0.31c0.34-0.25,0.7-0.46,1.01-0.72     l0.91-0.85c0,0,8.62-10.07,16.04-22.1c2.7-4.43,5.59-9.23,8.52-14.22C1013.94,1028.94,1020.69,1007.75,1025.09,994.22z" class="colorff77c4 svgShape"/><path fill="#5254dd" d="M1023.54,991.24l-13.19-4.25c-0.54-0.28-1.21-0.09-1.5,0.45c-0.75,1.37-1.81,3.92-3.41,7.43     c3.53,0.28,11.7,2.19,10.52,14.1c-3.55,9.2-7.86,18.93-13.13,27.89c-2.94,4.99-5.82,9.8-8.52,14.22     c-7.42,12.03-16.04,22.1-16.04,22.1l-0.91,0.85c-0.31,0.27-0.67,0.48-1.01,0.72c-5.94,4.24-10.39,2.21-10.39,2.21     c-19.8-3.65-45.99-33.01-60.27-50.81c-2.9-3.61-4.96-7.73-6.15-12.06c-0.39,4.34,0.07,8.69,1.37,12.8c0.15,0.4,0.3,0.8,0.46,1.19     c0,0,0,0.01,0.01,0.01c0.2,0.48,0.41,0.95,0.63,1.42c0.01,0.03,0.03,0.05,0.04,0.08c0.19,0.41,0.4,0.82,0.61,1.22     c0.07,0.13,0.14,0.25,0.21,0.38c0.16,0.3,0.33,0.61,0.51,0.91c0.09,0.15,0.18,0.3,0.27,0.45c0.17,0.28,0.34,0.55,0.52,0.83     c0.1,0.15,0.19,0.3,0.29,0.45c0.19,0.28,0.38,0.56,0.58,0.84c0.09,0.13,0.18,0.26,0.27,0.38c0.29,0.4,0.59,0.8,0.91,1.19     c0.39,0.49,0.8,0.99,1.21,1.5c0.14,0.17,0.28,0.34,0.42,0.51c0.28,0.35,0.57,0.7,0.86,1.05c0.17,0.2,0.33,0.4,0.5,0.61     c0.37,0.46,0.76,0.92,1.14,1.38c0.22,0.27,0.45,0.53,0.67,0.8c0.24,0.29,0.49,0.59,0.74,0.88c0.25,0.29,0.5,0.59,0.75,0.89     c0.2,0.24,0.41,0.48,0.62,0.72c0.67,0.79,1.35,1.58,2.04,2.38c15.42,16.34,37.61,36.67,54.31,38.91c0,0,2.89,1.14,6.94-0.72     c0.16-0.1,0.31-0.2,0.47-0.31c0.34-0.25,0.7-0.46,1.01-0.72l0.91-0.85c0,0,8.62-10.07,16.04-22.1c2.7-4.43,5.59-9.23,8.52-14.22     c5.94-10.1,10.67-21.19,14.46-31.38l0,0c0,0,0,0,0,0c0.15-0.4,0.29-0.8,0.44-1.2c0.24-0.66,0.49-1.32,0.72-1.97     c0.18-0.5,0.35-0.98,0.52-1.47c0.19-0.55,0.39-1.1,0.58-1.64c0.17-0.5,0.34-0.99,0.52-1.48c0.18-0.52,0.36-1.04,0.53-1.55     c0.17-0.49,0.33-0.96,0.49-1.44c0.17-0.51,0.34-1.02,0.51-1.52c0.15-0.45,0.3-0.9,0.45-1.34c0.17-0.53,0.34-1.04,0.51-1.56     c0.13-0.4,0.27-0.81,0.4-1.2c0.18-0.56,0.36-1.11,0.54-1.65c0.11-0.34,0.22-0.67,0.33-1c0.26-0.79,0.51-1.57,0.75-2.32     C1025.49,992.98,1024.79,991.64,1023.54,991.24z" class="colordd52a8 svgShape"/><path fill="#ffbd77" d="M927.62 1030.97c0 0-1.43-9.08-4.5-21.03-.88-3.44-3.17-7.52-6.35-9.48-6.89-4.25-17.93-6.36-26.45-7.59 0 0 23.65 90.1 22.03 158.74-1.16 6.04-1.65 11.27-.7 13.83 0 0 5.63 2.22 15.3 8.69 8.87 5.94-3.44-44.93-5.53-53.35C927.15 1088.03 930.97 1065.03 927.62 1030.97zM856.76 993.98c0 0-5.95.62-14.12 3.08-3.29 1-25.48 9.11-23.97 44.39 1.63 38.1 5.1 70.22-.39 83.31-5.48 13.09-17.98 34.84-18.66 58.31 28.29-22.8 62.49-47.3 81.22-86.66C906.88 1041.68 856.76 993.98 856.76 993.98z" class="colorff77c4 svgShape"/><path fill="#5254dd" d="M836.38,1000c-7.58,4.71-18.8,16.02-17.71,41.45c1.63,38.1,5.1,70.22-0.39,83.31    c-5.48,13.09-17.98,34.84-18.66,58.31c0,0,12.24-39.16,32.19-59.65C831.82,1123.42,815.8,1041.02,836.38,1000z" class="colordd52a8 svgShape"/><polygon fill="#9ce2a8" points="854.43 993.96 874.54 1010.59 877.75 998.74 861.62 994.2" class="color9cd6e2 svgShape"/><path fill="#9ce2a8" d="M890.32,992.86l-11.8,5.41l11.16,12.83C889.68,1011.1,895.09,997.97,890.32,992.86z" class="color9cd6e2 svgShape"/><path fill="#ffbd77" d="M783.69,1096.46c4.23,1.59,20.99,8.07,27.8,6.45c12.02-21.96,23.97-56.48,35.88-78.23     c2.48-4.54-1.46-22.44-2.18-24.48c-0.94-2.71-18.75-0.18-21.43,4.85c-13.44,25.19-31.1,52.79-41.97,75.91     c-1.6,3.4-1.7,7.3-0.41,10.82C782.22,1094.08,783.14,1096.25,783.69,1096.46z" class="colorff77c4 svgShape"/><path fill="#0962cb" d="M841.36,1181.14l0.12-0.07l0,0l83.09-49.89l0.12-0.07c2.51-1.51,3.24-4.77,1.64-7.28l-35.17-55.16l0,0      l-2.08-3.26c-1.64-2.58-5.06-3.42-7.64-1.87l-83.08,49.89c-2.57,1.54-3.33,4.89-1.68,7.47l16.3,25.57l20.95,32.86      C835.52,1181.83,838.85,1182.64,841.36,1181.14z" class="color098ccb svgShape"/><path fill="#0962cb" d="M912.6,1103.7l-12.48-19.48l0.3-0.17c4.72-2.68,9.57,1.36,13.01,6.74l0,0c3.45,5.38,4.19,10.07-0.53,12.75      L912.6,1103.7z" class="color098ccb svgShape"/><path fill="#59a5ff" d="M798.6,1123.1l35.31,56.16c1.61,2.56,4.95,3.4,7.45,1.87l83.23-50.66c2.51-1.53,3.23-4.84,1.62-7.4      l-35.31-56.16c-1.61-2.56-4.95-3.4-7.45-1.87l-83.23,50.66C797.71,1117.22,796.98,1120.54,798.6,1123.1z" class="color59abff svgShape"/><path fill="#0962cb" d="M883.56,1151.43c1.27-0.6,2.49-1.2,3.41-1.67c3.09-1.59,4.77-6.7,2.27-5.63c-2.5,1.07-7.93,0.2-11.23,0.04     c-2.52-0.12-6.62,0.87-8.42,1.35c-2.29-0.68-4.58-1.07-6.61-1.01c-10.54-11.82-29.67-33.13-41.24-45.15l-23.4,14.05     c-1.28,0.77-2.11,1.98-2.42,3.33c17.59,12.47,46.77,33.07,58.64,41.45c1.09,2.01,3.61,4.15,5.93,5.82     c1.03,0.91,2.38,2.11,3.81,3.34l29.56-17.75c-2.99,1.25-5.89,2.57-6.91,2.53C886.59,1152.12,885.3,1151.84,883.56,1151.43z" class="color098ccb svgShape"/><path fill="#ffbd77" d="M784.1,1087.15c3.86-4.77,28.27,1.48,32.42,3.06s55.32,58.29,55.32,58.29l-10.45,7.53       c0,0-62.73-44.12-73.16-51.6C785.95,1102.82,780.24,1091.92,784.1,1087.15z" class="colorff77c4 svgShape"/><path fill="#fec78c" d="M869.1,1143.32c0,0,17.13,4.98,18.63,5.1c1.5,0.12,7.22-2.4,11.07-3.29c3.85-0.89,3.22,2.55-0.72,4.42       c-2.31,1.1-9.44,3.86-10.61,4.34c-1.16,0.48-17.84-3.57-19.69-3.89C865.94,1149.68,866.1,1142.45,869.1,1143.32z" class="colorfeb48c svgShape"/><path fill="#fec78c" d="M866.77,1153.01c0,0,14.92,5.86,17.77,6.45c2.86,0.58,8.56-4.26,10.64-6.59       c2.08-2.33-0.69-4.15-3.48-2.73c-3.11,1.58-6.89,3.72-6.89,3.72l-14.51-6.8C870.31,1147.06,860.87,1150.55,866.77,1153.01z" class="colorfeb48c svgShape"/><path fill="#fec78c" d="M864.27,1157.39c0,0,14.1,6.58,16.84,7.24c2.74,0.65,8.48-4.28,10.56-6.46c2.08-2.18-0.35-3.69-2.93-2.13       c-3.37,2.04-6.34,3.24-6.97,3.12c-0.63-0.12-13.9-7.4-13.9-7.4S858.66,1154.81,864.27,1157.39z" class="colorfeb48c svgShape"/><path fill="#fec78c" d="M860.18 1156.35c0 0 10.52 9.32 12.72 10.59 2.2 1.27 8.44-1.52 10.8-2.88 2.36-1.35.65-3.28-1.99-2.59-3.44.9-6.32 1.18-6.83.91-.51-.27-10.13-9.97-10.13-9.97S855.98 1152.69 860.18 1156.35zM870.18 1141.96c0 0 5.84-1.31 9.02-1.03 3.18.27 8.42 1.29 10.85.43 2.43-.86.73 3.65-2.28 4.94-3.01 1.29-9.47 3.71-9.47 3.71S865.2 1143.56 870.18 1141.96z" class="colorfeb48c svgShape"/><path fill="#fec78c" d="M866.45,1160.84c0,0-8.29-4.7-10.23-8.53c-1.35-2.66,1.12-10.62,6.27-11.55       c5.15-0.93,13.36,2.18,17.89,5.88C883.91,1149.52,870.47,1161.63,866.45,1160.84z" class="colorfeb48c svgShape"/><path fill="#194420" d="M839.5,1012.35c0,0-10.4,4.03-16.31-4c-5.91-8.03,4.01-12.85,4.01-12.85s-6.45,8.12,2.95,9.14    c9.4,1.02,9.46-14.77,6.16-23.48c-9.54-25.15-4.01-41.69,0.4-50.7c4.41-9.01,12.27-15.61,12.27-15.61l5.37-3l3.73,9.13    c0,0-6.77,10.34-10.2,19.88c-3.43,9.54-4.89,21.79,3.14,37.59C859.05,994.25,861.06,1009.77,839.5,1012.35z" class="color442b19 svgShape"/><path fill="#26512d" d="M858.08,920.98l-3.73-9.13l0,0l0,0c0,0-10.77-5.58-18.98,16.17c-2.82,7.47-4.29,16.43-4.89,25.45    c3.69,13.52,14.13,29.1,19.81,42.34c7.18,16.71-14.78,12.25-14.78,12.25s7.31,12.38,18.32,2.84c12.1-10.49,1.55-27.8-3.07-36.86    c-4.62-9.06-3.84-26.23,0.59-35.99C855.77,928.28,858.08,920.98,858.08,920.98z" class="color513826 svgShape"/><path fill="#194420" d="M858.08,920.98c0,0,24.58-6.51,36.93,23.24c12.34,29.76-5.38,43.47-2.26,52.64    c3.12,9.18,11.48,10.49,18.67,1.05c0,0-8.83,5.7-10.15-0.74c-1.31-6.43,13.36-15.85,12.03-40.4c-0.47-8.62-1.87-16.04-3.48-22.04    c-3.78-8.86-9.77-17.78-18.67-23.09c-17.85-10.65-38.39-9.91-36.79,0.2L858.08,920.98z" class="color442b19 svgShape"/></g><g fill="#000000" class="color000 svgShape"><path fill="#22223b" d="M1615.07,1725.18l1.55,15.64c0,0-15.3,6.52-18.01,3.42c-2.71-3.1-4.59-2.28-4.59-2.28l-1.3-19.78     L1615.07,1725.18z" class="color22313b svgShape"/><polygon fill="#22223b" points="1681.77 1720.39 1680.82 1735.41 1660.89 1734.4 1658.53 1717.69" class="color22313b svgShape"/><path fill="#3f3f52" d="M1676.44,1467.23c0,0,1.12,39.26-1.17,61.77c-2.29,22.52-6.54,78.76-3.14,95.5     c3.13,15.39,12.67,82.74,14.44,102.25c0.2,2.17-1.59,4.02-3.86,4.03c-8.79,0.03-22.85,1.48-25.24-2.81     c-3.08-5.52-25.96-91.09-29.36-107.83c-3.4-16.74-9.65-30.6-9.65-30.6s-2.29,22.52-1.81,39.34l2.82,99.19     c0.07,2.43-2.08,4.38-4.6,4.15c-8.01-0.72-17.77-0.86-24.27-2.74c0,0-10.47-65.95-14.27-96.72     c-3.8-30.76-9.71-142.71-1.66-155.61C1582.74,1464.28,1676.44,1467.23,1676.44,1467.23z" class="color3f4752 svgShape"/><path fill="#2f2f40" d="M1686.58 1726.75c.2 2.17-1.59 4.02-3.86 4.03-1.91.01-4.36-.01-7.02-.08-4.53-31.51-20.49-121.42-23.56-140.71-2.66-16.7 5.35-88.01 9.57-123.03 8.89.08 14.73.26 14.73.26s1.12 39.26-1.17 61.77c-2.29 22.52-6.54 78.76-3.14 95.5C1675.26 1639.89 1684.81 1707.24 1686.58 1726.75zM1609.38 1526.66c3.24 11.13 10.45 66.11 10.45 66.11l0 0c-.82-2.05-1.35-3.23-1.35-3.23s-2.29 22.52-1.81 39.34l2.82 99.19c.07 2.43-2.08 4.38-4.6 4.15-6.69-.6-14.3-1.04-21.95-2.52 5.47-1.09 13.92-4.93 16.09-9.41 2.76-5.69-6.03-109.28-6.03-109.28C1608.29 1591.24 1609.38 1526.66 1609.38 1526.66z" class="color2f3740 svgShape"/><path fill="#2d2d3d" d="M1684.09 1736.09c0 0-21.77-7.35-27.08-4.54 0 0 .15 5.31-2.47 8.04-2.62 2.73-18.32 19.12-15.56 21.7 2.77 2.58 29.78 4.47 45.78-1.3L1684.09 1736.09zM1616.85 1737.5c.92-.1 1.73.6 1.76 1.52l.57 20.07c0 0 2.51 2.35-12.12 2.77-14.62.42-53.62 1.52-56.13-.83-2.51-2.35-.14-4.84 11.91-10.02 12.05-5.18 25.21-14.03 29.95-19 0 0 9.75-.28 7.52 7.05C1600.32 1739.05 1602.58 1738.98 1616.85 1737.5z" class="color2d313d svgShape"/><path fill="#e9b074" d="M1642.86,1284.41l-3.54-14.27l-30.86,0.18l-2.2,18.18C1606.26,1288.5,1621.83,1311.12,1642.86,1284.41z" class="colore9ae74 svgShape"/><path fill="#fbcc9b" d="M1589.53,1228.39c0,0,0.23,15.73,0.82,24.12c0.58,8.4,1.66,27.63,18.65,29.27     c16.98,1.63,26-7.29,31.93-11.29c0,0,18.95-18.96,15.76-24.36c-3.19-5.4-7.15-22-23.94-20.84     C1615.96,1226.45,1589.53,1228.39,1589.53,1228.39z" class="colorfbcd9b svgShape"/><path fill="#1e1f52" d="M1610.55,1202.04c3.76-1.78,7.49-3.62,10.98-5.46c5.9-3.1,12.81-3.9,19.15-1.83     c13.12,4.28,17.78,16.1,17.78,16.1l5.99,5.21c5.99,5.21,3.83,22.13-2.62,31.3c-12.06,17.14-21.68,23.81-21.68,23.81     c-0.71,0.05-0.73-0.5-0.33-1.38c0.77-3.93-0.12-6.59-0.12-6.59c12.45-3.85,13.01-15.5,7.81-17.09c-5.21-1.58-9.05,8.37-9.05,8.37     l-0.91-3.39c-1.67-9.03,2.69-19.29,2.69-19.29s-0.3,0.17-0.84,0.45c-0.02,0.04-0.04,0.08-0.06,0.12c0,0-4.22,5.38-11.38,5.62     c0,0,1.06-0.99,2.4-2.34c-5.54,1.46-12.95,2.38-20.99,0.51c0,0,5.48-0.83,9.58-2.65c-5.33-0.11-11.44-0.61-18.08-1.79     c-22.78-4.05-26.64-18.98-26.64-18.98C1586.27,1211.03,1596.52,1208.67,1610.55,1202.04z" class="color221e52 svgShape"/><path fill="#f5f5f5" d="M1648.93,1281.97c0,0,5.44,16.63,2.56,18.55c-2.88,1.92-16.31,8.96-16.31,8.96s7.04,9.27,7.04,14.07    c0,4.8-51.48,67.2-51.48,67.2s-14.4-67.52-11.2-70.72c3.2-3.2,8.61-8.96,8.61-8.96s-4.5-13.43,0-16.63    c4.5-3.2,17.61-6.4,17.61-6.4l6.08,5.12l30.7-16.31L1648.93,1281.97z" class="colorf5f5f5 svgShape"/><path fill="#4447e0" d="M1575.37,1445.09c0-3.84-1.92-69.08-1.92-69.08s-7.04-47.33,0.64-63.97c3.07-6.66,7.78-11.34,12.33-14.6    c-1.14,5.08,1.72,13.64,1.72,13.64s-5.42,5.76-8.61,8.96c-3.2,3.2,11.21,70.72,11.21,70.72l7.35,76.84l-4.48,22.66    c0,0-14.71,3.31-25.91-11.33C1567.69,1478.92,1575.37,1448.92,1575.37,1445.09z" class="color4484e0 svgShape"/><path fill="#282bce" d="M1589.68,1470.03c0,0-3.76-77.24-6.8-90.67c-1.53-6.76-0.35-15.21,1.2-21.94    c3.16,16.99,6.65,33.33,6.65,33.33l7.35,76.84l-4.48,22.66c0,0-8.19,1.83-16.99-3.31    C1580.54,1483.62,1585.98,1478,1589.68,1470.03z" class="color286bce svgShape"/><path fill="#9bdfa7" d="M1605.75,1288.05l6.08,5.12l30.7-16.31l1.07,0.86l0,0l-21.78,24.73l-9.35-6.8l-10.79,5.28l-5.72-9.99    C1600.81,1289.26,1605.75,1288.05,1605.75,1288.05z" class="color9bd4df svgShape"/><path fill="#de903d" d="M1605.18,1306.68l-2.25-6.37l9.54-4.67l8.2,5.96l-7.72,8.43l-5.04,38.08l-14.77,39.71    c-1.52,1.85-2.41,2.93-2.41,2.93s-0.4-1.89-1.05-5.01L1605.18,1306.68z" class="colorde3d73 svgShape"/><path fill="#686aea" d="M1593.14 1387.82L1593.14 1387.82c19.37-54.7 56.34-104.09 56.34-104.09l0 0c1.3 4.31 4.32 15.26 2.01 16.79-2.88 1.92-16.31 8.95-16.31 8.95s7.04 9.28 7.04 14.07C1642.21 1327.72 1603.28 1375.46 1593.14 1387.82zM1579.53 1320.03c3.2-3.2 8.61-8.96 8.61-8.96s-4.5-13.43 0-16.63c1.74-1.23 4.76-2.47 7.81-3.52l0 0c-.21 15.67-7.17 90.44-7.17 90.45C1584.97 1362.73 1577.08 1322.49 1579.53 1320.03z" class="color68a9ea svgShape"/><path fill="#4447e0" d="M1590.73,1390.75L1590.73,1390.75c0,0,51.48-62.4,51.48-67.2c0-4.8-7.04-14.07-7.04-14.07    s13.43-7.04,16.31-8.95c2.88-1.92-2.56-18.55-2.56-18.55s22.65,9.13,37.41,23.01l-6.08,81.25l-6,36.51l8,61.28    c0,0-51.55,10.95-80.34,4.24c0,0-16.31-84.91-13.43-91.63C1588.84,1395.8,1589.61,1393.74,1590.73,1390.75z" class="color4484e0 svgShape"/><path fill="#282bce" d="M1640.03,1489.58l13.06-28.5c0,0,17.91-46.69,17.91-54.37s-11.45-66.69-11.45-66.69l21,40.35l-0.29,5.87    l-6,36.51l10.18,64.56C1684.43,1487.31,1665.36,1487.71,1640.03,1489.58z" class="color286bce svgShape"/><g fill="#000000" class="color000 svgShape"><path fill="#3c3c3f" d="M1603.64,1381.44c0,0,6.86-27.26,3.92-28.31c-2.94-1.05-10.07,31.84-10.07,31.84L1603.64,1381.44z" class="color3f3e3c svgShape"/><path fill="#4447e0" d="M1563.69,1308.53c2.31-3.6,12.42-7.37,20.89-9.51l-18.43,86.32c-1.63,7.62-11.26,10.12-16.39,4.25      c-2.06-2.36-4.11-4.74-6.09-7.16c-1.5-1.84-1.96-4.34-1.28-6.61C1561.53,1311.76,1561.98,1311.21,1563.69,1308.53z" class="color4484e0 svgShape"/><path fill="#f7d2aa" d="M1603.94,1373.36c4.98-4.3,13.35-0.22,30.72,0.61c1.74,0.08,3.66,0.22,5.72,0.41      c0.06,5.05,0.27,10.15-0.1,15.15c-4.44-2.16-8.31-3.11-10.95-1.81c-10.09,4.97-18.62,4.87-18.62,4.87s-0.69,5.62-4.1,6.51      c-3.41,0.88-8.16-3.78-10.33-4.71C1594.11,1393.47,1598.95,1377.66,1603.94,1373.36z" class="colorf7beaa svgShape"/><polygon fill="#f8e8d8" points="1637.19 1372 1626.19 1371.42 1626.19 1391.49 1637.19 1394.33" class="colorf8e8d8 svgShape"/><polygon fill="#f8e8d8" points="1588.79 1321.39 1529.54 1330.42 1549.83 1437.22 1608.82 1429.63" class="colorf8e8d8 svgShape"/><path fill="#f7d2aa" d="M1534.63,1354c8.54-0.25,15.52,21.78,10.61,22c-5.15,0.23,3.72,9.01-1.13,9.7      c-6.22,0.89,3.93,6.93,1.13,8.72c-4.66,2.99-14.48-11.04-10.61-15.11c3.88-4.07-4.11-7.31-0.9-11.31      C1536.95,1363.99,1528.85,1354.18,1534.63,1354z" class="colorf7beaa svgShape"/><path fill="#4447e0" d="M1685.9,1304.57c6.82,5.76,27.51,85.87,25.92,93.36c-1.59,7.49-9.95,19.97-20.69,19.7      c-10.74-0.27-58.71-19.1-58.71-19.1l0.3-29.48l42.01,9.32l-7.9-39.03L1685.9,1304.57z" class="color4484e0 svgShape"/></g></g><g fill="#000000" class="color000 svgShape"><path fill="#6668c8" d="M616.95,1524.14c0,0-41.74-44.53-57.05-125.23c-15.31-80.7-150.28-119.66-205.93-68.18     c-55.66,51.48-100.18,221.24-40.35,346.47c59.83,125.23,290,84.91,345.66,33.42c55.66-51.48,21.92-153.57-0.58-165.61     C637.82,1533.84,616.95,1524.14,616.95,1524.14z" class="color668dc8 svgShape"/><path fill="#4244b2" d="M533.46,1408.65c-16-57.05-59.83-120.36-130.8-75.83c-70.96,44.53-49.4,141.93-27.13,212.2     c22.26,70.27,187.15,122.45,241.42,47.31c14.38-19.91,22.56-38.51,26.81-55.08c-14.85-7.54-26.81-13.1-26.81-13.1     S549.46,1465.7,533.46,1408.65z" class="color426ab2 svgShape"/><path fill="#303295" d="M633.73,1548.11c-50.84,70.39-205.31,21.51-226.17-44.32c-17.21-54.31-33.92-125.9-1.93-172.72     c-0.99,0.59-1.97,1.12-2.98,1.75c-70.96,44.53-49.4,141.93-27.13,212.2c22.26,70.27,187.15,122.45,241.42,47.31     c14.38-19.91,22.56-38.51,26.81-55.08c-0.72-0.37-1.4-0.7-2.11-1.06C639.25,1540.09,636.65,1544.07,633.73,1548.11z" class="color305f95 svgShape"/><path fill="#e5a35d" d="M599.22,1471.8c6.68,12.72,23.13,11.18,23.13,11.18l0,0l-8.06,18.83c-20.62,5.8-39.61-13.64-39.61-13.64     c-15.33-14.97-19.47-94.34-19.47-94.34C579.57,1400.51,592.54,1459.08,599.22,1471.8z" class="colore55daa svgShape"/><path fill="#e2a86a" d="M577.14,1752.73c0,0-1.52,5.53-1.42,11.47l-7.76-1.82l0.47-9.77L577.14,1752.73z" class="colore2a36a svgShape"/><path fill="#e2a86a" d="M592.47,1768.18c-0.13,1.57-25.08,0.31-25.08,0.31l0.58-6.12l7.87,0.11      C575.84,1762.49,592.6,1766.61,592.47,1768.18z" class="colore2a36a svgShape"/><path fill="#2d2d3d" d="M567.32,1768.45l0.39-3.41c0,0,1.44,1.92,9.07,2.03c6.72,0.09,7.51-2.3,7.51-2.3      c6.27,1.9,9.78,2.25,8.87,3.54C591.99,1769.96,567.32,1768.45,567.32,1768.45z" class="color2d313d svgShape"/><path fill="#d39553" d="M568.44,1752.61l-0.37,8.18c0,0,3.65-2.2,7.73,0.11c0,0,0.64-6.04,1.34-8.16L568.44,1752.61z" class="colord38753 svgShape"/><path fill="#e2a86a" d="M613.54,1753.24c0,0-1.52,5.53-1.42,11.47l-7.76-1.82l0.47-9.77L613.54,1753.24z" class="colore2a36a svgShape"/><path fill="#e2a86a" d="M628.87,1768.69c-0.13,1.57-25.08,0.31-25.08,0.31l0.58-6.12l7.87,0.11      C612.24,1763,628.99,1767.12,628.87,1768.69z" class="colore2a36a svgShape"/><path fill="#2d2d3d" d="M603.72,1768.96l0.39-3.41c0,0,1.44,1.92,9.07,2.03c6.72,0.09,7.51-2.3,7.51-2.3      c6.27,1.9,9.78,2.25,8.87,3.54C628.39,1770.47,603.72,1768.96,603.72,1768.96z" class="color2d313d svgShape"/><path fill="#d39553" d="M604.84,1753.12l-0.37,8.18c0,0,3.65-2.2,7.73,0.11c0,0,0.64-6.04,1.34-8.16L604.84,1753.12z" class="colord38753 svgShape"/><path fill="#474891" d="M567.17,1538.21c0,0-48.89,13.86-42.35,58.81l125.87,1.76c0,0,3.94-19.29-3.95-28.12     C638.92,1561.92,567.17,1538.21,567.17,1538.21z" class="color476291 svgShape"/><path fill="#474891" d="M650.37,1598.77c0,0-17.29,49.3-35.85,158.84l-12.66-0.18c0,0-7.83-82.04-5.6-104.13     c2.23-22.08,18.92-56.77,18.92-56.77S639.26,1591.42,650.37,1598.77z" class="color476291 svgShape"/><path fill="#3e3f87" d="M567.17,1597.61l47.53,0.38c0,0-17.24,34.74-18.43,55.32c-1.19,20.58,5.6,104.13,5.6,104.13l5.27,0.07     c0,0-2.94-88.57-1.29-102.81c1.65-14.25,20.88-60.9,19.95-64.05c-0.92-3.16-60.17-20.68-60.17-20.68L567.17,1597.61z" class="color3e5c87 svgShape"/><polygon fill="#3e3f87" points="567.17 1538.21 467.74 1536.81 538.3 1573.66" class="color3e5c87 svgShape"/><path fill="#5758aa" d="M467.74,1536.81c0,0-10.1,16.37-7.35,42.55c1,9.53,8.89,16.88,18.47,17.01l132.26,1.85     c0,0,3.26-19.65-4.98-28.13C594.63,1558.27,509.24,1547.26,467.74,1536.81z" class="color5775aa svgShape"/><path fill="#5758aa" d="M611.11,1598.22c0,0-16.07,35.41-32.13,158.9l-12.71-0.18c0,0-9.28-82.06-7.48-104.15     c1.8-22.09,16.23-55.07,16.23-55.07S599.85,1590.86,611.11,1598.22z" class="color5775aa svgShape"/><path fill="#474891" d="M475.09,1596.32l99.94,1.4c0,0-14.98,36.23-16.23,55.07c-1.58,23.84,7.48,104.15,7.48,104.15l4.72,0.07     c0,0-5.62-82.44-3.21-103.08c2.41-20.64,20.73-60.41,17.77-64.69c-2.96-4.27-80.68-9.58-125.32-25.32c0,0-0.86,9.38,0.49,19.65     C461.67,1590.78,467.81,1596.22,475.09,1596.32z" class="color476291 svgShape"/><path fill="#ffbd77" d="M546.14,1478.55c-0.3,21.65,6.57,35.15,22.72,59.75c-32.54,10.6-66.7,9.14-102.09-1.43     c7.88-20.89,19.67-37.89,32.78-52.69c0.09-0.1,0.21-0.24,0.29-0.32c0.16-0.18,0.29-0.32,0.39-0.44c0.11-0.12,0.28-0.31,0.28-0.31     c6.91-12.11-13.79-26.38-21.7-50.19c-8.06-24.27-4.21-36.82-4.21-36.82c30.64-13.22,48.53-16.12,82.97-1.46l1.01,21.01     c0,0,9.16,16.52,8.01,23.86C565.44,1446.86,546.3,1467,546.14,1478.55z" class="colorff77c4 svgShape"/><path fill="#fec78c" d="M498.65,1385.14c-0.55,8.01,11.91,13.84,18.59,14.3c6.67,0.46,18.73-3.69,19.28-11.7       c0.55-8.01-8.02-7.17-18.48-7.89C507.58,1379.13,499.2,1377.13,498.65,1385.14z" class="colorfeb48c svgShape"/><path fill="#fec78c" d="M517.45,1397.64L517.45,1397.64c7.3,0.5,13.69-5.07,14.19-12.37l1.59-23.24         c0.5-7.3-5.07-13.69-12.37-14.19l0,0c-7.3-0.5-13.69,5.07-14.19,12.37l-1.59,23.24         C504.58,1390.75,510.15,1397.14,517.45,1397.64z" class="colorfeb48c svgShape"/><path fill="#ba8349" d="M532.13,1378.1c0.47-6.83,1.1-16.07,1.1-16.07c0.5-7.3-5.07-13.69-12.37-14.19         c-7.3-0.5-13.69,5.07-14.19,12.37c0,0-0.3,4.43-0.72,10.57c0,0,4.87,6.69,11.51,8.44         C525.24,1381.27,532.13,1378.1,532.13,1378.1z" class="colorba6549 svgShape"/><path fill="#edab65" d="M568.86,1538.3c-2.92-10.31-23.19-26.31-22.72-59.75c0.19-13.41,19.27-28.96,20.45-39.21     c-7.2,2.96-36.91,11.79-83.88,2.66c8.73,23.99,19.87,30.56,17.8,41.13c0,0-0.16,0.18-0.28,0.31c-0.1,0.11-0.23,0.26-0.39,0.44     c-0.08,0.08-0.2,0.22-0.29,0.32c-13.12,14.79-24.9,31.8-32.78,52.69c17.32,5.18,34.35,8.13,51.04,8.59     C534.33,1545.66,553.07,1543.44,568.86,1538.3z" class="colored65b2 svgShape"/><path fill="#5254db" d="M531.79,1491.8c0-2.96,1.59-10.09,3.29-17.64c2.41-10.76,5.15-22.95,4.72-28.97     c-0.73-10.22-10.59-39.35-11.01-40.59l-1.36,0.46c0.1,0.3,10.22,30.19,10.94,40.22c0.42,5.81-2.3,17.89-4.69,28.56     c-1.79,7.96-3.33,14.83-3.32,17.95c0.02,18.18,3.78,35,11.67,52.45c0.5-0.06,1.01-0.08,1.51-0.15     C535.6,1526.68,531.82,1509.92,531.79,1491.8z" class="colordb52a3 svgShape"/><path fill="#f2f2f2" d="M586.44,1408.89l-68.93,125.65c0,0,55.7,11.8,82.68,7.91l62.3-121.94L586.44,1408.89z" class="colorf2f2f2 svgShape"/><path fill="#e0e0ee" d="M586.44 1408.89l12.05 1.84c-12.58 21.33-33.3 57.86-34.4 68.91-.96 9.66-11.88 36.74-21.99 59.32-14.09-2.2-24.59-4.42-24.59-4.42L586.44 1408.89zM577.39 1525.73c5.01-9.78 26.56-49.4 26.56-49.4s-6.5 19.24-14.46 46.04c-3.53 11.89-4.83 17.86-5.19 20.83-7.51-.14-15.7-.81-23.7-1.72C564.67 1535.58 573.26 1533.79 577.39 1525.73z" class="colore0e0ee svgShape"/><path fill="#f4be84" d="M558.12,1520.14c5.66,3.71,13.17,7.07,12.97,10.09c-0.44,6.57-10.17,7.64-14.22,4.82        c-3.86-3.07-5.82-10.87-5.82-10.87S552.52,1516.46,558.12,1520.14z" class="colorf4be84 svgShape"/><path fill="#f4be84" d="M580.47 1542.46c.92-.33-1.33-7.43-2.3-8.72-.78-1.03-1.51-2.39-10.32-7.6l1.87 6.51c0 0 5.72 2.35 6.43 2.97C576.85 1536.24 577.38 1541.57 580.47 1542.46zM570.58 1551.77c1.36.26 1.45-6.82 1.14-8.47-.39-2.08.07-2.86-3.26-13.43l-2.59 6.07c0 0 2.94 7.12 3.08 8.12C569.1 1545.05 568.81 1550.13 570.58 1551.77zM565.81 1551.39c1.31.25 1.39-6.55 1.1-8.13-.37-2 .07-2.75-3.13-12.89l-2.49 5.82c0 0 2.82 6.84 2.96 7.79C564.39 1544.95 564.11 1549.82 565.81 1551.39zM560.64 1547.04c1.11.21 1.18-5.54.93-6.88-.32-1.69.06-2.32-2.65-10.91l-2.11 4.93c0 0 2.39 5.79 2.5 6.6C559.43 1541.58 559.2 1545.71 560.64 1547.04zM551.86 1524.87l-9.73-1.93 2.42-10.01c0 0 5.62 2.34 13.57 7.2L551.86 1524.87z" class="colorf4be84 svgShape"/><path fill="#ffbd77" d="M475.2,1396.34c-19.12,0.65-41.26,107.83-28.89,121.67c16.01,20.18,69.14,7.69,98.54,8.09      c0,0,5.2-5.34,6.05-11.09c-20.86-12.09-75.4-13.1-80.13-15.4C466.05,1497.31,494.26,1395.69,475.2,1396.34z" class="colorff77c4 svgShape"/><path fill="#e5a35d" d="M448.89,1513.33c-9.71-10.87,1.85-79.06,16.52-108.28c-15.84,25.75-29.38,101.47-19.1,112.96      c16.01,20.18,69.14,7.69,98.54,8.09c0,0,1.76-1.93,3.41-4.6C518.66,1521.35,464.74,1533.31,448.89,1513.33z" class="colore55daa svgShape"/><polygon fill="#5254db" points="493.38 1388.94 515.77 1411.83 522.47 1402.36 528.67 1407.83 532.94 1401.61 540.29 1409.48 540.95 1388.57 527.57 1389.89" class="colordb52a3 svgShape"/><polygon fill="#edab65" points="493.38 1388.94 503.77 1373.41 527.57 1389.89 516.59 1406.31" class="colored65b2 svgShape"/><polygon fill="#edab65" points="532.79 1377.52 527.57 1389.89 539.24 1404.37 540.95 1388.57" class="colored65b2 svgShape"/><g fill="#000000" class="color000 svgShape"><path d="M525.48,1281.39c-17.46-0.82-29.31,11.73-32,17.73c0,0-7.51,13.26-7.34,21.95c0.17,8.69-1.83,9.84-1.83,9.84      s-8.39,4.97-5.95,14.68c0,0-0.26-6.32,1.8-8.68c0,0-2.78,8.75,0.69,13.9c0,0-1.23-5.19,0.79-9.72c0,0,0.07,3.77,0.71,7.38      c0.63,3.61-0.49,17.83,8.91,24.02c0,0-2.6-3.43-3.38-7.61c0,0,2.02,2.71,3.62,5.15c1.59,2.43-0.33,11.89,2.48,18.79      c0,0-1.42-7.65-0.85-14.76c0,0,4,10.35,8.55,13.02c0,0-6.37-9.29-6.7-11.46c0,0,4.25,1.37,7.06,1.31c0,0-6.35-1.03-7.83-4.63      c-1.43-3.48-1.68-13.91-0.95-16.03c0.43,1.33,1.71,2.93,2.82,3.18c0.04,1.24,0.07,4.46-0.44,6.88c0,0,1.11-0.6,1.78-2.5      c0,0,0.62,3.03-0.02,6.09c0,0,1.49-2.64,1.32-4.23c0,0,2.53,1.73,5.4,4.64l39.11-74.15      C543.24,1296.15,542.94,1282.21,525.48,1281.39z" fill="#000000" class="color000 svgShape"/><path d="M540.05,1370.83c0,0,12.2-17.32,11.34-27.82c0,0,1.12,10.18-0.77,14.55c0,0,3.47-4.13,2.98-9.13      c0,0,6.57,13.14-3.81,26.75c0,0,3.64-1.83,4.78-4.02c0,0-1.87,5.32-3.41,7.11c0,0,4.53-3.61,5.61-8.78c0,0-0.3,4.88-1.95,8.03      c0,0,8.57-12.08,1.55-28.33c0,0,1.74-4.91,1.69-7.75c0,0,0.6,3.64-0.65,7.05c0,0,4.76-5.37,2.33-15.48c0,0,1.39-2.87,1.35-5.04      c0,0,0.32,2.84,0.17,8.53c0,0,0.74-2.72,0.81-5.7c0,0,0.42,1.08,0.11,5.55c0,0,1.44-4.63,0-8.94c0,0,1.42-5.85-1.56-10.26      c-2.98-4.41-11.21-15.22-11.21-15.22s6.53,4.61,7.38,7.71c0,0-1.39-4.04-2.73-5.36c0,0,1.46,0.65,2.54,2.25      c0,0,0.21-2.44-7.36-6.49c0,0-1.53-4.3-6.02-5.43c0,0-2.03-9.44-18.34-10.2c-16.31-0.76-27.39,10.96-29.91,16.57      c0,0-8.78,8.03-8.62,16.15c0.16,8.12-1.2,12.62-1.2,12.62s-6.59,5.59-4.31,14.67c0,0-0.25-5.91,1.68-8.11      c0,0-2.6,8.18,0.65,12.99c0,0-1.15-4.85,0.74-9.09c0,0,0.07,3.52,0.66,6.89c0.59,3.37-0.46,16.66,8.33,22.45      c0,0-2.43-3.2-3.16-7.11c0,0,1.89,2.54,3.38,4.81c1.49,2.27-0.31,11.11,2.32,17.56c0,0-1.32-7.15-0.8-13.8      c0,0,3.74,9.68,7.99,12.17c0,0-5.95-8.68-6.26-10.71c0,0,3.97,1.28,6.6,1.22c0,0-5.93-0.97-7.31-4.33      c-1.38-3.36-1.58-13.65-0.82-15.15c0,0,1.48,1.87,2.55,2.66c0,0,0.21,4.06-0.39,6.91c0,0,1.04-0.56,1.66-2.33      c0,0,0.58,2.83-0.02,5.69c0,0,1.4-2.46,1.24-3.95c0,0-0.52,3.23,2.42,5.74C505.22,1371.42,516.38,1350.31,540.05,1370.83z" fill="#000000" class="color000 svgShape"/><path fill="#f4f7f5" d="M558.73,1308.84c0.12,0.31,0.18,0.5,0.18,0.5C558.87,1309.18,558.81,1309.01,558.73,1308.84z" class="colorf6f7f4 svgShape"/><path d="M564.43,1326.44c0,0,0.07-5.46-2.98-9.83c-3.06-4.37-10.12-15.43-10.12-15.43s6.03,4.11,7.4,7.15       c-0.43-1.11-1.54-3.8-2.62-4.83c0,0,1.5,0.64,2.61,2.23c0,0,0.22-2.42-7.56-6.43c0,0-3.33-3.58-7.95-4.7c0,0,0.01,0.03,0,0       l-35.12,72.7c2.84,2.56,6.05,5.17,6.05,5.17l-0.45-1.05c2.82,3.31,13.86,5.04,19.44,3.76c0,0,0,0,0,0       c0.18-0.04,0.36-0.09,0.53-0.14c0,0,0,0,0,0c0.17-0.05,0.33-0.1,0.49-0.15c1.84-0.64,3.92-2.04,5.86-3.77       c0.25-0.22,0.49-0.45,0.73-0.68c0.16-0.16,0.33-0.32,0.49-0.48c0,0,0.01-0.01,0.01-0.01c0.62-0.62,1.21-1.27,1.77-1.93       c0.04-0.04,0.07-0.08,0.11-0.13c1.76-2.12,3.11-4.37,3.6-6.26c3.38-5.88,7.13-13.87,6.63-19.72c0,0,1.14,10.09-0.8,14.43       c0,0,3.57-4.1,3.06-9.06c0,0,6.74,13.03-3.94,26.53c0,0,3.75-1.82,4.92-3.99c0,0-1.92,5.28-3.51,7.05c0,0,4.66-3.58,5.77-8.71       c0,0-0.31,4.84-2.01,7.96c0,0,8.82-11.99,1.61-28.1c0,0,1.8-4.87,1.74-7.69c0,0,0.61,3.61-0.67,7c0,0,4.89-5.33,2.4-15.36       c0,0,1.43-2.85,1.39-5c0,0,0.33,2.81,0.17,8.46c0,0,0.76-2.7,0.83-5.66c0,0,0.43,1.07,0.11,5.5       C564.42,1335.3,565.91,1330.71,564.43,1326.44z" fill="#000000" class="color000 svgShape"/><path fill="#fec78c" d="M538.98,1309.61c0,0,4.47,6.16,7.65,8.23c0,0,1.46,10.41,2.44,18.05c0.99,7.65-1.24,19.09-2.57,23.64      c-1.35,4.58-8.27,11.73-12.66,14.82c-6.33,4.44-16.97,1.27-21.01-1.61l-2.56-1.62c0,0-8.36-5.48-10.38-15.73l-0.94-8.71      c0,0-1.69-1.1-1.88-3.37c-0.18-2.27,0.56-6.97,0.56-6.97s22.11-22.86,29.14-26.41c7.03-3.55,11.26-0.79,11.26-0.79l3.58-1.92      C541.61,1307.22,539.79,1308.46,538.98,1309.61z" class="colorfeb48c svgShape"/><path fill="#6d4112" d="M487.55 1330.45c0 0 10.55 1.95 18.19-5.26 7.64-7.21 11.31-10.56 11.31-10.56s-3.41 1.43-5.09 3.24c0 0 6.11-8.12 12.04-10.31 5.93-2.19 15.62-2.38 15.62-2.38s-6.3-1.11-9.23-.5c0 0 9.32-2.23 13.19.42 0 0-6.68-6.7-18.01-2.65-11.33 4.05-19.3 15.26-26.08 17.58 0 0 5.85-.93 8-2.89 0 0-8.72 8.14-13.76 8.28 0 0 7.66.3 14.48-6.8C508.21 1318.63 501.75 1330.53 487.55 1330.45zM494.89 1314.93c0 0 18-17.56 36.41-17.37 0 0-4.98-.99-9.74-.36 0 0 4.73-1.73 8.09-1.52 0 0-7.68-2.44-15.86 3.18 0 0 8.4-7.67 17.42-5.8 0 0-12.32-7.54-31.03 6.48 0 0 13.22-6.99 17.51-5.53 0 0-9.52 2.64-13.05 6.67 0 0 4.81-2.69 6.58-2.72 0 0-11.07 6.77-16.39 13.7 0 0 9.14-7.55 11.18-7.73C506.01 1303.93 496.07 1312.31 494.89 1314.93z" class="color6d3c12 svgShape"/><path fill="#d6ae83" d="M496,1345.5c0,0-3.61-1.43-2.96,0.6c0.65,2.04,4.36,2.98,3.05,4.08c-1.31,1.11-1.91,1.77-0.47,2.19      c1.44,0.41,0-0.61-0.85,0.6c-0.85,1.21,1.78,5.05,3.3,4.3c1.52-0.75,1.16-3.46-0.1-4.94      C497.98,1352.32,497.97,1346.45,496,1345.5z" class="colord6a183 svgShape"/><path fill="#6d4112" d="M544.47,1310.29c0,0,3.92,2.88,5.94,7.6c0,0-0.31-2.57-0.85-3.84c0,0,3.11,1.07,4.54,10.86      c0,0,0.91-2.21,0.32-6.06c0,0,4.1,3.04,5.09,10.19c0,0-0.58-9.64-5.43-14.69c-4.86-5.05-7.15-10.41-7.15-10.41      s0.73,4.62,1.93,6.39c0,0-2.5-2.65-2.51-3.55l0.7,2.69l-1.46-2.16c0,0,0.83,2.81,1.62,3.96      C547.19,1311.27,546.44,1310.81,544.47,1310.29z" class="color6d3c12 svgShape"/></g><path fill="#fdcb96" d="M629.07,1466.75c-1.02-0.93-2.65-0.31-2.78,1.06c-0.1,1.11,0.05,2.5,0.83,3.99     c1.93,3.69,2.11,7.92,1.23,7.92c-0.88,0-3.34-7.92-6.33-7.3c-2.99,0.62,3.17,9.94,2.29,11.17c-0.88,1.23-4.22-6.51-5.8-5.1     c-1.58,1.41,3.69,9.5,3.17,10.55c-0.53,1.06-4.05-3.34-4.4-1.76c-0.35,1.58,0.51,4.75,5.79,8.09c0,0,7.93,5.63,11.79,1.41     C638.53,1492.78,640.14,1476.93,629.07,1466.75z" class="colorfdc596 svgShape"/></g><g fill="#000000" class="color000 svgShape"><path fill="#4a4b9b" d="M711.68,815.44H573.02c-13.32,0-24.12-10.8-24.12-24.12V614.39c0-13.32,10.8-24.12,24.12-24.12h142.2      c3.71,0,6.72,3.01,6.72,6.72v208.19C721.95,810.85,717.35,815.44,711.68,815.44z" class="color4a619b svgShape"/><path fill="#6263b5" d="M572.92,629.02v186.42h138.92c5.58,0,10.11-4.66,10.11-10.42V629.02H572.92z" class="color627cb5 svgShape"/><path fill="#7c7dc9" d="M688.9,796.8H573.66V629.02h129.86v153.16C703.52,790.26,696.97,796.8,688.9,796.8z" class="color7c90c9 svgShape"/><path fill="#d6e8d9" d="M721.89,629.02H574.08c-9.22,0-16.69-7.28-16.69-16.27l0,0c0-8.98,7.47-16.27,16.69-16.27h147.81      c0.01,0,0.02,0.01,0.02,0.02V629C721.91,629.01,721.9,629.02,721.89,629.02z" class="colord6e0e8 svgShape"/><path fill="#ffffff" d="M574.08,596.49c-9.22,0-16.69,7.28-16.69,16.27l0,0c0,0.93,0.1,1.83,0.25,2.71      c2.8,5.03,8.27,8.44,14.55,8.44h145.12c0.05,0,0.1-0.04,0.1-0.1v-27.32H574.08z" class="colorfff svgShape"/><path fill="#d6e8d9" d="M630.96,609.14h-59.53c-0.56,0-1.02-0.46-1.02-1.02v-2.08c0-0.56,0.46-1.02,1.02-1.02h59.53     c0.56,0,1.02,0.46,1.02,1.02v2.08C631.99,608.69,631.53,609.14,630.96,609.14z" class="colord6e0e8 svgShape"/><path fill="#3739b2" d="M592,606.05c0,0-1.83,1.72-2.05,5.69c-0.23,3.97-2.74,8.62-2.74,8.62l-5.93-4.48l-6.39,4.48     c0,0,2.05-5.52,2.05-8.45c0-2.93,3.2-5.86,3.2-5.86H592z" class="color3745b2 svgShape"/><path fill="#a0a1e0" d="M654.01 665.92h-29.15c-.36 0-.65-.29-.65-.65v-1.32c0-.36.29-.65.65-.65h29.15c.36 0 .65.29.65.65v1.32C654.66 665.63 654.37 665.92 654.01 665.92zM678.79 716.07h-78.72c-3.12 0-5.66-2.53-5.66-5.66v-17.97c0-3.12 2.53-5.66 5.66-5.66h78.72c3.12 0 5.66 2.53 5.66 5.66v17.97C684.45 713.53 681.92 716.07 678.79 716.07z" class="colora0b4e0 svgShape"/></g></svg>