<svg xmlns="http://www.w3.org/2000/svg" enable-background="new 0 0 2000 2000" viewBox="33.581 426.94 1915.843 1441.451"><ellipse cx="1000" cy="1762.22" fill="#1f1f23" opacity=".15" rx="857.84" ry="40.65" class="color231f20 svgShape"/><ellipse cx="1145.23" cy="553.21" fill="#e8f9eb" rx="59.2" ry="60.75" class="colore8f7f9 svgShape"/><path fill="#e8f9eb" d="M1721.01,1482.67h-40.12c-20.62-111.21-124.53-195.82-249.7-195.82h-114.57      c50.29,0,91.07-38.02,91.07-84.91c0-46.89-40.77-84.91-91.07-84.91h-281.18c109.19,0,197.71-82.53,197.71-184.34      c0-101.81-88.52-184.34-197.71-184.34H823.21c-19.29-15.57-31.51-38.55-31.51-64.2v0c0-29.17,15.78-54.9,39.81-70.18h129.05      c35.99,0,65.16-27.2,65.16-60.75c0-33.55-29.17-60.75-65.16-60.75H615.9c-35.99,0-65.16,27.2-65.16,60.75      c0,18.42,8.82,34.89,22.71,46.03H436.18c-50.29,0-91.07,38.01-91.07,84.91v0c0,25.65,12.22,48.64,31.51,64.2h-41.24      c-109.19,0-197.71,82.53-197.71,184.34c0,101.81,88.52,184.34,197.71,184.34h499.55c-50.3,0-91.07,38.02-91.07,84.91      c0,46.89,40.77,84.91,91.07,84.91H391.16c-139.99,0-253.48,105.81-253.48,236.34v0c0,96.61,62.2,179.63,151.28,216.28      c154.2-10.8,415.12-17.9,711.05-17.9c349.68,0,650.44,9.92,784.04,24.14c46.4-21.6,78.29-66.28,78.29-117.93v-13.35      C1862.33,1541.66,1799.06,1482.67,1721.01,1482.67z" class="colore8f7f9 svgShape"/><path fill="#66e87c" d="M216.08,1696.34c2.69-1.96,8.14,0.39,25.85-6.99c25.84-10.76,35.93-66.37,35.93-66.37       c-39.32-4.92-36.83,51.73-52.05,61.42c-6.87,4.37-10.1,8.61-11.58,11.94H216.08z" class="color66e8c4 svgShape"/><path fill="#3fd258" d="M265.67,1639.54c-8.08,16.48-17.63,40.79-33.73,48.54c-4.49,2.16-7.78,4.61-10.23,7.02       c3.88-0.48,10.01-1.49,20.23-5.75c25.84-10.76,35.93-66.37,35.93-66.37S273.76,1623.06,265.67,1639.54z" class="color3fd2c5 svgShape"/><path fill="#3586e6" d="M199.5,1696.34h4.26c2.77-5.89,3.66-16.96-5.6-37.28c-17.14-37.61-25.79-86.39-13.84-100.74       c0,0-40.9,29.15-31.6,59.47C161.44,1646.25,205.38,1665.2,199.5,1696.34z" class="color35bfe6 svgShape"/><path fill="#167ffc" d="M201.23,1696.34h2.53c2.77-5.89,3.66-16.95-5.6-37.28c-17.14-37.61-25.79-86.39-13.84-100.74       c0,0-26.99,30.02-16.75,58.76C177.67,1645.46,208.83,1660.24,201.23,1696.34z" class="color0a88d2 svgShape"/><path fill="#4989d5" d="M159.11,1680.44c15.56,6.34,22.22,10.56,26.56,15.9h5.46c-4.08-12.35-6.52-25.56-16.11-35.54       c-10.89-11.34-52.84-30.01-54.28-32.17C119.32,1626.46,138.09,1671.88,159.11,1680.44z" class="color49d3d5 svgShape"/><path fill="#0f5cb8" d="M186.34,1692.85c0.32,0.99,0.8,2.19,1.36,3.49h3.44c-4.09-12.35-6.52-25.56-16.11-35.54       c-10.89-11.34-52.84-30.01-54.28-32.17c0,0,20.36,25.54,43.01,37.21C179.98,1674.19,184.27,1686.54,186.34,1692.85z" class="color0fa1b8 svgShape"/><path fill="#66e87c" d="M211.31,1678.51c-0.52,7.45-2.21,13.39-3.99,17.83h2.98c10.22-13.19,25.93-38.79,22.99-68.68       c-4.3-43.68-8.98-98.44-8.98-98.44s-57.5,43.6-29.21,91.95C209.2,1645.28,212.29,1664.51,211.31,1678.51z" class="color66e8c7 svgShape"/><path fill="#3fd258" d="M214.22,1597.92c5.83,36.2,5.91,76.73-3.39,93.88c1.69-1.2,3.51-2.46,5.36-3.74        c9.36-14.27,19.49-35.89,17.08-60.41c-4.3-43.68-8.98-98.44-8.98-98.44S206.64,1550.81,214.22,1597.92z" class="color3fd2c5 svgShape"/><path fill="#cacbf9" d="M245.11,1693.69h-65.45c-5.8,0-10.2,5.23-9.21,10.95l8.36,48.16c1.3,6.84,7.28,11.79,14.24,11.79h38.66      c6.96,0,12.94-4.95,14.24-11.79l8.36-48.16C255.31,1698.92,250.91,1693.69,245.11,1693.69z" class="colorcadbf9 svgShape"/><path fill="#a1a2eb" d="M254.44,1703.35c0.19-5.19-3.97-9.67-9.33-9.67h-65.45c-5.37,0-9.52,4.47-9.33,9.67H254.44z" class="colora1b7eb svgShape"/><path fill="#a1a2eb" d="M245.11,1693.69h-18.2c5.8,0,10.2,5.23,9.21,10.95l-8.36,48.16c-1.3,6.84-7.28,11.79-14.24,11.79h18.2      c6.96,0,12.94-4.95,14.24-11.79l8.36-48.16C255.31,1698.92,250.91,1693.69,245.11,1693.69z" class="colora1b7eb svgShape"/><path fill="#66e87c" d="M1782.57,1696.34c2.69-1.96,8.14,0.39,25.85-6.99c25.84-10.76,35.93-66.37,35.93-66.37       c-39.32-4.92-36.83,51.73-52.05,61.42c-6.87,4.37-10.1,8.61-11.58,11.94H1782.57z" class="color66e8c4 svgShape"/><path fill="#3fd258" d="M1832.16,1639.54c-8.08,16.48-17.63,40.79-33.73,48.54c-4.49,2.16-7.78,4.61-10.23,7.02       c3.88-0.48,10.01-1.49,20.23-5.75c25.84-10.76,35.93-66.37,35.93-66.37S1840.24,1623.06,1832.16,1639.54z" class="color3fd2c5 svgShape"/><path fill="#3586e6" d="M1765.98,1696.34h4.26c2.77-5.89,3.66-16.96-5.6-37.28c-17.14-37.61-25.79-86.39-13.84-100.74       c0,0-40.9,29.15-31.6,59.47C1727.93,1646.25,1771.87,1665.2,1765.98,1696.34z" class="color35bfe6 svgShape"/><path fill="#167ffc" d="M1767.72,1696.34h2.53c2.77-5.89,3.66-16.95-5.6-37.28c-17.14-37.61-25.79-86.39-13.84-100.74       c0,0-26.99,30.02-16.75,58.76C1744.16,1645.46,1775.32,1660.24,1767.72,1696.34z" class="color0a88d2 svgShape"/><path fill="#4989d5" d="M1725.6,1680.44c15.56,6.34,22.22,10.56,26.56,15.9h5.46c-4.08-12.35-6.52-25.56-16.11-35.54       c-10.89-11.34-52.84-30.01-54.28-32.17C1685.8,1626.46,1704.58,1671.88,1725.6,1680.44z" class="color49d3d5 svgShape"/><path fill="#0f5cb8" d="M1752.82,1692.85c0.32,0.99,0.8,2.19,1.36,3.49h3.44c-4.09-12.35-6.52-25.56-16.11-35.54       c-10.89-11.34-52.84-30.01-54.28-32.17c0,0,20.36,25.54,43.01,37.21C1746.46,1674.19,1750.75,1686.54,1752.82,1692.85z" class="color0fa1b8 svgShape"/><path fill="#66e87c" d="M1777.79,1678.51c-0.52,7.45-2.2,13.39-3.99,17.83h2.98c10.22-13.19,25.93-38.79,22.99-68.68       c-4.3-43.68-8.98-98.44-8.98-98.44s-57.5,43.6-29.21,91.95C1775.69,1645.28,1778.78,1664.51,1777.79,1678.51z" class="color66e8c7 svgShape"/><path fill="#3fd258" d="M1780.71,1597.92c5.83,36.2,5.91,76.73-3.39,93.88c1.69-1.2,3.51-2.46,5.36-3.74        c9.36-14.27,19.49-35.89,17.08-60.41c-4.3-43.68-8.98-98.44-8.98-98.44S1773.12,1550.81,1780.71,1597.92z" class="color3fd2c5 svgShape"/><path fill="#cacbf9" d="M1811.6,1693.69h-65.45c-5.8,0-10.2,5.23-9.21,10.95l8.36,48.16c1.3,6.84,7.28,11.79,14.24,11.79h38.66      c6.96,0,12.94-4.95,14.24-11.79l8.36-48.16C1821.8,1698.92,1817.4,1693.69,1811.6,1693.69z" class="colorcadbf9 svgShape"/><path fill="#a1a2eb" d="M1820.93,1703.35c0.19-5.19-3.97-9.67-9.33-9.67h-65.45c-5.37,0-9.52,4.47-9.33,9.67H1820.93z" class="colora1b7eb svgShape"/><path fill="#a1a2eb" d="M1811.6,1693.69h-18.2c5.8,0,10.2,5.23,9.21,10.95l-8.36,48.16c-1.3,6.84-7.28,11.79-14.24,11.79h18.2      c6.96,0,12.94-4.95,14.24-11.79l8.36-48.16C1821.8,1698.92,1817.4,1693.69,1811.6,1693.69z" class="colora1b7eb svgShape"/><g fill="#000000" class="color000 svgShape"><path fill="#ffb362" d="M870.3,796.82H465.28c-2.75,0-4.98-2.23-4.98-4.98v-18.52c0-2.75,2.23-4.98,4.98-4.98H870.3      c2.75,0,4.98,2.23,4.98,4.98v18.52C875.28,794.59,873.05,796.82,870.3,796.82z" class="colorffb262 svgShape"/><path fill="#e39849" d="M527.23 810.41h-15.32c-2.49 0-4.51-2.02-4.51-4.51v-9.09h24.33v9.09C531.74 808.39 529.72 810.41 527.23 810.41zM825.39 810.41h-15.32c-2.49 0-4.51-2.02-4.51-4.51v-9.09h24.33v9.09C829.9 808.39 827.88 810.41 825.39 810.41z" class="colore39c49 svgShape"/><path fill="#e7a056" d="M846.96,717.15v-9.44H626.93c-11.31,0-20.47,13.53-20.47,30.22v0.19c0,16.69,9.17,30.22,20.47,30.22       h220.03v-9.44C840.11,737.6,846.96,717.15,846.96,717.15z" class="colore75669 svgShape"/><path fill="#c98e4f" d="M675.07,707.71h15.9c-6.56,5.68-11.04,17.06-11.04,30.21v0.21c0,13.15,4.49,24.53,11.04,30.21h-15.9       c-11.31,0-20.47-13.53-20.47-30.22v-0.19C654.59,721.24,663.76,707.71,675.07,707.71z" opacity=".46" class="colorc94f64 svgShape"/><path fill="#bc7e3d" d="M846.96,707.71h-107.9c-9.04,0-16.37,10.82-16.37,24.16v12.3c0,13.35,7.33,24.16,16.37,24.16h107.9v-9.44       c-6.85-21.3,0-41.75,0-41.75V707.71z" class="colorbc3d5c svgShape"/><path fill="#edf0ed" d="M740.21,717.15c-6.23,0-11.27,7.45-11.27,16.64v8.47c0,9.19,5.05,16.64,11.27,16.64h106.74       c-5.99-20.88,0-41.75,0-41.75H740.21z" class="coloredf0ee svgShape"/><path fill="#dde0de" d="M846.96,717.15H740.21c-6.23,0-11.27,7.45-11.27,16.64v4.24l115.36,0       C844.42,726.05,846.96,717.15,846.96,717.15z" opacity=".83" class="colordde0dd svgShape"/><path fill="#fe9526" d="M611.74,668.5v-7.23h230.3c11.83,0,21.43,10.36,21.43,23.15v0.14c0,12.78-9.59,23.15-21.43,23.15h-230.3       v-7.23C618.9,684.16,611.74,668.5,611.74,668.5z" class="colorf89e1b svgShape"/><path fill="#cf7e28" d="M611.74,661.27h112.93c9.46,0,17.13,8.29,17.13,18.51v9.42c0,10.22-7.67,18.51-17.13,18.51H611.74v-7.23       c7.17-16.32,0-31.98,0-31.98V661.27z" class="colorcf7a28 svgShape"/><path fill="#edf0ed" d="M723.46,668.5c6.52,0,11.8,5.71,11.8,12.75v6.49c0,7.04-5.28,12.75-11.8,12.75H611.74       c6.27-15.99,0-31.98,0-31.98H723.46z" class="coloredf0ee svgShape"/><path fill="#dde0de" d="M611.74,668.5h111.73c6.52,0,11.8,5.71,11.8,12.75v3.24H614.52C614.39,675.32,611.74,668.5,611.74,668.5z       " opacity=".83" class="colordde0dd svgShape"/><path fill="#a0601d" d="M719.84,679.78c0,0-1.13,1.53-1.28,5.06c-0.14,3.52-1.7,7.66-1.7,7.66l-3.69-3.98l-3.97,3.98       c0,0,1.28-4.9,1.28-7.51c0-2.61,1.99-5.21,1.99-5.21H719.84z" class="colora01d3b svgShape"/><path fill="#53d86a" d="M622.63,628.44v-6.1h194.44c9.99,0,18.09,8.75,18.09,19.55V642c0,10.79-8.1,19.55-18.09,19.55H622.63       v-6.11C628.68,641.67,622.63,628.44,622.63,628.44z" class="color0ea954 svgShape"/><path fill="#00971a" d="M622.63,622.34h95.35c7.99,0,14.47,7,14.47,15.63v7.96c0,8.63-6.48,15.63-14.47,15.63h-95.35v-6.11       c6.05-13.78,0-27,0-27V622.34z" class="color009748 svgShape"/><path fill="#edf0ed" d="M716.97,628.44c5.5,0,9.96,4.82,9.96,10.76v5.48c0,5.94-4.46,10.76-9.96,10.76h-94.33       c5.29-13.5,0-27,0-27H716.97z" class="coloredf0ee svgShape"/><path fill="#dde0de" d="M622.63,628.44h94.33c5.5,0,9.96,4.82,9.96,10.76v2.74H624.98C624.88,634.2,622.63,628.44,622.63,628.44z       " opacity=".83" class="colordde0dd svgShape"/><path fill="#252795" d="M713.91,637.96c0,0-0.96,1.29-1.08,4.27c-0.12,2.98-1.44,6.47-1.44,6.47l-3.11-3.36l-3.35,3.36       c0,0,1.08-4.14,1.08-6.34c0-2.2,1.68-4.4,1.68-4.4H713.91z" class="color253d95 svgShape"/><g fill="#000000" class="color000 svgShape"><rect width="51.88" height="218.89" x="480.58" y="549.45" fill="#797bff" class="color7990ff svgShape"/><rect width="51.88" height="7.21" x="480.58" y="753.92" fill="#e4e4f9" class="colore7e4f9 svgShape"/><rect width="13.08" height="218.89" x="532.46" y="549.45" fill="#595bd4" transform="rotate(-180 539.003 658.896)" class="color4764c7 svgShape"/><path fill="#e1e3e1" d="M506.6,601.44L506.6,601.44c-8.12,0-14.71,6.59-14.71,14.71v63.97c0,8.12,6.59,14.71,14.71,14.71h0        c8.12,0,14.71-6.59,14.71-14.71v-63.97C521.31,608.03,514.73,601.44,506.6,601.44z" class="colore1e3e2 svgShape"/><path fill="#595bd4" d="M491.89 616.68v7.04h29.42v-7.04c0-3.52-1.17-6.76-3.1-9.34H495C493.06 609.92 491.89 613.16 491.89 616.68zM491.89 675.83v3.77c0 1.54.22 3.02.63 4.42h28.15c.41-1.4.63-2.88.63-4.42v-3.77H491.89z" class="color4764c7 svgShape"/><circle cx="506.6" cy="724.87" r="9.96" fill="#c5cfc7" class="colorc5cfcc svgShape"/><circle cx="506.6" cy="724.87" r="6.97" fill="#08080b" class="color0a0b08 svgShape"/><g fill="#000000" class="color000 svgShape"><rect width="51.88" height="218.89" x="543.33" y="549.45" fill="#feac55" class="colorfe6555 svgShape"/><rect width="51.88" height="7.21" x="543.33" y="753.92" fill="#e4e4f9" class="colore7e4f9 svgShape"/><rect width="13.08" height="218.89" x="595.21" y="549.45" fill="#ce904f" transform="rotate(-180 601.75 658.896)" class="colorce5d4f svgShape"/><path fill="#e1e3e1" d="M569.35,601.44L569.35,601.44c-8.12,0-14.71,6.59-14.71,14.71v63.97c0,8.12,6.59,14.71,14.71,14.71h0        c8.12,0,14.71-6.59,14.71-14.71v-63.97C584.06,608.03,577.47,601.44,569.35,601.44z" class="colore1e3e2 svgShape"/><path fill="#ce904f" d="M554.64 616.68v7.04h29.42v-7.04c0-3.52-1.17-6.76-3.1-9.34h-23.21C555.8 609.92 554.64 613.16 554.64 616.68zM554.64 675.83v3.77c0 1.54.22 3.02.63 4.42h28.15c.41-1.4.63-2.88.63-4.42v-3.77H554.64z" class="colorce5d4f svgShape"/><circle cx="569.35" cy="724.87" r="9.96" fill="#c5cfc7" class="colorc5cfcc svgShape"/><circle cx="569.35" cy="724.87" r="6.97" fill="#08080b" class="color0a0b08 svgShape"/></g></g><g fill="#000000" class="color000 svgShape"><path fill="#4a4b9b" d="M1613.05,1762.01h-571.54c-54.91,0-99.42-44.51-99.42-99.42V933.35c0-54.91,44.51-99.42,99.42-99.42       h586.12c15.31,0,27.71,12.41,27.71,27.71v858.07C1655.35,1743.07,1636.41,1762.01,1613.05,1762.01z" class="color4a619b svgShape"/><path fill="#6263b5" d="M1041.12,993.63v768.38h572.57c23.01,0,41.65-19.22,41.65-42.94V993.63H1041.12z" class="color627cb5 svgShape"/><path fill="#7c7dc9" d="M1519.13,1685.17h-474.96V993.63h535.23v631.27C1579.39,1658.19,1552.41,1685.17,1519.13,1685.17z" class="color7c90c9 svgShape"/><path fill="#d6e8d9" d="M1655.12,993.63H1045.9c-37.98,0-68.77-30.02-68.77-67.05l0,0c0-37.03,30.79-67.04,68.77-67.04h609.22       c0.05,0,0.09,0.04,0.09,0.08v133.92C1655.2,993.59,1655.16,993.63,1655.12,993.63z" class="colord6e0e8 svgShape"/><path fill="#ffffff" d="M1045.9,859.54c-37.98,0-68.77,30.02-68.77,67.04l0,0c0,3.82,0.4,7.54,1.03,11.18       c11.55,20.71,34.07,34.77,59.95,34.77h598.15c0.22,0,0.4-0.18,0.4-0.39v-112.6H1045.9z" class="colorfff svgShape"/><path fill="#d6e8d9" d="M1280.36,911.71h-245.38c-2.33,0-4.21-1.89-4.21-4.21v-8.57c0-2.33,1.89-4.21,4.21-4.21h245.38      c2.33,0,4.21,1.89,4.21,4.21v8.57C1284.57,909.82,1282.68,911.71,1280.36,911.71z" class="colord6e0e8 svgShape"/><path fill="#3739b2" d="M1119.74,898.97c0,0-7.53,7.11-8.47,23.46c-0.94,16.35-11.29,35.54-11.29,35.54l-24.46-18.48l-26.34,18.48      c0,0,8.47-22.75,8.47-34.83c0-12.08,13.17-24.17,13.17-24.17H1119.74z" class="color3745b2 svgShape"/><path fill="#a0a1e0" d="M1375.34 1145.71h-120.15c-1.48 0-2.67-1.2-2.67-2.67v-5.43c0-1.48 1.2-2.67 2.67-2.67h120.15c1.48 0 2.67 1.2 2.67 2.67v5.43C1378.01 1144.51 1376.82 1145.71 1375.34 1145.71zM1477.5 1352.41h-324.46c-12.87 0-23.31-10.44-23.31-23.31v-74.06c0-12.87 10.44-23.31 23.31-23.31h324.46c12.87 0 23.31 10.44 23.31 23.31v74.06C1500.81 1341.97 1490.37 1352.41 1477.5 1352.41z" class="colora0b4e0 svgShape"/></g><g fill="#000000" class="color000 svgShape"><rect width="147.41" height="13.24" x="327.89" y="1647.74" fill="#42438f" class="color4b428f svgShape"/><polygon fill="#7e7fb4" points="303.82 1762.01 287.5 1762.01 336.84 1517.84 374.24 1517.84" class="color807eb4 svgShape"/><polygon fill="#7e7fb4" points="499.85 1762.01 516.16 1762.01 466.82 1517.84 429.43 1517.84" class="color807eb4 svgShape"/><rect width="175.85" height="31.83" x="312.97" y="1486.01" fill="#7e7fb4" class="color807eb4 svgShape"/><rect width="178.24" height="13.24" x="312.97" y="1616.33" fill="#b9badd" class="colorb9badd svgShape"/><polygon fill="#42438f" points="466.82 1517.84 429.43 1517.84 433.76 1532.86 468.92 1528.23" class="color4b428f svgShape"/><polygon fill="#42438f" points="331.07 1546.37 367.39 1541.59 374.24 1517.84 336.84 1517.84" class="color4b428f svgShape"/><rect width="11.31" height="35.98" x="396.17" y="1382.34" fill="#181943" class="color181943 svgShape"/><path fill="#1b1c47" d="M369.53,1473.85c0,0-2.57-3.59,8.74-3.59c11.31,0,10.29-4.53,10.29-4.53s-15.43-1.13-15.43-3.59      c0-2.46,15.45-53.45,15.45-53.45s13.35-4.16,23.63,0l15.94,54.02c0,0-11.83,2.83-14.4,2.83c-2.57,0,0,4.16,8.74,4.53      c8.74,0.38,12.34,2.27,11.83,3.78H369.53z" class="color1b1c47 svgShape"/><path fill="#13143b" d="M386.37 1416.17c0 0 11.81-3.68 20.92 0l14.11 47.81c0 0-3.2.77-6.44 1.45 3.89-.5 13.2-2.73 13.2-2.73l-15.94-54.02c-10.29-4.16-23.63 0-23.63 0s-5.25 17.34-9.63 32.29C382.55 1428.77 386.37 1416.17 386.37 1416.17zM422.5 1470.07c-7.3-.32-10.28-3.26-9.58-4.22-1.87.37-3.52.64-4.27.64-2.28 0 0 3.68 7.74 4.01 7.74.33 10.92 2.01 10.47 3.34h7.47C434.85 1472.34 431.25 1470.45 422.5 1470.07zM377.24 1470.68c3.01 0 5.01-.36 6.37-.87-1.37.28-3.11.46-5.34.46-7.9 0-9.03 1.75-8.99 2.81C369.32 1472.13 370.47 1470.68 377.24 1470.68z" class="color15133b svgShape"/><path fill="#48499c" d="M439.89,1486.15h-76.11v-7.89c0-2.44,1.97-4.41,4.41-4.41h67.29c2.44,0,4.41,1.97,4.41,4.41V1486.15z" class="color56489c svgShape"/><path fill="#38398d" d="M435.81,1473.85h-67.95c-1.73,0-3.19,1.26-3.79,3.03h67.76c2.25,0,4.08,2.14,4.08,4.77v4.5h3.98v-7.53      C439.89,1475.99,438.06,1473.85,435.81,1473.85z" class="color42388d svgShape"/><path fill="#fe9526" d="M380.6,1311.08c-2.55,0-4.71,1.84-5.12,4.35c-1.85,11.34-7.43,41.43-15.68,49.13      c-10.22,9.55-8.17,21.49-8.17,21.49h99.62c0,0,4.09-9.07-4.6-19.1c-7.91-9.13-14.97-34.9-16.94-51.33      c-0.31-2.6-2.53-4.55-5.15-4.55H380.6z" class="colorf89e1b svgShape"/><path fill="#e48725" d="M446.65,1366.96c-7.91-9.13-14.97-34.9-16.94-51.33c-0.31-2.6-2.53-4.55-5.15-4.55H380.6      c-2.55,0-4.71,1.84-5.12,4.35c-0.17,1.04-0.37,2.24-0.6,3.56h43.07c2.62,0,4.84,1.95,5.15,4.55      c1.97,16.43,9.03,42.2,16.94,51.33c3.53,4.07,4.93,7.97,5.37,11.19h5.84C451.25,1386.06,455.33,1376.98,446.65,1366.96z" class="colore48725 svgShape"/></g><g fill="#000000" class="color000 svgShape"><path fill="#f89227" d="M406.2,1612.77v-27.52h725.34c37.28,0,67.49,39.45,67.49,88.11v0.54c0,48.66-30.22,88.1-67.49,88.1H406.2      v-27.52C428.76,1672.39,406.2,1612.77,406.2,1612.77z" class="colorf85427 svgShape"/><path fill="#ffa03c" d="M1131.53,1585.25H838.65c-1.14,4.48-1.79,9.18-1.79,14.06v80.45c0,28.42,20.66,51.46,46.13,51.46h299.77      c10.13-15.41,16.26-35.42,16.26-57.32v-0.54C1199.03,1624.7,1168.81,1585.25,1131.53,1585.25z" class="colorff6c3c svgShape"/><path fill="#d87f21" d="M406.2,1585.25h355.69c29.81,0,53.97,31.54,53.97,70.45v35.86c0,38.91-24.16,70.45-53.97,70.45H406.2      v-27.52c22.57-62.1,0-121.72,0-121.72V1585.25z" class="colord83a21 svgShape"/><path fill="#edf0ed" d="M758.09,1612.77c20.53,0,37.16,21.72,37.16,48.51v24.7c0,26.79-16.64,48.51-37.16,48.51H406.2      c19.75-60.86,0-121.72,0-121.72H758.09z" class="coloredf0ef svgShape"/><path fill="#dee1df" d="M406.2,1612.77h351.89c20.53,0,37.16,21.72,37.16,48.51v12.35l-380.29,0      C414.56,1638.73,406.2,1612.77,406.2,1612.77z" opacity=".83" class="colordee1de svgShape"/><path fill="#fa8101" d="M1179.82,1356.36v-17.41H608.91c-29.34,0-53.13,24.96-53.13,55.76v0.34c0,30.79,23.78,55.76,53.13,55.76      h570.91v-17.41C1162.06,1394.08,1179.82,1356.36,1179.82,1356.36z" class="colorfab001 svgShape"/><path fill="#ff921f" d="M608.91,1338.94h230.52c0.9,2.83,1.41,5.81,1.41,8.9v50.91c0,17.98-16.26,32.56-36.31,32.56H568.58      c-7.97-9.75-12.8-22.42-12.8-36.27v-0.34C555.78,1363.9,579.57,1338.94,608.91,1338.94z" class="colorffc71f svgShape"/><path fill="#1f1f23" d="M733.8,1338.94h41.26c-17.02,10.47-28.66,31.48-28.66,55.73v0.39c0,24.26,11.64,45.26,28.66,55.73H733.8      c-29.34,0-46.51-25.24-46.51-56.03v-0.58C687.29,1363.39,704.46,1338.94,733.8,1338.94z" opacity=".15" class="color231f20 svgShape"/><path fill="#ea7a03" d="M1179.82,1338.94H899.86c-23.46,0-42.48,19.96-42.48,44.58v22.7c0,24.62,19.02,44.58,42.48,44.58h279.97      v-17.41c-17.76-39.3,0-77.03,0-77.03V1338.94z" class="colorea9d03 svgShape"/><path fill="#edf0ed" d="M902.85,1356.36c-16.16,0-29.25,13.74-29.25,30.7v15.63c0,16.95,13.1,30.7,29.25,30.7h276.97      c-15.54-38.51,0-77.03,0-77.03H902.85z" class="coloredf0ef svgShape"/><path fill="#dee1df" d="M1179.82,1356.36H902.85c-16.16,0-29.25,13.74-29.25,30.7v7.81l299.33,0      C1173.24,1372.78,1179.82,1356.36,1179.82,1356.36z" opacity=".83" class="colordee1de svgShape"/><g fill="#000000" class="color000 svgShape"><path fill="#4792eb" d="M1235.47,1471.67v-20.87h-690.2c-35.47,0-58.15,30.08-58.15,66.99v0.41c0,36.91,22.67,66.66,58.15,66.66      h690.2V1564C1214,1516.89,1235.47,1471.67,1235.47,1471.67z" class="color4796eb svgShape"/><path fill="#6062ef" d="M487.13,1517.79v0.41c0,15.11,3.85,28.98,10.78,40.14h292.93c19.19,0,34.75-17.33,34.75-38.71v-68.84      H545.27C509.8,1450.8,487.13,1480.89,487.13,1517.79z" class="color60abef svgShape"/><path fill="#1f1f23" d="M696.26,1450.8h49.88c-20.57,12.55-34.64,37.73-34.64,66.8v0.47c0,29.07,14.07,54.25,34.64,66.8h-49.88      c-35.47,0-64.23-29.92-64.23-66.83v-0.41C632.03,1480.72,660.79,1450.8,696.26,1450.8z" opacity=".15" class="color231f20 svgShape"/><path fill="#5355cc" d="M1235.47,1450.8H897.01c-28.36,0-51.35,23.92-51.35,53.43v27.2c0,29.51,22.99,53.43,51.35,53.43h338.46      V1564c-21.47-47.1,0-92.32,0-92.32V1450.8z" class="color5384cc svgShape"/><path fill="#edf0ed" d="M900.63,1471.67c-19.53,0-35.36,16.47-35.36,36.79v18.73c0,20.32,15.83,36.79,35.36,36.79h334.85      c-18.79-46.16,0-92.32,0-92.32H900.63z" class="coloredf0ef svgShape"/><path fill="#dee1df" d="M1235.47,1471.67H900.63c-19.53,0-35.36,16.47-35.36,36.79v9.37l361.87,0      C1227.51,1491.36,1235.47,1471.67,1235.47,1471.67z" opacity=".83" class="colordee1de svgShape"/><path fill="#0205a0" d="M911.48,1504.23c0,0,3.4,4.42,3.83,14.6c0.43,10.18,5.1,22.12,5.1,22.12l11.06-11.5l11.91,11.5      c0,0-3.83-14.16-3.83-21.68c0-7.52-5.95-15.04-5.95-15.04H911.48z" class="color022fa0 svgShape"/></g></g><g fill="#000000" class="color000 svgShape"><path fill="#ffb668" d="M703.67,1173.67c0,0,17.61-21.53,14.68-47.95l-16.63,13.7c0,0,29.35-36.2,7.83-85.13      c0,0-8.81,26.42-18.59,32.29c0,0,22.51-32.29,2.94-69.47l-13.7,20.55l2.94-33.27l-23.48-34.25l-1.96,32.29      c0,0,0-53.82-36.2-71.43l-3.91,22.51l-3.91-31.31l-31.31-24.46l0.98,41.1l20.55,31.31l-19.57-4.89c0,0,4.89,57.73,17.61,77.3      l25.44,9.79l-19.57,1.96l9.79,29.35l30.33,10.76l-25.44-1.96c0,0,5.87,33.27,56.75,56.75l-16.63,3.91      C662.57,1153.13,673.34,1168.78,703.67,1173.67z" class="colorffcc68 svgShape"/><path fill="#ce8232" d="M605.92,949.31c0,0,98.42,174.15,127.97,316.62C733.9,1265.94,656,1042.28,605.92,949.31z" class="colorce9532 svgShape"/><path fill="#2d2d47" d="M674.36,1322.42h108.08c2.09,0,3.78,1.69,3.78,3.78v7.7c0,2.09-1.69,3.78-3.78,3.78l-108.08,0       c-2.09,0-3.78-1.69-3.78-3.78v-7.7C670.58,1324.12,672.27,1322.42,674.36,1322.42z" class="color2d3147 svgShape"/><path fill="#2d2d47" d="M700.62,1325.81h55.56c15.11,0,27.36-12.25,27.36-27.36v-67.43c0-15.11-12.25-27.36-27.36-27.36h-55.56       c-15.11,0-27.36,12.25-27.36,27.36v67.43C673.27,1313.57,685.51,1325.81,700.62,1325.81z" class="color2d3147 svgShape"/><path fill="#4a4b97" d="M671.79 1325.81h113.22c12.77 0 23.13-10.35 23.13-23.13v-47.05c0-12.77-10.35-23.13-23.13-23.13H671.79c-12.77 0-23.13 10.35-23.13 23.13v47.05C648.67 1315.46 659.02 1325.81 671.79 1325.81zM664.63 1218.56h127.53c2.73 0 4.94-2.21 4.94-4.94v-10.05c0-2.73-2.21-4.94-4.94-4.94H664.63c-2.73 0-4.94 2.21-4.94 4.94v10.05C659.69 1216.35 661.91 1218.56 664.63 1218.56z" class="color4a5e97 svgShape"/><path d="M673.27,1232.81v-1.79c0-4.49,1.1-8.72,3.02-12.47h-9.34c-4.01,0-7.25-3.25-7.25-7.25v-5.43       c0-4.01,3.25-7.25,7.25-7.25h26.18c-1.1,1.31-1.77,3.01-1.77,4.87v5.59c0,4.12,3.31,9.43,7.32,9.43h9.34       c-1.92,3.85-3.09,6.24-3.09,10.86v3.03c-13.91,2.07-24.6,13.2-24.6,28.09v36.84c0,14.51,10.16,26.58,23.55,29.1       c-1.02,1.34-1.64,3.02-1.64,4.86c0,2.64,1.27,4.97,3.21,6.4h-27.24c-4.22,0-7.63-3.42-7.63-7.63c0-1.78,0.62-3.42,1.64-4.72       c-13.4-2.45-23.55-14.17-23.55-28.28v-35.8C648.67,1246.79,659.35,1234.82,673.27,1232.81z" opacity=".15" fill="#000000" class="color000 svgShape"/><path fill="#9293d3" d="M689.5,1298.06h77.8c4.59,0,8.32-3.72,8.32-8.32v-23.47c0-4.59-3.72-8.32-8.32-8.32h-77.8      c-4.59,0-8.32,3.72-8.32,8.32v23.47C681.18,1294.34,684.91,1298.06,689.5,1298.06z" class="color92aad3 svgShape"/></g><g fill="#000000" class="color000 svgShape"><path fill="#e5a35d" d="M981.5,1224.99c5.97,11.37,20.67,9.99,20.67,9.99l0,0l-7.2,16.83c-18.43,5.18-35.4-12.19-35.4-12.19     c-13.7-13.38-17.4-84.31-17.4-84.31C963.94,1161.28,975.53,1213.62,981.5,1224.99z" class="colore55daa svgShape"/><path fill="#e2a86a" d="M961.77,1476.07c0,0-1.36,4.94-1.27,10.25l-6.93-1.63l0.42-8.73L961.77,1476.07z" class="colore2a36a svgShape"/><path fill="#e2a86a" d="M975.46,1489.88c-0.11,1.4-22.41,0.28-22.41,0.28l0.52-5.47l7.04,0.1      C960.6,1484.79,975.58,1488.48,975.46,1489.88z" class="colore2a36a svgShape"/><path fill="#2d2d3d" d="M952.99,1490.12l0.35-3.05c0,0,1.29,1.72,8.11,1.81c6.01,0.08,6.71-2.05,6.71-2.05      c5.61,1.7,8.74,2.01,7.93,3.16C975.04,1491.47,952.99,1490.12,952.99,1490.12z" class="color2d313d svgShape"/><path fill="#d39553" d="M953.99,1475.96l-0.33,7.31c0,0,3.26-1.97,6.91,0.1c0,0,0.57-5.4,1.2-7.3L953.99,1475.96z" class="colord38753 svgShape"/><path fill="#e2a86a" d="M994.3,1476.53c0,0-1.36,4.94-1.27,10.25l-6.93-1.63l0.42-8.73L994.3,1476.53z" class="colore2a36a svgShape"/><path fill="#e2a86a" d="M1007.99,1490.34c-0.11,1.4-22.41,0.28-22.41,0.28l0.52-5.47l7.04,0.1      C993.13,1485.25,1008.11,1488.93,1007.99,1490.34z" class="colore2a36a svgShape"/><path fill="#2d2d3d" d="M985.52,1490.58l0.35-3.05c0,0,1.29,1.72,8.11,1.81c6.01,0.08,6.71-2.05,6.71-2.05      c5.61,1.7,8.74,2.01,7.93,3.16C1007.57,1491.93,985.52,1490.58,985.52,1490.58z" class="color2d313d svgShape"/><path fill="#d39553" d="M986.52,1476.42l-0.33,7.31c0,0,3.26-1.97,6.91,0.1c0,0,0.57-5.4,1.2-7.3L986.52,1476.42z" class="colord38753 svgShape"/><path fill="#474891" d="M952.85,1284.35c0,0-43.7,12.39-37.85,52.56l112.49,1.58c0,0,3.52-17.24-3.53-25.13     C1016.98,1305.54,952.85,1284.35,952.85,1284.35z" class="color476291 svgShape"/><path fill="#474891" d="M1027.21,1338.48c0,0-15.45,44.06-32.04,141.96l-11.31-0.16c0,0-7-73.33-5-93.06     c2-19.74,16.91-50.74,16.91-50.74S1017.28,1331.9,1027.21,1338.48z" class="color476291 svgShape"/><path fill="#3e3f87" d="M952.85,1337.43l42.47,0.34c0,0-15.4,31.05-16.47,49.44c-1.06,18.4,5,93.06,5,93.06l4.71,0.07     c0,0-2.63-79.16-1.15-91.89c1.47-12.73,18.66-54.43,17.83-57.25c-0.83-2.82-53.78-18.48-53.78-18.48L952.85,1337.43z" class="color3e5c87 svgShape"/><polygon fill="#3e3f87" points="952.85 1284.35 863.99 1283.1 927.05 1316.03" class="color3e5c87 svgShape"/><path fill="#5758aa" d="M863.99,1283.1c0,0-12.99,21.05-3.56,53.04l131.7,1.84c0,0,2.92-17.56-4.45-25.14     C977.39,1302.28,901.08,1292.44,863.99,1283.1z" class="color5775aa svgShape"/><path fill="#5758aa" d="M992.12,1337.98c0,0-14.36,31.64-28.72,142.01l-11.36-0.16c0,0-8.29-73.34-6.68-93.09     c1.61-19.74,14.51-49.22,14.51-49.22S982.06,1331.41,992.12,1337.98z" class="color5775aa svgShape"/><path fill="#474891" d="M860.42,1336.14l99.45,1.39c0,0-13.39,32.38-14.51,49.22c-1.41,21.31,6.68,93.09,6.68,93.09l4.21,0.06     c0,0-5.02-73.68-2.87-92.13c2.16-18.45,18.53-53.99,15.88-57.81c-2.65-3.82-72.1-8.57-112-22.63     C857.27,1307.32,855.74,1324.07,860.42,1336.14z" class="color476291 svgShape"/><path fill="#ffbd77" d="M934.06,1231.02c-0.27,19.35,5.87,31.41,20.31,53.4c-29.08,9.48-59.61,8.17-91.24-1.28     c7.04-18.67,17.58-33.87,29.3-47.09c0.08-0.09,0.19-0.21,0.26-0.29c0.14-0.16,0.26-0.29,0.35-0.39c0.1-0.11,0.25-0.27,0.25-0.27     c6.18-10.82-12.32-23.57-19.39-44.86c-7.21-21.69-3.76-32.9-3.76-32.9c27.38-11.82,43.37-14.41,74.16-1.3l0.9,18.78     c0,0,8.19,14.76,7.15,21.32C951.3,1202.7,934.2,1220.7,934.06,1231.02z" class="colorff77c4 svgShape"/><path fill="#fec78c" d="M891.61,1147.54c-0.49,7.16,10.65,12.37,16.61,12.78c5.96,0.41,16.74-3.3,17.23-10.46       c0.49-7.16-7.17-6.41-16.52-7.05C899.59,1142.17,892.1,1140.38,891.61,1147.54z" class="colorfeb48c svgShape"/><path fill="#fec78c" d="M908.42,1158.71L908.42,1158.71c6.53,0.45,12.23-4.53,12.68-11.06l1.42-20.77         c0.45-6.53-4.53-12.23-11.06-12.68l0,0c-6.53-0.45-12.23,4.53-12.68,11.06l-1.42,20.77         C896.91,1152.56,901.89,1158.27,908.42,1158.71z" class="colorfeb48c svgShape"/><path fill="#ba8349" d="M921.54,1141.25c0.42-6.1,0.98-14.36,0.98-14.36c0.45-6.53-4.53-12.23-11.06-12.68         c-6.53-0.45-12.23,4.53-12.68,11.06c0,0-0.27,3.96-0.65,9.45c0,0,4.35,5.98,10.29,7.54         C915.38,1144.09,921.54,1141.25,921.54,1141.25z" class="colorba6549 svgShape"/><path fill="#edab65" d="M954.37,1284.43c-2.61-9.22-20.73-23.51-20.31-53.4c0.17-11.98,17.22-25.88,18.28-35.05     c-6.44,2.65-32.99,10.54-74.97,2.38c7.8,21.44,17.76,27.32,15.91,36.76c0,0-0.15,0.16-0.25,0.27c-0.09,0.1-0.21,0.23-0.35,0.39     c-0.07,0.08-0.18,0.2-0.26,0.29c-11.72,13.22-22.26,28.42-29.3,47.09c15.48,4.63,30.7,7.27,45.62,7.68     C923.5,1291.01,940.25,1289.02,954.37,1284.43z" class="colored65b2 svgShape"/><path fill="#5254db" d="M921.24,1242.87c0-2.65,1.42-9.02,2.94-15.76c2.16-9.61,4.6-20.52,4.22-25.89     c-0.65-9.14-9.47-35.17-9.84-36.28l-1.21,0.41c0.09,0.27,9.14,26.98,9.78,35.95c0.37,5.19-2.05,15.99-4.19,25.52     c-1.6,7.11-2.98,13.26-2.97,16.05c0.02,16.25,3.38,31.28,10.43,46.87c0.45-0.06,0.9-0.07,1.35-0.14     C924.64,1274.04,921.26,1259.07,921.24,1242.87z" class="colordb52a3 svgShape"/><path fill="#f2f2f2" d="M970.08,1168.77l-61.6,112.29c0,0,49.78,10.55,73.9,7.07l55.68-108.98L970.08,1168.77z" class="colorf2f2f2 svgShape"/><path fill="#e0e0ee" d="M970.08 1168.77l10.77 1.65c-11.24 19.06-29.76 51.72-30.74 61.59-.86 8.63-10.61 32.83-19.65 53.01-12.59-1.96-21.98-3.95-21.98-3.95L970.08 1168.77zM961.99 1273.19c4.48-8.74 23.74-44.15 23.74-44.15s-5.81 17.19-12.92 41.15c-3.16 10.63-4.32 15.96-4.64 18.61-6.72-.13-14.03-.73-21.18-1.54C950.61 1282 958.3 1280.39 961.99 1273.19z" class="colore0e0ee svgShape"/><path fill="#f4be84" d="M944.77,1268.19c5.06,3.32,11.77,6.32,11.59,9.02c-0.39,5.87-9.09,6.83-12.71,4.3        c-3.45-2.75-5.2-9.71-5.2-9.71S939.76,1264.91,944.77,1268.19z" class="colorf4be84 svgShape"/><path fill="#f4be84" d="M964.74 1288.14c.82-.3-1.19-6.64-2.06-7.8-.7-.92-1.35-2.14-9.23-6.79l1.67 5.82c0 0 5.11 2.1 5.74 2.66C961.5 1282.59 961.98 1287.35 964.74 1288.14zM955.9 1296.47c1.22.23 1.3-6.09 1.02-7.57-.35-1.86.06-2.56-2.91-12l-2.32 5.42c0 0 2.62 6.37 2.75 7.25C954.57 1290.46 954.32 1295 955.9 1296.47zM951.64 1296.13c1.17.22 1.24-5.85.98-7.26-.33-1.79.06-2.45-2.8-11.52l-2.23 5.2c0 0 2.52 6.11 2.64 6.96C950.36 1290.37 950.12 1294.72 951.64 1296.13zM947.01 1292.24c.99.19 1.05-4.95.83-6.15-.28-1.51.05-2.08-2.37-9.75l-1.88 4.4c0 0 2.13 5.17 2.24 5.89C945.94 1287.36 945.73 1291.05 947.01 1292.24zM939.17 1272.43l-8.7-1.72 2.17-8.94c0 0 5.02 2.09 12.13 6.43L939.17 1272.43z" class="colorf4be84 svgShape"/><path fill="#ffbd77" d="M870.66,1157.55c-17.09,0.58-36.87,96.37-25.82,108.74c14.31,18.04,61.79,6.87,88.07,7.23      c0,0,4.65-4.77,5.41-9.91c-18.64-10.81-67.38-11.71-71.61-13.77C862.47,1247.8,887.69,1156.98,870.66,1157.55z" class="colorff77c4 svgShape"/><path fill="#e5a35d" d="M847.14,1262.11c-8.68-9.71,1.66-70.66,14.76-96.77c-14.15,23.02-26.25,90.68-17.07,100.96      c14.31,18.04,61.79,6.87,88.07,7.23c0,0,1.57-1.72,3.05-4.11C909.5,1269.28,861.31,1279.97,847.14,1262.11z" class="colore55daa svgShape"/><polygon fill="#5254db" points="886.91 1150.94 906.91 1171.4 912.9 1162.94 918.44 1167.82 922.26 1162.27 928.83 1169.3 929.42 1150.61 917.47 1151.79" class="colordb52a3 svgShape"/><polygon fill="#edab65" points="886.91 1150.94 896.19 1137.06 917.47 1151.79 907.65 1166.47" class="colored65b2 svgShape"/><polygon fill="#edab65" points="922.13 1140.73 917.47 1151.79 927.89 1164.73 929.42 1150.61" class="colored65b2 svgShape"/><g fill="#000000" class="color000 svgShape"><path d="M915.59,1054.82c-15.6-0.73-26.19,10.49-28.6,15.84c0,0-6.71,11.85-6.56,19.62c0.15,7.77-1.64,8.8-1.64,8.8      s-7.5,4.44-5.32,13.12c0,0-0.24-5.65,1.61-7.76c0,0-2.49,7.82,0.62,12.42c0,0-1.1-4.64,0.71-8.69c0,0,0.07,3.37,0.63,6.59      c0.57,3.23-0.44,15.94,7.96,21.47c0,0-2.32-3.06-3.02-6.8c0,0,1.81,2.42,3.23,4.6c1.42,2.17-0.29,10.62,2.21,16.79      c0,0-1.27-6.84-0.76-13.19c0,0,3.58,9.25,7.65,11.63c0,0-5.69-8.31-5.98-10.24c0,0,3.8,1.22,6.31,1.17c0,0-5.67-0.92-6.99-4.14      c-1.28-3.11-1.5-12.43-0.85-14.33c0.39,1.19,1.53,2.62,2.52,2.84c0.03,1.11,0.07,3.99-0.39,6.15c0,0,0.99-0.54,1.59-2.23      c0,0,0.56,2.71-0.02,5.44c0,0,1.34-2.36,1.18-3.78c0,0,2.26,1.55,4.83,4.15l34.96-66.27      C931.46,1068.01,931.2,1055.55,915.59,1054.82z" fill="#000000" class="color000 svgShape"/><path d="M928.61,1134.76c0,0,10.91-15.48,10.13-24.87c0,0,1,9.1-0.68,13c0,0,3.1-3.69,2.66-8.16c0,0,5.87,11.74-3.41,23.91      c0,0,3.26-1.64,4.28-3.59c0,0-1.67,4.75-3.05,6.35c0,0,4.05-3.23,5.02-7.84c0,0-0.27,4.36-1.74,7.17c0,0,7.66-10.8,1.38-25.32      c0,0,1.56-4.39,1.51-6.93c0,0,0.53,3.26-0.58,6.3c0,0,4.25-4.8,2.08-13.84c0,0,1.24-2.57,1.2-4.5c0,0,0.28,2.54,0.15,7.62      c0,0,0.66-2.43,0.72-5.1c0,0,0.37,0.96,0.1,4.96c0,0,1.29-4.14,0-7.99c0,0,1.27-5.23-1.39-9.17      c-2.66-3.94-10.02-13.6-10.02-13.6s5.84,4.12,6.6,6.89c0,0-1.25-3.61-2.44-4.79c0,0,1.3,0.58,2.27,2.01c0,0,0.19-2.18-6.58-5.8      c0,0-1.37-3.85-5.38-4.86c0,0-1.81-8.44-16.39-9.12c-14.58-0.68-24.48,9.8-26.73,14.8c0,0-7.85,7.17-7.7,14.43      c0.14,7.26-1.07,11.28-1.07,11.28s-5.89,5-3.85,13.11c0,0-0.22-5.28,1.5-7.25c0,0-2.32,7.31,0.58,11.61c0,0-1.02-4.34,0.66-8.12      c0,0,0.06,3.15,0.59,6.16s-0.41,14.89,7.44,20.06c0,0-2.17-2.86-2.83-6.36c0,0,1.69,2.27,3.02,4.3      c1.33,2.03-0.27,9.93,2.07,15.69c0,0-1.18-6.39-0.71-12.33c0,0,3.34,8.65,7.14,10.87c0,0-5.32-7.76-5.59-9.57      c0,0,3.55,1.14,5.9,1.09c0,0-5.3-0.86-6.54-3.87c-1.23-3-1.41-12.2-0.74-13.54c0,0,1.33,1.67,2.28,2.38c0,0,0.19,3.63-0.35,6.18      c0,0,0.93-0.5,1.49-2.09c0,0,0.52,2.53-0.02,5.08c0,0,1.25-2.2,1.11-3.53c0,0-0.46,2.88,2.17,5.13      C897.49,1135.28,907.46,1116.42,928.61,1134.76z" fill="#000000" class="color000 svgShape"/><path fill="#f4f7f5" d="M945.31,1079.35c0.1,0.28,0.16,0.45,0.16,0.45C945.43,1079.66,945.38,1079.51,945.31,1079.35z" class="colorf6f7f4 svgShape"/><path d="M950.4,1095.08c0,0,0.07-4.88-2.67-8.79c-2.73-3.91-9.05-13.79-9.05-13.79s5.39,3.67,6.61,6.39       c-0.38-0.99-1.38-3.39-2.34-4.32c0,0,1.34,0.57,2.33,1.99c0,0,0.2-2.16-6.75-5.75c0,0-2.98-3.2-7.1-4.2c0,0,0.01,0.02,0,0       l-31.39,64.97c2.54,2.29,5.4,4.62,5.4,4.62l-0.4-0.94c2.52,2.96,12.39,4.5,17.37,3.36c0,0,0,0,0,0       c0.16-0.04,0.32-0.08,0.47-0.12c0,0,0,0,0,0c0.15-0.04,0.3-0.09,0.44-0.14c1.65-0.58,3.51-1.82,5.24-3.37       c0.22-0.2,0.44-0.4,0.66-0.6c0.15-0.14,0.29-0.28,0.44-0.43c0,0,0.01-0.01,0.01-0.01c0.55-0.55,1.08-1.13,1.58-1.72       c0.03-0.04,0.06-0.07,0.09-0.11c1.57-1.9,2.78-3.91,3.22-5.6c3.02-5.25,6.37-12.4,5.93-17.63c0,0,1.02,9.02-0.71,12.9       c0,0,3.19-3.66,2.74-8.1c0,0,6.02,11.64-3.52,23.71c0,0,3.35-1.63,4.4-3.57c0,0-1.72,4.71-3.14,6.3c0,0,4.16-3.2,5.16-7.78       c0,0-0.28,4.33-1.79,7.12c0,0,7.88-10.72,1.44-25.11c0,0,1.61-4.35,1.56-6.87c0,0,0.55,3.23-0.6,6.25c0,0,4.37-4.77,2.15-13.73       c0,0,1.28-2.55,1.24-4.47c0,0,0.29,2.51,0.15,7.56c0,0,0.68-2.41,0.75-5.06c0,0,0.38,0.95,0.1,4.92       C950.4,1103,951.73,1098.9,950.4,1095.08z" fill="#000000" class="color000 svgShape"/><path fill="#fec78c" d="M927.66,1080.04c0,0,4,5.5,6.83,7.35c0,0,1.3,9.3,2.18,16.13c0.88,6.83-1.11,17.06-2.3,21.13      c-1.2,4.09-7.39,10.48-11.31,13.24c-5.66,3.97-15.17,1.14-18.78-1.44l-2.29-1.45c0,0-7.47-4.9-9.28-14.06l-0.84-7.79      c0,0-1.51-0.98-1.68-3.01c-0.16-2.03,0.5-6.23,0.5-6.23s19.76-20.43,26.04-23.6c6.28-3.17,10.07-0.7,10.07-0.7l3.2-1.71      C930.01,1077.9,928.38,1079.01,927.66,1080.04z" class="colorfeb48c svgShape"/><path fill="#6d4112" d="M881.69 1098.67c0 0 9.43 1.74 16.26-4.7 6.83-6.44 10.1-9.44 10.1-9.44s-3.05 1.28-4.55 2.9c0 0 5.46-7.25 10.76-9.21 5.3-1.96 13.96-2.13 13.96-2.13s-5.63-.99-8.25-.45c0 0 8.33-1.99 11.79.38 0 0-5.97-5.98-16.09-2.37-10.13 3.62-17.25 13.64-23.31 15.71 0 0 5.23-.83 7.15-2.58 0 0-7.79 7.28-12.3 7.4 0 0 6.84.27 12.94-6.07C900.16 1088.1 894.39 1098.74 881.69 1098.67zM888.26 1084.8c0 0 16.09-15.69 32.54-15.53 0 0-4.45-.89-8.7-.32 0 0 4.22-1.55 7.23-1.36 0 0-6.86-2.18-14.18 2.84 0 0 7.5-6.86 15.57-5.19 0 0-11.01-6.74-27.73 5.79 0 0 11.81-6.24 15.65-4.94 0 0-8.51 2.36-11.67 5.96 0 0 4.3-2.4 5.88-2.43 0 0-9.89 6.05-14.65 12.25 0 0 8.17-6.75 9.99-6.91C898.19 1074.96 889.31 1082.46 888.26 1084.8z" class="color6d3c12 svgShape"/><path fill="#d6ae83" d="M889.25,1112.11c0,0-3.23-1.28-2.64,0.54c0.58,1.82,3.9,2.66,2.73,3.65c-1.17,0.99-1.71,1.59-0.42,1.95      c1.29,0.37,0-0.55-0.76,0.53c-0.76,1.08,1.59,4.51,2.95,3.84c1.36-0.67,1.04-3.09-0.09-4.42      C891.02,1118.21,891.01,1112.96,889.25,1112.11z" class="colord6a183 svgShape"/><path fill="#6d4112" d="M932.57,1080.65c0,0,3.5,2.58,5.31,6.8c0,0-0.27-2.29-0.76-3.43c0,0,2.78,0.95,4.06,9.7      c0,0,0.81-1.98,0.28-5.42c0,0,3.67,2.72,4.55,9.11c0,0-0.51-8.61-4.86-13.13c-4.34-4.51-6.39-9.3-6.39-9.3s0.66,4.13,1.72,5.72      c0,0-2.23-2.37-2.25-3.18l0.62,2.4l-1.3-1.93c0,0,0.74,2.52,1.45,3.54C935,1081.53,934.33,1081.11,932.57,1080.65z" class="color6d3c12 svgShape"/></g><path fill="#fdcb96" d="M1008.17,1220.48c-0.91-0.84-2.37-0.28-2.48,0.95c-0.09,1,0.04,2.23,0.74,3.57c1.73,3.3,1.89,7.07,1.1,7.07     c-0.79,0-2.99-7.07-5.66-6.52c-2.67,0.55,2.83,8.88,2.04,9.98c-0.79,1.1-3.77-5.82-5.19-4.56c-1.41,1.26,3.3,8.49,2.83,9.43     c-0.47,0.94-3.62-2.99-3.93-1.57c-0.31,1.41,0.45,4.24,5.18,7.23c0,0,7.08,5.03,10.54,1.26     C1016.63,1243.75,1018.07,1229.58,1008.17,1220.48z" class="colorfdc596 svgShape"/></g><g fill="#000000" class="color000 svgShape"><path fill="#fbcc9b" d="M1431.67,1445.98c0,0-4.74-5-4.15-8.43c0.54-3.09,0.29-2.01,0.61-3.32c0.11-0.45,0.26-1.35,0.26-1.35       s1.5-8.43-0.64-10.01c-2.14-1.58-4.02-0.12-4,4.46c0.02,4.58-6.88,5.67-8.72-1.46c-1.83-7.13-6.22-14.65-8.14-12.34       c-1.92,2.31,0.64,7.98,0.64,7.98s-0.29,0.15-0.85-1.34c-0.56-1.48-0.46-5.64-1.4-5.01c-0.93,0.62-7.26,4.24-5.8,14.09       c1.46,9.84,7.31,13.27,9.49,15c2.19,1.72,8.38,9.43,8.85,12.67C1417.82,1456.91,1432.95,1451.45,1431.67,1445.98z" class="colorfbcd9b svgShape"/><path fill="#fb870d" d="M1486.81,1438.19c-13.65,5.72-28.78,45.83-28.78,45.83s-3.96-7.76-4.5-1.1l-22.59-40.94        c0,0-14.24,7.38-16.51,12.55c0,0,25.6,70.43,37.75,75c12.15,4.57,27.79-25.01,27.79-25.01l25.9-42.09        C1507.42,1456.46,1492.23,1435.92,1486.81,1438.19z" class="colorfb9f0d svgShape"/><path fill="#aaaabf" d="M1473.37,1546.2c22.59,68.2,49.52,140.34,80.06,215.75h-11.03c-24.75-74.88-51.31-147-80.06-215.75      H1473.37z" class="colorbfaab5 svgShape"/><path fill="#aaaabf" d="M1373.71,1575.31c57.33,62.04,117.11,124.57,173.23,177.07l-4.48,9.63      c-63.05-67.45-122.06-128.31-173.23-177.07L1373.71,1575.31z" class="colorbfaab5 svgShape"/><polygon fill="#aaaabf" points="1396.15 1761.94 1407.18 1761.94 1539.54 1330.19 1528.51 1330.19" class="colorbfaab5 svgShape"/><path fill="#3a74b9" d="M1677.63,1339.12c0,0-69.15,24.16-148.99,0c0,0,27.11,193.68-47.47,255.66       c0.75,5.05,92.81,47.07,145.84,0C1627.01,1594.78,1670.28,1533.46,1677.63,1339.12z" class="color3aaab9 svgShape"/><path fill="#a8f4b5" d="M1533.44 1419.48c.03-11.41-.26-22.17-.71-31.9 68.24 8.82 115.09 5.43 142.07 1.14-.88 11.35-1.88 22.15-2.99 32.4-15.19 2.05-34.53 3.62-58.25 3.62C1590.9 1424.74 1564.22 1423.29 1533.44 1419.48zM1527.84 1493.95c1.7-10.39 2.94-20.91 3.82-31.33 61.28 9.47 105.6 8.68 133.79 5.77-1.91 11.7-3.95 22.45-6.04 32.3-10.06.79-21.53 1.29-34.47 1.29C1598.67 1501.98 1566.36 1499.88 1527.84 1493.95zM1518.97 1532.21c57.98 13.41 100.64 15.97 128.22 15.34-4.4 13.83-8.56 24.23-11.96 31.7-30.55-.32-73.21-4.3-128.3-17.46C1511.72 1552.66 1515.68 1542.7 1518.97 1532.21z" class="colora8f2f4 svgShape"/><defs><filter id="a" width="162.45" height="269.89" x="1485.11" y="1345.56" filterUnits="userSpaceOnUse"><feColorMatrix values="1 0 0 0 0  0 1 0 0 0  0 0 1 0 0  0 0 0 1 0"/></filter></defs><mask id="c" width="162.45" height="269.89" x="1485.11" y="1345.56" maskUnits="userSpaceOnUse"><g filter="url(#a)" fill="#000000" class="color000 svgShape"><linearGradient id="b" x1="1965.88" x2="1852.08" y1="1473.75" y2="1489.002" gradientTransform="matrix(-1 0 0 1 3499.098 0)" gradientUnits="userSpaceOnUse"><stop offset="0" stop-color="#ffffff" class="stopColorfff svgShape"/><stop offset="1" stop-color="#000000" class="stopColor000000 svgShape"/></linearGradient><path fill="url(#b)" d="M1485.11,1591.28         c36.38-34.17,46.64-101.4,48.13-157.85c11.5-4.01,42.54-7.12,42.54-7.12s2.76-1.97,0.39-9.85         c-2.36-7.88-11.03,16.55-20.81-70.9c30.58,5.63,58.39,4.9,79.74,2.37c-6.92,46.86-23.86,53.95-25.44,58.28         c-1.58,4.33,1.97,22.45,1.97,22.45s30.33,4.33,34.17,13.64c7.92,19.19-13.13,127.04-20.07,136.72         c-6.94,9.69-24.23,7.79-24.23,7.79c-4.23,13.79-21.38,27-21.38,27C1530.78,1621.24,1498.28,1601.57,1485.11,1591.28z"/></g></mask><path fill="#3b3db7" d="M1485.11,1591.28c36.38-34.17,46.64-101.4,48.13-157.85c11.5-4.01,42.54-7.12,42.54-7.12       s2.76-1.97,0.39-9.85c-2.36-7.88-11.03,16.55-20.81-70.9c30.58,5.63,58.39,4.9,79.74,2.37c-6.92,46.86-23.86,53.95-25.44,58.28       c-1.58,4.33,1.97,22.45,1.97,22.45s30.33,4.33,34.17,13.64c7.92,19.19-13.13,127.04-20.07,136.72       c-6.94,9.69-24.23,7.79-24.23,7.79c-4.23,13.79-21.38,27-21.38,27C1530.78,1621.24,1498.28,1601.57,1485.11,1591.28z" mask="url(#c)" class="color3b9ab7 svgShape"/><path fill="#d3e2d6" d="M1624.73,1546.2c22.26,71.47,48.78,143.4,79.09,215.75h-11.03c-22.72-72.92-48.93-144.88-79.09-215.75      H1624.73z" class="colore2d3da svgShape"/><path fill="#fb870d" d="M1455.51,1554.43c0,0,27.92-1.54,53.84,5.3c29.33,7.73,52.32,22.05,52.32,22.05      c16.91-30.91,24.36-116.23,24.13-138.2c-20.99-14.56-81.94-18.79-101.77-3.54c0.57-1.19-7.61,17.34-2.36,42.55      c4.93,23.67,10.5,47.61-3.68,60.67C1470.5,1549.42,1455.51,1554.43,1455.51,1554.43z" class="colorfb9f0d svgShape"/><path fill="#1f1f23" d="M1580.64,1505.79c-1.86-11.47-4.43-19-4.43-19c-5.25,13.66-17.34,28.89-56.2,24.68      c-25.7-2.78-34.14-14.49-36.93-22.12c4.4,21.37,7.74,42.09-5.09,53.9c-1.88,1.55-4.23,3.02-6.7,4.36      c-0.89,2.4-1.76,4.69-2.6,6.76c10.53,0.29,25.91,1.47,40.66,5.36c27.9,7.36,50.26,20.83,50.26,20.83      c0.02,0.01,0.02,0.01,0.04,0.02c0.65,0.38,1.13,0.66,1.46,0.86c0.03,0.02,0.03,0.02,0.06,0.03c0.3,0.18,0.5,0.3,0.5,0.3      C1571.75,1563.35,1577.82,1526.64,1580.64,1505.79z" opacity=".1" class="color231f20 svgShape"/><path fill="#1c1c33" d="M1476.68,1556.25c21.27,7.09,86.17,63.12,48.06,60.27c-68.54-5.12-150.01-35.84-150.01-35.84      s3.7-27.65,13.71-33.82C1397.84,1541.06,1455.41,1549.16,1476.68,1556.25z" class="color1c3033 svgShape"/><path fill="#121221" d="M1422.53,1596.24c-5.95-1.72-11.51-3.41-16.6-5.01c0.2-3.73,0.47-7.92,0.85-12.87      c2.36-30.33-13.78-29.97-13.78-29.97c8.52-3.71,27.57,0.42,27.57,0.42L1422.53,1596.24z" class="color121e21 svgShape"/><path fill="#121221" d="M1476.68,1556.25c21.27,7.09,86.17,63.12,48.06,60.27c-68.54-5.12-104.76-36.84-104.76-36.84      s-4.11-21.83-18.64-29.18c-14.54-7.35-20.33,6.52-20.33,6.52c-0.22-5.83,5.77-10.04,10.69-11.62      C1402.21,1542.03,1455.41,1549.16,1476.68,1556.25z" class="color121e21 svgShape"/><path fill="#1c1c33" d="M1561.68,1581.78c-2.01,7.2-4.72,14.21-8.3,18.98l-127.69-20.09c0,0-5.11-22.42,4.66-31.3      C1441.98,1538.81,1525.53,1557.83,1561.68,1581.78z" class="color1c3033 svgShape"/><path fill="#121221" d="M1482.85,1589.67l-25.69-4.04c-0.06-8.81,1.1-31.16-20.93-36.12c17.89-6.54,46.19,14.42,46.19,14.42      L1482.85,1589.67z" class="color121e21 svgShape"/><path fill="#22223f" d="M1561.68,1581.78c-2.01,7.2-4.72,14.21-8.3,18.98l-84.09-17.93c0,0-1.73-19.32-20.46-30      c-18.31-10.44-23.53,6.05-23.53,6.05C1420.44,1526.11,1529.96,1561.82,1561.68,1581.78z" class="color223a3f svgShape"/><path fill="#20229d" d="M1627.01,1594.78c0,0-14.97,33.09-103.21,33.09c-143.39,0-150.56-48.19-150.56-48.19h153.79      C1561.81,1617.81,1600.77,1617.76,1627.01,1594.78z" class="color208e9d svgShape"/><path fill="#3a74b9" d="M1374.98,1584.41c-1.48-2.91-1.75-4.73-1.75-4.73h153.79c1.51,1.66,3.03,3.21,4.56,4.73H1374.98z" class="color3aaab9 svgShape"/><path fill="#3b3db7" d="M1380.07 1591.8c.77-6.01 1.3-10.24 1.54-12.12h36.92c.61 8.8 1.16 21.75.46 35.03C1397.61 1607.56 1386.17 1598.78 1380.07 1591.8zM1469.71 1579.68c2.97 11.17 7.11 29.07 8.37 46.29-16.32-1.47-30.12-3.7-41.77-6.41-1.99-19.75-3.61-35.18-4.1-39.88H1469.71z" opacity=".4" class="color3b9ab7 svgShape"/><path fill="#3b3db7" d="M1394.73,1579.68c4.54,10.71,28.52,45.04,149.55,45.04c11.25,0,21.3-0.54,30.29-1.48       c-13.4,2.79-30.04,4.63-50.77,4.63c-143.39,0-150.56-48.19-150.56-48.19H1394.73z" opacity=".4" class="color3b9ab7 svgShape"/><path fill="#1c1c33" d="M1425.23,1578.18c0,0,13.27,163.64,10.61,169.48l9.68-0.36c5.39-32.63,25.81-85.7,26.12-110.07      c0.38-30.4-11.97-68.76-11.97-68.76C1446.94,1567.92,1435.24,1569.78,1425.23,1578.18z" class="color1c3033 svgShape"/><path fill="#d3e2d6" d="M1524.09,1575.31c56.05,59.81,115.72,121.86,173.23,177.07l-4.48,9.63      c-55.89-59.82-115.59-121.78-173.23-177.07L1524.09,1575.31z" class="colore2d3da svgShape"/><path fill="#121221" d="M1497.55,1555.46c0,0,33.39,7.33,64.11,26.32l-1.54,5.08C1560.12,1586.86,1529.68,1565.18,1497.55,1555.46      z" class="color121e21 svgShape"/><polygon fill="#d3e2d6" points="1547.81 1761.94 1558.85 1761.94 1691.21 1330.19 1680.18 1330.19" class="colore2d3da svgShape"/><path fill="#1c1c33" d="M1374.92,1578.58c0,0-16.2,111.79-26.61,168.4c0,0,4.62,0.32,7.91,0.32c11.7-34.74,49.27-88,53.72-112.47      c5.25-28.89,0.76-66.36,0.76-66.36L1374.92,1578.58z" class="color1c3033 svgShape"/><path fill="#121221" d="M1462.99 1642.71c0-.01 1.87-37.99-7.48-74.98 0 0 3.48.01 4.19.04 0 0 12.33 39.06 11.95 69.46-.31 24.38-20.73 77.44-26.12 110.07h-3.01C1445.65 1717.96 1461.94 1664.77 1462.99 1642.71zM1353.21 1747.3c11.42-41.03 43.73-92.12 48.45-113.39 4.73-21.27 2.76-25.21 5.12-55.54.26-3.32.26-6.21.12-8.83l3.82-2.2c0 0 4.46 38.61-.79 67.49-4.45 24.47-42.02 77.74-53.72 112.47C1355.06 1747.3 1354.08 1747.3 1353.21 1747.3z" class="color121e21 svgShape"/><defs><filter id="d" width="72.68" height="42.52" x="1425.14" y="1545.61" filterUnits="userSpaceOnUse"><feColorMatrix values="1 0 0 0 0  0 1 0 0 0  0 0 1 0 0  0 0 0 1 0"/></filter></defs><mask id="f" width="72.68" height="42.52" x="1425.14" y="1545.61" maskUnits="userSpaceOnUse"><g filter="url(#d)" fill="#000000" class="color000 svgShape"><linearGradient id="e" x1="2037.616" x2="2037.616" y1="1545.829" y2="1582.08" gradientTransform="matrix(-1 0 0 1 3499.098 0)" gradientUnits="userSpaceOnUse"><stop offset="0" stop-color="#ffffff" class="stopColorfff svgShape"/><stop offset=".093" stop-color="#e3e3e3" class="stopColore3e3e3 svgShape"/><stop offset=".431" stop-color="#838383" class="stopColor838383 svgShape"/><stop offset=".705" stop-color="#3d3d3d" class="stopColor3d3d3d svgShape"/><stop offset=".901" stop-color="#111111" class="stopColor111 svgShape"/><stop offset="1" stop-color="#000000" class="stopColor000000 svgShape"/></linearGradient><path fill="url(#e)" d="M1444.59,1545.61        c13.66,0,29.05,3.24,42.38,6.77c0.46,0.12,0.92,0.25,1.38,0.37c2.93,0.79,5.87,1.61,8.82,2.49c0,0,0.01,0,0.01,0        c0.13,0.07,0.26,0.14,0.38,0.22c0.77,9.38-0.05,22.64-3.43,32.67l-24.84-5.3c0,0-1.73-19.32-20.46-30        c-18.31-10.44-23.53,6.05-23.53,6.05C1423.75,1548.43,1434.06,1545.75,1444.59,1545.61z"/></g></mask><path fill="#121221" d="M1444.59,1545.61      c13.66,0,29.05,3.24,42.38,6.77c0.46,0.12,0.92,0.25,1.38,0.37c2.93,0.79,5.87,1.61,8.82,2.49c0,0,0.01,0,0.01,0      c0.13,0.07,0.26,0.14,0.38,0.22c0.77,9.38-0.05,22.64-3.43,32.67l-24.84-5.3c0,0-1.73-19.32-20.46-30      c-18.31-10.44-23.53,6.05-23.53,6.05C1423.75,1548.43,1434.06,1545.75,1444.59,1545.61z" mask="url(#f)" class="color121e21 svgShape"/><path fill="#aaaabf" d="M1584.1 1647.98c-.85 3.44.31 6.69 2.61 7.26 2.29.57 4.85-1.76 5.7-5.2.85-3.44-.31-6.69-2.61-7.26C1587.51 1642.21 1584.96 1644.54 1584.1 1647.98zM1614.83 1546.61c-.85 3.44.31 6.69 2.61 7.26s4.85-1.76 5.7-5.2c.85-3.44-.31-6.69-2.61-7.26C1618.24 1540.84 1615.69 1543.17 1614.83 1546.61z" class="colorbfaab5 svgShape"/><polygon fill="#f8e8d8" points="1455.43 1448.26 1403.36 1471.09 1448.17 1563.99 1500.37 1542.55" class="colorf8e8d8 svgShape"/><path fill="#fb870d" d="M1584.62,1443.19c22.06,6.3,25.61,126.65,7.23,130.32c-24.1,4.82-67.54-29.55-95.5-48l1.76-9.21       c0,0,17.67,0.34,72.47,20.83C1570.57,1537.14,1564.22,1437.36,1584.62,1443.19z" class="colorfb9f0d svgShape"/><path fill="#1f1f23" d="M1593.12,1566.16c4.38-0.87,7.38-8.08,9.14-18.57c-1.77,14.49-5.21,24.88-10.41,25.92       c-24.1,4.82-67.54-29.55-95.5-48l0.2-1.05C1524.09,1538.97,1569.29,1570.92,1593.12,1566.16z" opacity=".1" class="color231f20 svgShape"/><path fill="#f4be84" d="M1498.1,1516.31c0,0-16.88,0.19-26.8,1.9c0,0-6.3,0.57-10.81,2.88c-2.47,1.26-6.91,5.21-6.03,6.71        c0.89,1.5,3.65-1.36,7.78-3.32c2.34-1.11,7.97-1.84,8.19-1.47c0.22,0.37-4.75,1.74-6.84,3.2c-1.75,1.23-7.28,7.35-6.1,8.51        c1.58,1.55,3.43-1.44,8.21-5.33c1.71-1.19,7.7-2.83,7.98-2.36c0.28,0.47-4.27,2.16-5.76,3.85c-1.49,1.69-5.33,6.55-3.88,7.75        c1.44,1.2,3.91-2.61,6.53-5.01c1.41-1.29,6.65-3.59,6.84-3.47c0.19,0.12-2.03,1.68-3.04,3.42c-1.01,1.73-2.46,6.04-1.25,6.39        c1.21,0.35,1.97-1.67,4.71-5.06c0.85-1.05,4.21-3.37,4.21-3.37s10.41-0.2,16.01-6.43        C1498.04,1525.1,1501.03,1517.35,1498.1,1516.31z" class="colorf4be84 svgShape"/><path fill="#f4bb7f" d="M1547.48,1430.49l-1.38-9.59c-0.33-2.32-2.36-3.97-4.59-3.76l-24.14,2.32c-2.02,0.19-3.6,1.86-3.76,3.96       l-0.77,10c-0.14,1.77,0.77,3.44,2.28,4.27c5.32,2.92,18.32,7.99,30.91-3.22C1547.14,1433.5,1547.7,1431.99,1547.48,1430.49z" class="colorf4b17f svgShape"/><path fill="#fbcc9b" d="M1489.78,1379.41c0,0,1.8,16.22,3.23,24.84c1.43,8.62,4.46,28.38,22.16,28.39        c17.71,0.01,26.13-10.1,31.86-14.82c0,0,17.7-21.46,13.87-26.73c-3.83-5.27-9.56-22.02-26.79-19.15        C1516.89,1374.79,1489.78,1379.41,1489.78,1379.41z" class="colorfbcd9b svgShape"/><path fill="#1e1f52" d="M1508.88,1350.11c3.71-2.21,7.38-4.48,10.81-6.73c5.79-3.79,12.85-5.29,19.6-3.79        c13.98,3.12,19.96,14.87,19.96,14.87l6.7,4.79c6.7,4.79,6.15,22.48,0.4,32.59c-10.76,18.89-20.04,26.74-20.04,26.74        c-0.73,0.12-0.81-0.44-0.48-1.39c0.4-4.14-0.78-6.79-0.78-6.79c12.48-5.21,11.91-17.3,6.37-18.42        c-5.53-1.12-8.52,9.55-8.52,9.55l-1.27-3.42c-2.62-9.16,0.87-20.2,0.87-20.2s-0.29,0.21-0.82,0.55        c-0.02,0.04-0.03,0.08-0.05,0.13c0,0-3.83,5.97-11.2,6.93c0,0,0.99-1.13,2.25-2.65c-5.58,2.06-13.14,3.74-21.63,2.61        c0,0,5.57-1.4,9.63-3.69c-5.52,0.41-11.88,0.5-18.85-0.06c-23.93-1.92-29.39-16.97-29.39-16.97        C1484.7,1361.81,1495.05,1358.35,1508.88,1350.11z" class="color221e52 svgShape"/><g fill="#000000" class="color000 svgShape"><path fill="#19192d" d="M1356.98,1756.65l-23.48,0.28c0,0-0.83-4.85,2.53-4.6s7.47-2.2,9.78-4.63c2.31-2.43,9.45-1.45,10.35-0.12      C1357.07,1748.9,1356.98,1756.65,1356.98,1756.65z" class="color19232d svgShape"/></g><g fill="#000000" class="color000 svgShape"><path fill="#19192d" d="M1446.84,1755.52l-23.48,0.28c0,0-0.83-4.85,2.53-4.6c3.35,0.25,7.47-2.2,9.78-4.63      c2.31-2.43,9.45-1.45,10.35-0.12S1446.84,1755.52,1446.84,1755.52z" class="color19232d svgShape"/></g></g></g></svg>