<svg xmlns="http://www.w3.org/2000/svg" data-name="Layer 1" viewBox="0 0 1159 771"><g data-name="2" fill="#000000" class="color000 svgShape"><path fill="#cacbfb" d="M1021.84,490.45c47.5-108.5-76.48-153.18-140.21-103.28s-96.17,53.56-83.42,2.44C829.27,265,794.73,134,625.56,59.77s-309,36.9-335,130.92S253.16,311.18,234,296.57c-71.91-54.93-166-59.33-124.26,120.49s139,288.44,139,288.44,690.77-3.1,715.1-8,55.62-19.47,89.22-104.67S974.33,599,1021.84,490.45Z" class="colorcae3fb svgShape"/><ellipse cx="579" cy="705.5" fill="#53d86a" rx="435" ry="30" class="colore9f5fb svgShape"/><path fill="#53d86a" d="M216 202.09a14.62 14.62 0 00-4.1.59 16.09 16.09 0 00-16-18.42 16.14 16.14 0 00-10.76 4.11 23.66 23.66 0 00-45.34 9.48 24 24 0 00.12 2.41 16.83 16.83 0 10-7.65 31.82h85.24V232A15 15 0 00216 202.09zM895.82 113.42a17.45 17.45 0 00-4.77.68 18.32 18.32 0 00.2-2.58 18.8 18.8 0 00-31.31-14 27.48 27.48 0 00-52.67 11 26 26 0 00.14 2.8 19.55 19.55 0 10-8.89 37h99v-.09a17.41 17.41 0 00-1.71-34.74zM858.24 235.74a25.39 25.39 0 017 1 27.42 27.42 0 0145.42-24.26 40.12 40.12 0 0176.88 16.07c0 1.38-.07 2.74-.2 4.09a28.54 28.54 0 1113 53.95H855.74v-.13a25.42 25.42 0 012.5-50.71zM369.21 113.83a21.39 21.39 0 00-5.92.84 24.1 24.1 0 00.24-3.2A23.34 23.34 0 00324.64 94a34.14 34.14 0 00-65.43 13.67 33.38 33.38 0 00.17 3.48 24.28 24.28 0 10-11 45.91h123V157a21.63 21.63 0 00-2.13-43.15z" class="colore9f5fb svgShape"/><path fill="#ffffff" d="M528.2 376l.14.15.11-.1a32.2 32.2 0 0013.93-.3 32.25 32.25 0 0012.51-6.08l.15.05.06-.22a32.58 32.58 0 00-13.84-57.32l-.13-.13-.09.09a32.74 32.74 0 00-26.45 6.38l-.14 0-.06.19a32.67 32.67 0 00-7.41 8.44A32.59 32.59 0 00528.2 376zm-13.65-42a73.71 73.71 0 0016.14-2l2.71 11.27-17.65 4.26A62.46 62.46 0 01514.55 333.93zm40.74 20.46a80 80 0 00-16.46 1.8l-2.73-11.31 17.7-4.26A54 54 0 01555.29 354.39zm-19.71-11.68l-2.72-11.29A78.85 78.85 0 00548 325.65a62.88 62.88 0 015.21 12.8zm-1.65 2.7l2.72 11.29a74.31 74.31 0 00-15.57 5.74 53.85 53.85 0 01-4.84-12.77zm-13.74 20a53.89 53.89 0 005.31 7.53 30.68 30.68 0 01-6.57-3 31.85 31.85 0 01-2.87-2A48.34 48.34 0 01520.19 365.41zm9.15 8.49a53.2 53.2 0 01-7.17-9.53 71.42 71.42 0 0115-5.51l3.59 14.91A30.07 30.07 0 01529.34 373.9zm10-15.55a77.84 77.84 0 0115.84-1.72 53.46 53.46 0 01-2 11.52 29.94 29.94 0 01-10.21 5.09zm18.08-1.7c1.55 0 3.15.11 4.77.24a30.49 30.49 0 01-6.06 8.65A56.24 56.24 0 00557.43 356.65zm5.69-1.93c-1.9-.17-3.77-.27-5.59-.31A55.42 55.42 0 00556 340.09l8.5-2A30.21 30.21 0 01563.12 354.72zm-7.71-16.79a64.92 64.92 0 00-5.39-13.3c1.7-.91 3.42-1.91 5.14-3a30 30 0 018.78 14.24zm-6.49-15.26a66.94 66.94 0 00-5.08-7.53 30.4 30.4 0 016.73 3.05 32.12 32.12 0 012.79 1.93Q551.13 321.5 548.92 322.67zm-8.77-8.44a57.58 57.58 0 016.78 9.47 77.4 77.4 0 01-14.6 5.52l-3.58-14.87a30.25 30.25 0 016.06-.62A28.92 28.92 0 01540.15 314.23zm-10 15.54a72.54 72.54 0 01-15.53 1.92A59 59 0 01516.34 320a30.13 30.13 0 0110.23-5.09zm-17.76 1.91c-2.29-.06-4-.22-5.16-.36a29.47 29.47 0 011.65-3.08 30.42 30.42 0 014.6-5.81A66.56 66.56 0 00512.4 331.68zm-6.06 1.78a52.3 52.3 0 006 .46A65.7 65.7 0 00513.58 348L505 350.07A30.08 30.08 0 01506.34 333.46zm7.73 16.73a56.2 56.2 0 005 13.29 49.31 49.31 0 00-4.81 3 30.05 30.05 0 01-8.72-14.2zM622 462.28a1.08 1.08 0 00-.68.56s-.39.76-1.06 2.11a1.25 1.25 0 00-.09.76 1.17 1.17 0 00.61.78 1.1 1.1 0 00.87.06h0a1.11 1.11 0 00.66-.58c.53-1.06.88-1.74 1-2l.05-.1a1.14 1.14 0 00.07-.87 1.13 1.13 0 00-1.44-.75zM604 513.05a28.74 28.74 0 00.08 4.78l0 .12a1.13 1.13 0 001.24.89.69.69 0 00.24-.05 1.14 1.14 0 00.78-1.21 27.5 27.5 0 01-.07-4.4 1.15 1.15 0 10-2.29-.13zM606.79 508.73c.22-1.38.51-2.88.86-4.44a1.15 1.15 0 10-2.24-.51c-.36 1.58-.66 3.12-.89 4.59h0a1 1 0 000 .42 1.15 1.15 0 00.94.89 1.22 1.22 0 00.54 0A1.16 1.16 0 00606.79 508.73zM607.38 521.66a1.08 1.08 0 00-.64-.6 1.12 1.12 0 00-.88 0h0a1.15 1.15 0 00-.64 1.29.79.79 0 00.08.23 8.86 8.86 0 003.34 3.95 1.09 1.09 0 00.86.16l.11 0a1.08 1.08 0 00.61-.48 1.11 1.11 0 00.15-.87 1.08 1.08 0 00-.5-.71A6.86 6.86 0 01607.38 521.66zM600.7 503.09a18.84 18.84 0 013-.42 1.27 1.27 0 00.28-.06 1.14 1.14 0 00-.43-2.23 22.19 22.19 0 00-3.3.46c-.48.11-1 .23-1.45.37a1.15 1.15 0 10.63 2.21C599.83 503.29 600.27 503.18 600.7 503.09zM581 515a1.17 1.17 0 00-.74.49 35.71 35.71 0 00-2.4 4.08h0a1.12 1.12 0 00-.1.76 1.16 1.16 0 001.48.85h0a1.14 1.14 0 00.66-.58 34.13 34.13 0 012.25-3.82 1.11 1.11 0 00.18-.87 1.15 1.15 0 00-.48-.73A1.18 1.18 0 00581 515zM610.08 491.91a1.17 1.17 0 001.47-.71c.51-1.44 1-2.88 1.58-4.28a1.16 1.16 0 00-.67-1.49 1.1 1.1 0 00-.87 0 1.14 1.14 0 00-.61.63c-.55 1.43-1.08 2.88-1.6 4.35h0a1.15 1.15 0 00.7 1.46zM575.36 541.29a1.14 1.14 0 00-1 1.28c.19 1.52.46 3.07.79 4.63h0a1.16 1.16 0 001.37.88l.11 0a1.19 1.19 0 00.61-.47 1.16 1.16 0 00.16-.87c-.32-1.48-.58-3-.77-4.45A1.16 1.16 0 00575.36 541.29zM617.9 525.44l-.12 0a15.79 15.79 0 01-2.41.32 13.54 13.54 0 01-1.69 0 1.18 1.18 0 00-.84.28 1.13 1.13 0 00-.39.78 1.22 1.22 0 000 .33 1.17 1.17 0 001 .9 16.27 16.27 0 002 0 18 18 0 002.77-.36l.15 0 .1 0a1.17 1.17 0 00.78-1.25v-.24l-.1-.08A1.16 1.16 0 00617.9 525.44zM579.34 556.82a1.16 1.16 0 00.66-1.49c-.53-1.37-1-2.8-1.46-4.26a1.18 1.18 0 00-.56-.68 1.1 1.1 0 00-.87-.09h0a1.13 1.13 0 00-.76 1.43c.44 1.48.95 3 1.51 4.43a1.15 1.15 0 001.43.68zM576 523.91a34.72 34.72 0 00-1.25 4.57 1.29 1.29 0 000 .48 1.16 1.16 0 00.9.88 1.16 1.16 0 001.35-.9 35.32 35.32 0 011.17-4.29 1.15 1.15 0 00-.72-1.45A1.14 1.14 0 00576 523.91zM587.34 508.08a1.12 1.12 0 00-.82.29c-.36.33-.72.66-1.08 1-.79.76-1.54 1.55-2.24 2.34a1.14 1.14 0 00-.27 1 1.2 1.2 0 00.36.6 1.14 1.14 0 001.12.23 1.19 1.19 0 00.51-.32c.66-.76 1.37-1.5 2.12-2.22.34-.33.68-.65 1-.95a1.15 1.15 0 00.08-1.62A1.13 1.13 0 00587.34 508.08zM575.36 532.11a1.16 1.16 0 00-1.24 1 45.9 45.9 0 00-.12 4.72h0l0 .21a1.16 1.16 0 001.15.91 1.61 1.61 0 00.33-.06 1.15 1.15 0 00.79-1.12 44.11 44.11 0 01.11-4.47A1.15 1.15 0 00575.36 532.11zM594.29 503a32.89 32.89 0 00-4.08 2.45h0a1.16 1.16 0 00-.47 1.18 1.33 1.33 0 00.19.42 1.17 1.17 0 001.29.44 1.3 1.3 0 00.31-.16 29 29 0 013.79-2.27 1.19 1.19 0 00.58-.68 1.11 1.11 0 00-.07-.86 1.13 1.13 0 00-.67-.58A1.1 1.1 0 00594.29 503zM615.64 504.57h0a1.17 1.17 0 00.29 1.6 20.63 20.63 0 013.27 2.86 1.16 1.16 0 001.2.31 1.07 1.07 0 00.42-.25 1.16 1.16 0 00.07-1.62 22.44 22.44 0 00-3.64-3.18A1.15 1.15 0 00615.64 504.57zM608.35 500.61h-.15l0 0a1.16 1.16 0 00.54-.69c.38-1.37.82-2.84 1.31-4.36a1.17 1.17 0 00-.07-.88 1.12 1.12 0 00-.67-.56 1.16 1.16 0 00-.88.06 1.14 1.14 0 00-.57.68c-.48 1.5-.93 3-1.33 4.44a1.06 1.06 0 000 .56 1.16 1.16 0 00.81.86 1.26 1.26 0 00.27 0l-.14.08a1.17 1.17 0 00-.46.74 1.15 1.15 0 00.94 1.33 19 19 0 014.16 1.2 1.13 1.13 0 00.79 0 1.2 1.2 0 00.71-.65 1.21 1.21 0 000-.88A1.1 1.1 0 00613 502 21.14 21.14 0 00608.35 500.61zM618.9 468.51a1.16 1.16 0 00-.65.6c-.59 1.25-1.24 2.66-1.93 4.19a1.18 1.18 0 00-.08.72 1.15 1.15 0 00.65.8 1.14 1.14 0 00.83.05l0 0a1.11 1.11 0 00.64-.6c.69-1.52 1.33-2.92 1.92-4.17a1.14 1.14 0 00-.55-1.52A1.13 1.13 0 00618.9 468.51zM614.46 477.53c-.59 1.37-1.19 2.8-1.78 4.27h0a1.18 1.18 0 000 .67 1.14 1.14 0 002.18.19c.6-1.45 1.19-2.87 1.77-4.22a1.15 1.15 0 00-.6-1.51A1.15 1.15 0 00614.46 477.53zM622.19 510.94h0a1.16 1.16 0 00-.55 1.25 1.13 1.13 0 00.13.32 15 15 0 011.59 3.94 1.14 1.14 0 001.38.85l.09 0a1.19 1.19 0 00.76-1.36 16.89 16.89 0 00-1.83-4.55A1.15 1.15 0 00622.19 510.94zM624.83 519.62a1.11 1.11 0 00-.87.15 1.14 1.14 0 00-.51.72 5.81 5.81 0 01-1.93 3.25 1.16 1.16 0 00-.37 1.12 1.13 1.13 0 00.25.5 1.14 1.14 0 001.23.35 1.26 1.26 0 00.39-.22 8.19 8.19 0 002.68-4.5A1.15 1.15 0 00624.83 519.62zM581.81 559.54a1.15 1.15 0 00-1.54-.54 1.14 1.14 0 00-.62 1.28h0a.85.85 0 00.09.24c.62 1.31 1.06 2.07 1.11 2.16a1.14 1.14 0 001.35.51.81.81 0 00.21-.1 1.14 1.14 0 00.42-1.57S582.41 560.8 581.81 559.54z" class="colorfff svgShape"/><path fill="#ffffff" d="M606.54 456.29l15.43 5 .73.26 4-5.65-2.11 5.87-.19.66 12.7 10.78.51-37.79zm28.58 12.62l-8.38-7.11 6.88-19.2-11.7 16.58-10.79-3.52 24.39-16.36zM759.47 273.87a25.93 25.93 0 00-49.66 13.79 17.43 17.43 0 01-2.79 11.6 3 3 0 00-1 0 3 3 0 00-1.95 1.2l-3 4.14c-.09.12-.16.25-.24.37a.41.41 0 00-.09.1l-.24.41a11.75 11.75 0 00-1.58 4.52l0 .3s0 0 0 .06a11.93 11.93 0 00.08 3 11.74 11.74 0 004.74 7.7l5.61 4.06s0 0 0 0l.15.1 0 0 0 0 .24.16c.16.11.32.2.49.3s.4.26.61.37a12.8 12.8 0 001.3.61 11.78 11.78 0 0013.83-4.1l3-4.14a3 3 0 00.53-2.23 3.26 3.26 0 00-.23-.75 17.47 17.47 0 0110.21-6.36A26 26 0 00761 279.45 26.32 26.32 0 00759.47 273.87zm-53.13 27.38h0a1 1 0 01.34 0l.07 0a1 1 0 01.28.13L727.16 316a1 1 0 01.38.61.93.93 0 01-.18.72l-3 4.14c-.19.26-.4.51-.61.75l0 .05A9.79 9.79 0 01713.31 325l-.21-.08-.59-.23-.47-.23-.21-.11 1.45-2a3 3 0 00.55-2.29 3.06 3.06 0 00-1.23-2L701 309.66l0-.16q.07-.36.18-.72c0-.09 0-.18.08-.26.1-.3.21-.59.33-.88l0-.06 12.38 9a3.07 3.07 0 003.59-5l-12.56-9.09.61-.85A1 1 0 01706.34 301.25zm10.13 12a1 1 0 01.23 1.44 1 1 0 01-.67.41 1 1 0 01-.77-.18L702.7 305.8l0 0 1.19-1.65zm-5.06 6.45a1 1 0 01.41.68 1 1 0 01-.18.77l-1.52 2.09-5.22-3.78a9.69 9.69 0 01-3.92-6.38c-.05-.33-.09-.67-.11-1zm13.5-7.83l10.49-14.51a2.45 2.45 0 00-.62-3.4 2.55 2.55 0 00-1.78-.48 2.33 2.33 0 00-1.65.95l-10.49 14.51L716 305.37l10.57-14.62a2.32 2.32 0 00.39-1.86 2.57 2.57 0 00-1-1.54 2.53 2.53 0 00-1.78-.48 2.31 2.31 0 00-1.64.95l-10.57 14.62-3.08-2.23c2-3.08 3.71-8.26 3-12.88a23.9 23.9 0 0145.76-12.7 24 24 0 011.43 5.15 23.93 23.93 0 01-19.81 27.37A19.82 19.82 0 00727.9 314zM755.12 251.5l.84.61.11 0a.39.39 0 00.26 0 .5.5 0 00.33-.2l11.77-16.42a.5.5 0 00-.12-.7l-.83-.6a.5.5 0 00-.7.11L755 250.81a.52.52 0 00-.08.37A.46.46 0 00755.12 251.5zM729 246.11a.57.57 0 00.18.12.47.47 0 00.17 0l1 0a.5.5 0 00.51-.49l.45-20.2a.52.52 0 00-.14-.36.47.47 0 00-.35-.15l-1 0a.51.51 0 00-.51.49l-.45 20.2A.54.54 0 00729 246.11zM708.7 257.74l-12.94-15.52a.49.49 0 00-.7-.06l-.79.66a.46.46 0 00-.18.34.52.52 0 00.11.36l12.94 15.53a.48.48 0 00.2.14.32.32 0 00.14 0 .44.44 0 00.36-.11l.79-.66A.51.51 0 00708.7 257.74zM788.22 305.86l-18.39-8.37a.46.46 0 00-.38 0 .51.51 0 00-.28.26l-.43.94a.5.5 0 00.25.66l18.39 8.37h0a.47.47 0 00.35 0 .48.48 0 00.28-.26l.43-.94A.51.51 0 00788.22 305.86zM789.76 265.6a.5.5 0 000-.38l-.37-1a.51.51 0 00-.65-.28l-18.83 7.33a.5.5 0 00-.28.64l.37 1a.53.53 0 00.29.28.5.5 0 00.36 0l18.83-7.33A.51.51 0 00789.76 265.6zM191.38 323.76L185 320.2c0-.57.05-1.14.05-1.69s0-1.13-.05-1.7l6.4-3.55a.64.64 0 00.31-.66l-.07-.38h0a35.33 35.33 0 00-1.56-5.81l-.12-.34a.65.65 0 00-.59-.41l-7.32.12a28.3 28.3 0 00-1.7-2.93l3.76-6.28a.64.64 0 00-.06-.72l-.23-.27a36 36 0 00-4.28-4.28l-.27-.23a.63.63 0 00-.73-.06l-6.27 3.76a30.56 30.56 0 00-2.93-1.7l.12-7.32a.63.63 0 00-.41-.59l-.34-.12a34.58 34.58 0 00-5.85-1.57l-.34-.06a.62.62 0 00-.66.31l-3.56 6.4a27.23 27.23 0 00-3.38 0l-3.56-6.4a.62.62 0 00-.65-.31l-.35.06a35.09 35.09 0 00-5.85 1.57l-.33.12a.62.62 0 00-.42.59l.12 7.32a30.56 30.56 0 00-2.93 1.7L134.66 291a.63.63 0 00-.73.06l-.27.23a36 36 0 00-4.28 4.28l-.23.27a.62.62 0 00-.06.72l3.76 6.28a27.48 27.48 0 00-1.69 2.93l-7.33-.12a.66.66 0 00-.59.41l-.12.34a35.7 35.7 0 00-1.57 5.84l-.06.35a.64.64 0 00.31.66l6.4 3.55c0 .57 0 1.14 0 1.7s0 1.13 0 1.69l-6.4 3.56a.63.63 0 00-.31.65l.06.35a36.09 36.09 0 001.57 5.85l.12.33a.61.61 0 00.6.42l7.32-.12a27.48 27.48 0 001.69 2.93l-3.76 6.27a.63.63 0 00.06.73l.23.27a36 36 0 004.28 4.28l.27.23a.65.65 0 00.73.06l6.27-3.76a28.5 28.5 0 002.93 1.69l-.12 7.32a.62.62 0 00.42.6l.33.12a35.06 35.06 0 005.85 1.56l.35.07a.62.62 0 00.65-.32l3.56-6.4a27.23 27.23 0 003.38 0l3.56 6.4a.61.61 0 00.54.33h.11l.35-.07a34.81 34.81 0 005.85-1.56l.34-.12a.63.63 0 00.41-.6l-.12-7.32a27.48 27.48 0 002.93-1.69l6.27 3.76a.65.65 0 00.73-.06l.27-.23a36 36 0 004.28-4.28l.23-.28a.63.63 0 00.06-.72l-3.76-6.27a30.56 30.56 0 001.7-2.93l7.32.12a.63.63 0 00.59-.42l.12-.33a35.55 35.55 0 001.57-5.85l.06-.35A.63.63 0 00191.38 323.76zm-3.17 5.33L181 329a.7.7 0 00-.57.36l-.14.29a26.21 26.21 0 01-2.23 3.87l-.19.26a.62.62 0 000 .68l3.69 6.16a34.15 34.15 0 01-2.88 2.89l-6.16-3.69a.64.64 0 00-.69 0l-.26.18a26 26 0 01-3.86 2.24l-.3.14a.6.6 0 00-.35.57l.11 7.19a34.06 34.06 0 01-3.93 1.06l-3.5-6.29a.62.62 0 00-.6-.32l-.32 0a27.67 27.67 0 01-4.46 0l-.32 0a.63.63 0 00-.6.32L150 351.19a33.68 33.68 0 01-3.94-1.06l.12-7.19a.63.63 0 00-.36-.57l-.29-.14a25.15 25.15 0 01-3.87-2.24l-.26-.18a.62.62 0 00-.68 0l-6.17 3.69a34.15 34.15 0 01-2.88-2.89l3.69-6.16a.62.62 0 000-.68l-.19-.26a26.07 26.07 0 01-2.23-3.87l-.14-.29a.65.65 0 00-.57-.36l-7.19.12a32.66 32.66 0 01-1.06-3.94l6.29-3.49a.62.62 0 00.32-.6l0-.32c-.06-.76-.09-1.51-.09-2.23s0-1.48.09-2.24l0-.32a.6.6 0 00-.32-.59l-6.29-3.5a33.68 33.68 0 011.06-3.94l7.18.12a.61.61 0 00.58-.36l.14-.29a26.49 26.49 0 012.23-3.86l.19-.27a.62.62 0 000-.68l-3.69-6.16a34 34 0 012.88-2.88l6.17 3.69a.62.62 0 00.68 0l.26-.19a26.07 26.07 0 013.87-2.23l.29-.14a.64.64 0 00.36-.58l-.12-7.19a33.12 33.12 0 013.94-1.05l3.49 6.29a.63.63 0 00.59.32l.33 0a26.69 26.69 0 014.47 0l.31 0a.63.63 0 00.6-.32l3.5-6.29a33.48 33.48 0 013.93 1.05l-.11 7.19a.62.62 0 00.35.58l.3.14a25.61 25.61 0 013.86 2.23l.26.18a.62.62 0 00.69 0l6.16-3.69a35.57 35.57 0 012.88 2.88l-3.69 6.16a.62.62 0 000 .68l.19.27a25.7 25.7 0 012.23 3.87l.14.29a.62.62 0 00.58.35l7.18-.12a32.3 32.3 0 011.06 3.94l-6.29 3.5a.62.62 0 00-.32.59l0 .32c.06.76.09 1.51.09 2.24s0 1.48-.09 2.23l0 .32a.63.63 0 00.32.6l6.29 3.49A33.16 33.16 0 01188.21 329.09z" class="colorfff svgShape"/><path fill="#ffffff" d="M156.59,303.44a15.07,15.07,0,1,0,15.07,15.07A15.09,15.09,0,0,0,156.59,303.44Zm0,27.89a12.83,12.83,0,1,1,12.83-12.82A12.84,12.84,0,0,1,156.59,331.33Z" class="colorfff svgShape"/><path fill="#bfc0f6" d="M699.74,100.19,682.09,287.9a8,8,0,0,1-7.84,7.21H431a6.5,6.5,0,0,1-5.24-2.51,6.63,6.63,0,0,1-1.34-4.7L442,100.19a8,8,0,0,1,7.83-7.2H693.16A6.5,6.5,0,0,1,699.74,100.19Z" class="colorbfd8f6 svgShape"/><path fill="#53d86a" d="M691.66,100.19,674,287.9a8,8,0,0,1-7.84,7.21H422.9a6.5,6.5,0,0,1-6.58-7.21L434,100.19A8,8,0,0,1,441.8,93H685.09A6.49,6.49,0,0,1,691.66,100.19Z" class="colore9f5fb svgShape"/><path fill="#000282" d="M699.74,100.19l-.61,6.92H676.75L678,93h15.17A6.51,6.51,0,0,1,699.74,100.19Z" class="color002382 svgShape"/><path fill="#0003aa" d="M691.66,100.19l-.6,6.92-257.67-.31.58-6.61A8,8,0,0,1,441.8,93H685.09A6.5,6.5,0,0,1,691.66,100.19Z" class="color002caa svgShape"/><path fill="#ffffff" d="M681.14 96.78a.5.5 0 00-.74 0l-2.32 2.41-2.14-2.42a.5.5 0 00-.74 0 .61.61 0 000 .8l2.15 2.42L675 102.4a.61.61 0 000 .8.5.5 0 00.74 0l2.32-2.42 2.16 2.43a.49.49 0 00.73 0 .6.6 0 000-.8L678.79 100l2.32-2.42A.6.6 0 00681.14 96.78zM667.59 96.09a3.92 3.92 0 00-3.77 3.85 3.55 3.55 0 003.45 3.86A3.91 3.91 0 00671 100 3.57 3.57 0 00667.59 96.09zm-.29 6.84a2.76 2.76 0 01-2.67-3 3 3 0 012.92-3 2.77 2.77 0 012.68 3A3 3 0 01667.3 102.93zM660.09 102.4h-6.72a.44.44 0 00-.44.44.41.41 0 00.4.45h6.72a.45.45 0 00.44-.45A.41.41 0 00660.09 102.4z" class="colorfff svgShape"/><path fill="#006ae9" d="M572.52,120.58l-1.8-.06a6.71,6.71,0,0,0-6.62,5.84L547,274.36a5.27,5.27,0,0,0,5.2,6l1.79.06a6.7,6.7,0,0,0,6.58-5.85l17.15-148A5.28,5.28,0,0,0,572.52,120.58Z" class="color0066e9 svgShape"/><path fill="#167ffc" d="M552.09,123l-66.17-1.06a13.93,13.93,0,0,0-13.76,12.19L457.77,263.65a11,11,0,0,0,10.91,12.61l65.7,1.05a14,14,0,0,0,13.73-12.19L563,135.6A11,11,0,0,0,552.09,123Z" class="color007fe2 svgShape"/><path fill="#006ae9" d="M643.86,124.75l-52.48-1.1a12.77,12.77,0,0,0-12.59,11.1L563.52,266.48A10,10,0,0,0,573.41,278l52.11,1.11A12.77,12.77,0,0,0,638.07,268l15.71-131.73A10,10,0,0,0,643.86,124.75Z" class="color0066e9 svgShape"/><path fill="#167ffc" d="M641,124.65l-56-1.11a12.78,12.78,0,0,0-12.59,11.11L557.2,266.38a10,10,0,0,0,9.88,11.48l57.3,1.1c6.19.1,10.08-4.87,10.82-11.11l15.69-131.72A10,10,0,0,0,641,124.65Z" class="color007fe2 svgShape"/><path fill="#167ffc" d="M570.49,120.52l-3.54-.06a6.69,6.69,0,0,0-6.62,5.84l-17,148a5.26,5.26,0,0,0,5.2,6l3.51.06a6.69,6.69,0,0,0,6.59-5.84l17.13-148A5.28,5.28,0,0,0,570.49,120.52Z" class="color007fe2 svgShape"/><path fill="#bfc0f6" d="M474.85,136.45l-6,123.5-19.75,2.2-.84,7.5,11.69.33s57.68-23.5,95.53,1.46L571,137.91S518.42,112,474.85,136.45Z" class="colorbfd8f6 svgShape"/><path fill="#bfc0f6" d="M571,137.91,556.62,261.23l-21.17,2.37-.87,7.49,20.86.35c43.47-23.6,72.19,1.47,72.19,1.47l16-133.53C605.84,113.54,571,137.91,571,137.91Z" class="colorbfd8f6 svgShape"/><path fill="#ffffff" d="M448.22,269.65s36.32-17.37,70.18-6.39a64.66,64.66,0,0,1,16.18,7.84L550,137.56s-44-25.94-86.89-1.44Z" class="colorfff svgShape"/><path fill="#ffffff" d="M534.58,271.1a80.41,80.41,0,0,1,20.9-8c35-8.07,65.46,9.45,65.46,9.45L636.85,139c-37.1-25.83-86.87-1.45-86.87-1.45Z" class="colorfff svgShape"/><polygon fill="#bfc0f6" points="636.85 139.01 643.58 139.38 627.63 272.91 620.94 272.54 636.85 139.01" class="colorbfd8f6 svgShape"/><polygon fill="#bfc0f6" points="533.64 270.48 549.06 136.66 551.13 136.44 535.6 271.11 534.59 271.09 533.64 270.48" class="colorbfd8f6 svgShape"/><path fill="#0003aa" d="M552.44,155.69a1,1,0,0,0,.38-.08,87.09,87.09,0,0,1,52.2-6.15,84.65,84.65,0,0,1,22.67,7.38.88.88,0,0,0,1.19-.36.87.87,0,0,0-.34-1.19c-.37-.21-9.21-5-23.12-7.56A89,89,0,0,0,552.11,154a.88.88,0,0,0,.33,1.69Z" class="color002caa svgShape"/><path fill="#0003aa" d="M551.1 166.12a.84.84 0 00.38-.08 87.07 87.07 0 0152.17-6.15 84.49 84.49 0 0122.66 7.38.88.88 0 001.19-.36.87.87 0 00-.33-1.19 84.39 84.39 0 00-23.11-7.55 88.77 88.77 0 00-53.29 6.27.88.88 0 00.33 1.68zM465.16 156.5a.84.84 0 00.38-.08 87 87 0 0152.17-6.14 84.8 84.8 0 0122.7 7.38.89.89 0 00.84-1.56 84.93 84.93 0 00-23.14-7.55 88.86 88.86 0 00-53.28 6.27.89.89 0 00-.45 1.17A.85.85 0 00465.16 156.5z" class="color002caa svgShape"/><path fill="#0003aa" d="M463.86,166.94a1,1,0,0,0,.38-.08,86.87,86.87,0,0,1,52.14-6.15,84.64,84.64,0,0,1,22.69,7.38.89.89,0,0,0,.85-1.56A84.93,84.93,0,0,0,516.78,159a88.77,88.77,0,0,0-53.25,6.27.89.89,0,0,0-.45,1.17A.87.87,0,0,0,463.86,166.94Z" class="color002caa svgShape"/><path fill="#0003aa" d="M462.56 177.37a.91.91 0 00.39-.08 86.85 86.85 0 0152.11-6.15 84.64 84.64 0 0122.68 7.38.88.88 0 00.85-1.55 84.54 84.54 0 00-23.13-7.55 88.55 88.55 0 00-53.23 6.27.88.88 0 00-.45 1.16A.9.9 0 00462.56 177.37zM549.76 176.55a1 1 0 00.41-.09c16.08-7.89 32-8.53 42.44-7.68a79.07 79.07 0 0119.14 3.8.88.88 0 001.13-.52.86.86 0 00-.5-1.13 78.64 78.64 0 00-19.54-3.9c-10.72-.88-27-.24-43.43 7.85a.9.9 0 00-.42 1.18A.85.85 0 00549.76 176.55zM469.37 145.25a1 1 0 00.4-.09c16.1-7.91 32-8.54 42.54-7.67a78.18 78.18 0 0119.11 3.79.89.89 0 001.14-.52.87.87 0 00-.51-1.13 79.12 79.12 0 00-19.58-3.9c-10.74-.88-27-.24-43.46 7.85a.88.88 0 00-.41 1.18A.87.87 0 00469.37 145.25zM548.43 187a.83.83 0 00.37-.08 86.92 86.92 0 0152.13-6.14 84.34 84.34 0 0122.63 7.38.89.89 0 00.86-1.56A84.64 84.64 0 00601.33 179a88.65 88.65 0 00-53.23 6.27.89.89 0 00-.45 1.17A.85.85 0 00548.43 187zM545.75 207.85a.9.9 0 00.38-.08 86.75 86.75 0 0152.07-6.15A84.18 84.18 0 01620.81 209a.89.89 0 001.2-.36.88.88 0 00-.34-1.19 84.09 84.09 0 00-23.07-7.55 88.42 88.42 0 00-53.18 6.27.88.88 0 00-.45 1.16A.87.87 0 00545.75 207.85z" class="color002caa svgShape"/><path fill="#0003aa" d="M544.41,218.28a.87.87,0,0,0,.38-.08,86.65,86.65,0,0,1,52-6.15,84.6,84.6,0,0,1,22.61,7.38.88.88,0,0,0,1.19-.36.87.87,0,0,0-.34-1.19,84.34,84.34,0,0,0-23-7.55,88.35,88.35,0,0,0-53.16,6.27.89.89,0,0,0-.45,1.16A.84.84,0,0,0,544.41,218.28Z" class="color002caa svgShape"/><path fill="#0003aa" d="M543.07 228.71a.79.79 0 00.42-.1c28.63-15 55.08-5.54 55.34-5.44a.89.89 0 001.13-.53.88.88 0 00-.51-1.13 64 64 0 00-17.29-3 76.49 76.49 0 00-39.46 8.59.89.89 0 00-.38 1.19A.83.83 0 00543.07 228.71zM541.73 239.15a1 1 0 00.38-.08 86.53 86.53 0 0152-6.15 84 84 0 0122.59 7.38.88.88 0 00.85-1.55c-.37-.21-9.18-5-23-7.55a88.28 88.28 0 00-53.12 6.26.89.89 0 00-.44 1.17A.87.87 0 00541.73 239.15z" class="color002caa svgShape"/><path fill="#0003aa" d="M540.4 249.58a.83.83 0 00.37-.08 86.46 86.46 0 0152-6.15 83.87 83.87 0 0122.57 7.38.88.88 0 001.19-.36.86.86 0 00-.34-1.19c-.36-.2-9.17-5-23-7.55a88.1 88.1 0 00-53.08 6.27.88.88 0 00.33 1.68zM459.69 202.22a.9.9 0 00.42-.1 74.89 74.89 0 0138.51-8.4 64.2 64.2 0 0116.88 2.95.88.88 0 00.61-1.65A63.91 63.91 0 00498.79 192a76.54 76.54 0 00-39.48 8.6.89.89 0 00-.38 1.19A.9.9 0 00459.69 202.22zM458.4 212.65a.83.83 0 00.37-.08 86.71 86.71 0 0152-6.15 84.28 84.28 0 0122.64 7.39.89.89 0 00.85-1.56 84.64 84.64 0 00-23.09-7.55A88.45 88.45 0 00458.06 211a.88.88 0 00-.44 1.17A.85.85 0 00458.4 212.65z" class="color002caa svgShape"/><path fill="#0003aa" d="M457.1,223.09a.92.92,0,0,0,.38-.09,86.51,86.51,0,0,1,52-6.14,84.34,84.34,0,0,1,22.63,7.38.89.89,0,0,0,.84-1.56,84.49,84.49,0,0,0-23.07-7.55,88.38,88.38,0,0,0-53.13,6.27.89.89,0,0,0-.44,1.17A.87.87,0,0,0,457.1,223.09Z" class="color002caa svgShape"/><path fill="#0003aa" d="M455.8,233.52a1,1,0,0,0,.38-.08,86.46,86.46,0,0,1,52-6.15,84.18,84.18,0,0,1,22.61,7.38.88.88,0,0,0,.85-1.55,84.09,84.09,0,0,0-23.07-7.55,88.2,88.2,0,0,0-53.1,6.26A.9.9,0,0,0,455,233,.87.87,0,0,0,455.8,233.52Z" class="color002caa svgShape"/><path fill="#0003a7" d="M378.52,693.67a5.9,5.9,0,0,1-5.91,5.91H305.76V687.77h66.85A5.9,5.9,0,0,1,378.52,693.67Z" class="color002ca7 svgShape"/><path fill="#0003a7" d="M272.29,634.61h67.46l2.18,22.49a11.46,11.46,0,0,1-3.31,9.2L317.2,687.77H251.81l21.34-25.72Z" class="color002ca7 svgShape"/><polygon fill="#000281" points="340.7 644.47 272.6 644.47 272.29 634.61 339.75 634.61 340.7 644.47" class="color002381 svgShape"/><path fill="#000281" d="M265.88,658l-2.39-23.34h11.87l2.17,22.49a11.45,11.45,0,0,1-3.3,9.2l-21.47,21.47h55.46a5.91,5.91,0,1,1,0,11.81H251.9a11.44,11.44,0,0,1-11.22-9.13,11.87,11.87,0,0,1,3.46-10.76Z" class="color002381 svgShape"/><path fill="#000281" d="M116.55,422.73l16.93,194a19.83,19.83,0,0,0,19.75,18.11H449.84a19.82,19.82,0,0,0,19.23-21.54l-16.93-194a19.82,19.82,0,0,0-19.75-18.1H136.3A19.82,19.82,0,0,0,116.55,422.73Z" class="color002381 svgShape"/><path fill="#0003a7" d="M124.56,422.65,141.5,616.79a19.75,19.75,0,0,0,19.68,18H457.43a19.65,19.65,0,0,0,19.67-21.45L460.16,419.22a19.77,19.77,0,0,0-19.68-18H143.72A19.77,19.77,0,0,0,124.56,422.65Z" class="color002ca7 svgShape"/><path fill="#53d86a" d="M465.34,614.39,448.4,420.24a7.9,7.9,0,0,0-7.93-7.24H144.25a8,8,0,0,0-7.93,8.63l17,194.12A7.91,7.91,0,0,0,161.2,623H457.44a7.94,7.94,0,0,0,7.9-8.61Z" class="colore9f5fb svgShape"/><path fill="#006ae9" d="M478.47,350.9H193.06a10,10,0,0,0-10,10.87l17.44,199.78a10,10,0,0,0,10,9.13H497.66Z" class="color0066e9 svgShape"/><path fill="#167ffc" d="M478.3,350.9H202.06a10,10,0,0,0-10,10.87l17.44,199.78a10,10,0,0,0,10,9.13H495.74a10,10,0,0,0,10-10.87L488.27,360A10,10,0,0,0,478.3,350.9Z" class="color007fe2 svgShape"/><path fill="#000281" d="M469.3,350.9H193.06a10,10,0,0,0-10,10.87l.61,7.08H480l-.77-8.82A10,10,0,0,0,469.3,350.9Z" class="color002381 svgShape"/><path fill="#0003a7" d="M478.3,350.9H202.06a10,10,0,0,0-10,10.87l.61,7.08H489l-.77-8.82A10,10,0,0,0,478.3,350.9Z" class="color002ca7 svgShape"/><circle cx="475.58" cy="360.51" r="3" fill="#cacbfb" class="colorcae3fb svgShape"/><circle cx="463.58" cy="360.51" r="3" fill="#cacbfb" class="colorcae3fb svgShape"/><circle cx="451.58" cy="360.51" r="3" fill="#cacbfb" class="colorcae3fb svgShape"/><path fill="#53d86a" d="M330.77,379H211.34a4.67,4.67,0,0,0-4.66,5.08l14.88,170.44a4.68,4.68,0,0,0,4.66,4.27H345.65a4.68,4.68,0,0,0,4.66-5.09L335.43,383.27A4.68,4.68,0,0,0,330.77,379Z" class="colore9f5fb svgShape"/><polygon fill="#e27b0f" points="323.17 511.8 325.17 506.3 327.87 511.78 333.17 512.65 329.64 516.94 330.91 522.98 326.04 520.13 321.51 523 322.04 516.96 317.97 512.69 323.17 511.8" class="colore2410f svgShape"/><polygon fill="#e27b0f" points="332.79 522.98 330.91 522.98 326.89 520.63 327.91 520.09 332.79 522.98" class="colore2410f svgShape"/><polygon fill="#e27b0f" points="325.17 506.3 327.05 506.3 327.59 511.9 325.05 511.8 323.17 511.8 325.17 506.3" class="colore2410f svgShape"/><polygon fill="#fe9526" points="325.05 511.8 327.05 506.3 329.74 511.78 335.05 512.65 331.51 516.94 332.79 522.98 327.91 520.13 323.39 523 323.91 516.96 319.85 512.69 325.05 511.8" class="colorff550d svgShape"/><polygon fill="#e27b0f" points="319.85 512.69 317.97 512.69 322.04 516.96 323.91 516.96 319.85 512.69" class="colore2410f svgShape"/><polygon fill="#e27b0f" points="323.39 523 321.51 523 322.04 516.96 323.91 516.96 323.39 523" class="colore2410f svgShape"/><polygon fill="#e27b0f" points="301.62 511.8 303.62 506.3 306.31 511.78 311.62 512.65 308.08 516.94 309.36 522.98 304.48 520.13 299.96 523 300.48 516.96 296.42 512.69 301.62 511.8" class="colore2410f svgShape"/><polygon fill="#e27b0f" points="311.23 522.98 309.36 522.98 305.33 520.63 306.35 520.09 311.23 522.98" class="colore2410f svgShape"/><polygon fill="#e27b0f" points="303.62 506.3 305.5 506.3 306.04 511.9 303.49 511.8 301.62 511.8 303.62 506.3" class="colore2410f svgShape"/><polygon fill="#fe9526" points="303.49 511.8 305.5 506.3 308.19 511.78 313.5 512.65 309.96 516.94 311.23 522.98 306.36 520.13 301.83 523 302.36 516.96 298.3 512.69 303.49 511.8" class="colorff550d svgShape"/><polygon fill="#e27b0f" points="298.3 512.69 296.42 512.69 300.48 516.96 302.36 516.96 298.3 512.69" class="colore2410f svgShape"/><polygon fill="#e27b0f" points="301.83 523 299.96 523 300.48 516.96 302.36 516.96 301.83 523" class="colore2410f svgShape"/><polygon fill="#e27b0f" points="280.06 511.8 282.07 506.3 284.76 511.78 290.07 512.65 286.53 516.94 287.8 522.98 282.93 520.13 278.4 523 278.93 516.96 274.87 512.69 280.06 511.8" class="colore2410f svgShape"/><polygon fill="#e27b0f" points="289.68 522.98 287.8 522.98 283.77 520.63 284.8 520.09 289.68 522.98" class="colore2410f svgShape"/><polygon fill="#e27b0f" points="282.07 506.3 283.95 506.3 284.48 511.9 281.94 511.8 280.06 511.8 282.07 506.3" class="colore2410f svgShape"/><polygon fill="#fe9526" points="281.94 511.8 283.95 506.3 286.64 511.78 291.94 512.65 288.41 516.94 289.68 522.98 284.8 520.13 280.28 523 280.81 516.96 276.74 512.69 281.94 511.8" class="colorff550d svgShape"/><polygon fill="#e27b0f" points="276.74 512.69 274.87 512.69 278.93 516.96 280.81 516.96 276.74 512.69" class="colore2410f svgShape"/><polygon fill="#e27b0f" points="280.28 523 278.4 523 278.93 516.96 280.81 516.96 280.28 523" class="colore2410f svgShape"/><polygon fill="#e27b0f" points="258.51 511.8 260.53 506.3 263.21 511.78 268.51 512.65 264.98 516.94 266.24 522.98 261.37 520.13 256.85 523 257.38 516.96 253.31 512.69 258.51 511.8" class="colore2410f svgShape"/><polygon fill="#e27b0f" points="268.12 522.98 266.24 522.98 262.22 520.63 263.24 520.09 268.12 522.98" class="colore2410f svgShape"/><polygon fill="#e27b0f" points="260.53 506.3 262.4 506.3 262.93 511.9 260.39 511.8 258.51 511.8 260.53 506.3" class="colore2410f svgShape"/><polygon fill="#fe9526" points="260.39 511.8 262.4 506.3 265.08 511.78 270.39 512.65 266.85 516.94 268.12 522.98 263.25 520.13 258.72 523 259.25 516.96 255.19 512.69 260.39 511.8" class="colorff550d svgShape"/><polygon fill="#e27b0f" points="255.19 512.69 253.31 512.69 257.38 516.96 259.25 516.96 255.19 512.69" class="colore2410f svgShape"/><polygon fill="#e27b0f" points="258.72 523 256.85 523 257.38 516.96 259.25 516.96 258.72 523" class="colore2410f svgShape"/><polygon fill="#e27b0f" points="236.96 511.8 238.98 506.3 241.66 511.78 246.97 512.65 243.42 516.94 244.69 522.98 239.81 520.13 235.29 523 235.82 516.96 231.76 512.69 236.96 511.8" class="colore2410f svgShape"/><polygon fill="#e27b0f" points="246.56 522.98 244.69 522.98 240.66 520.63 241.68 520.09 246.56 522.98" class="colore2410f svgShape"/><polygon fill="#e27b0f" points="238.98 506.3 240.85 506.3 241.38 511.9 238.84 511.8 236.96 511.8 238.98 506.3" class="colore2410f svgShape"/><polygon fill="#fe9526" points="238.84 511.8 240.85 506.3 243.53 511.78 248.84 512.65 245.3 516.94 246.56 522.98 241.69 520.13 237.16 523 237.7 516.96 233.64 512.69 238.84 511.8" class="colorff550d svgShape"/><polygon fill="#e27b0f" points="233.64 512.69 231.76 512.69 235.82 516.96 237.7 516.96 233.64 512.69" class="colore2410f svgShape"/><polygon fill="#e27b0f" points="237.16 523 235.29 523 235.82 516.96 237.7 516.96 237.16 523" class="colore2410f svgShape"/><path fill="#0003a7" d="M293.12 546.63H270.77a1.33 1.33 0 00-1 .4 1 1 0 00-.28.78A1.35 1.35 0 00270.9 549h22.36a1.3 1.3 0 001-.39 1 1 0 00.28-.78A1.35 1.35 0 00293.12 546.63zM276.61 541.68a1.3 1.3 0 001-.4 1 1 0 00.27-.78 1.33 1.33 0 00-1.38-1.14H232.36a1.32 1.32 0 00-1 .4 1 1 0 00-.28.78 1.33 1.33 0 001.38 1.14zM263.79 534.17h24.83a1.3 1.3 0 001-.4 1 1 0 00.28-.78 1.33 1.33 0 00-1.38-1.14H263.65a1.3 1.3 0 00-1 .39 1.06 1.06 0 00-.28.79A1.36 1.36 0 00263.79 534.17zM257.81 534.17a1.32 1.32 0 001-.4 1 1 0 00.28-.78 1.34 1.34 0 00-1.38-1.14H231.54a1.33 1.33 0 00-1 .39 1.06 1.06 0 00-.28.79 1.36 1.36 0 001.38 1.14zM265.29 546.63H233.47a1.3 1.3 0 00-1 .4 1 1 0 00-.28.78 1.34 1.34 0 001.38 1.14h31.82a1.3 1.3 0 001-.39 1 1 0 00.28-.78A1.35 1.35 0 00265.29 546.63zM323.06 534.17h15.28a1.33 1.33 0 001-.4 1 1 0 00.27-.78 1.33 1.33 0 00-1.37-1.14H322.92a1.3 1.3 0 00-1 .39 1.06 1.06 0 00-.28.79A1.36 1.36 0 00323.06 534.17zM318.32 533a1.35 1.35 0 00-1.38-1.14H294.59a1.33 1.33 0 00-1 .39 1.06 1.06 0 00-.28.79 1.36 1.36 0 001.38 1.14h22.36a1.32 1.32 0 001-.4A1 1 0 00318.32 533zM338.75 539.36H318.41a1.3 1.3 0 00-1 .4 1 1 0 00-.28.78 1.33 1.33 0 001.38 1.14h20.34a1.3 1.3 0 001-.4 1 1 0 00.27-.78A1.34 1.34 0 00338.75 539.36zM312 539.36H282.76a1.34 1.34 0 00-1 .4 1 1 0 00-.27.78 1.33 1.33 0 001.37 1.14h29.27a1.3 1.3 0 001-.4 1 1 0 00.28-.78A1.35 1.35 0 00312 539.36z" class="color002ca7 svgShape"/><path fill="#000282" d="M315.3,482.42l-10.68-84.87-62,.1-6.84-8.22-.48.41a14.28,14.28,0,0,0-4.73,7.83h0l9.33,100.23,71.8-.11a1.9,1.9,0,0,0,1.92-2l-.2-12.17Z" class="color002382 svgShape"/><path fill="#ffffff" d="M245.13,489.66s-4,2.43-3.92,6.26l68.27-.72s-.54-2.42,4.43-6.14Z" class="colorfff svgShape"/><path fill="#0003aa" d="M316,489.55l-70.91.11-9.32-100.23,71.16-.11a3.22,3.22,0,0,1,3.15,2.88l8.53,94.47A2.59,2.59,0,0,1,316,489.55Z" class="color002caa svgShape"/><path fill="#bfc0f6" d="M254,415.55,256.09,438a2.72,2.72,0,0,0,2.7,2.46l38.25,0a2.72,2.72,0,0,0,2.7-3l-2-22.4a2.71,2.71,0,0,0-2.7-2.47l-38.3,0A2.71,2.71,0,0,0,254,415.55Z" class="colorbfd8f6 svgShape"/><path fill="#000282" d="M281.61 431.41a1.34 1.34 0 001-.4 1 1 0 00.27-.78 1.33 1.33 0 00-1.38-1.14H262.36a1.31 1.31 0 00-1 .39 1.06 1.06 0 00-.28.79 1.34 1.34 0 001.38 1.14zM291.81 423.89a1.28 1.28 0 001-.4 1 1 0 00.28-.78 1.34 1.34 0 00-1.38-1.14H261.54a1.34 1.34 0 00-1 .4 1 1 0 00-.28.78 1.35 1.35 0 001.38 1.14z" class="color002382 svgShape"/><path fill="#cacbfb" d="M473.14,379H353.71a4.67,4.67,0,0,0-4.66,5.08l14.88,170.44a4.68,4.68,0,0,0,4.66,4.27H488a4.69,4.69,0,0,0,4.66-5.09L477.8,383.27A4.68,4.68,0,0,0,473.14,379Z" class="colorcae3fb svgShape"/><polygon fill="#53d86a" points="465.19 511.8 467.2 506.3 469.89 511.78 475.2 512.65 471.66 516.94 472.94 522.98 468.06 520.13 463.54 523 464.06 516.96 460 512.69 465.19 511.8" class="colore9f5fb svgShape"/><polygon fill="#53d86a" points="474.81 522.98 472.94 522.98 468.91 520.63 469.93 520.09 474.81 522.98" class="colore9f5fb svgShape"/><polygon fill="#53d86a" points="467.2 506.3 469.08 506.3 469.61 511.9 467.07 511.8 465.19 511.8 467.2 506.3" class="colore9f5fb svgShape"/><polygon fill="#ffffff" points="467.07 511.8 469.08 506.3 471.77 511.78 477.07 512.65 473.54 516.94 474.81 522.98 469.94 520.13 465.42 523 465.94 516.96 461.87 512.69 467.07 511.8" class="colorfff svgShape"/><polygon fill="#53d86a" points="461.87 512.69 460 512.69 464.06 516.96 465.94 516.96 461.87 512.69" class="colore9f5fb svgShape"/><polygon fill="#53d86a" points="465.42 523 463.54 523 464.06 516.96 465.94 516.96 465.42 523" class="colore9f5fb svgShape"/><polygon fill="#53d86a" points="443.64 511.8 445.65 506.3 448.34 511.78 453.64 512.65 450.11 516.94 451.38 522.98 446.51 520.13 441.98 523 442.51 516.96 438.44 512.69 443.64 511.8" class="colore9f5fb svgShape"/><polygon fill="#53d86a" points="453.26 522.98 451.38 522.98 447.35 520.63 448.38 520.09 453.26 522.98" class="colore9f5fb svgShape"/><polygon fill="#53d86a" points="445.65 506.3 447.53 506.3 448.06 511.9 445.52 511.8 443.64 511.8 445.65 506.3" class="colore9f5fb svgShape"/><polygon fill="#ffffff" points="445.52 511.8 447.53 506.3 450.21 511.78 455.52 512.65 451.99 516.94 453.26 522.98 448.38 520.13 443.86 523 444.38 516.96 440.32 512.69 445.52 511.8" class="colorfff svgShape"/><polygon fill="#53d86a" points="440.32 512.69 438.44 512.69 442.51 516.96 444.38 516.96 440.32 512.69" class="colore9f5fb svgShape"/><polygon fill="#53d86a" points="443.86 523 441.98 523 442.51 516.96 444.38 516.96 443.86 523" class="colore9f5fb svgShape"/><polygon fill="#e27b0f" points="422.09 511.8 424.1 506.3 426.79 511.78 432.09 512.65 428.56 516.94 429.82 522.98 424.95 520.13 420.43 523 420.95 516.96 416.89 512.69 422.09 511.8" class="colore2410f svgShape"/><polygon fill="#e27b0f" points="431.7 522.98 429.82 522.98 425.8 520.63 426.82 520.09 431.7 522.98" class="colore2410f svgShape"/><polygon fill="#e27b0f" points="424.1 506.3 425.98 506.3 426.51 511.9 423.97 511.8 422.09 511.8 424.1 506.3" class="colore2410f svgShape"/><polygon fill="#fe9526" points="423.97 511.8 425.98 506.3 428.66 511.78 433.97 512.65 430.43 516.94 431.7 522.98 426.83 520.13 422.3 523 422.83 516.96 418.77 512.69 423.97 511.8" class="colorff550d svgShape"/><polygon fill="#e27b0f" points="418.77 512.69 416.89 512.69 420.95 516.96 422.83 516.96 418.77 512.69" class="colore2410f svgShape"/><polygon fill="#e27b0f" points="422.3 523 420.43 523 420.95 516.96 422.83 516.96 422.3 523" class="colore2410f svgShape"/><polygon fill="#e27b0f" points="400.54 511.8 402.55 506.3 405.23 511.78 410.54 512.65 407 516.94 408.27 522.98 403.39 520.13 398.87 523 399.4 516.96 395.34 512.69 400.54 511.8" class="colore2410f svgShape"/><polygon fill="#e27b0f" points="410.14 522.98 408.27 522.98 404.24 520.63 405.26 520.09 410.14 522.98" class="colore2410f svgShape"/><polygon fill="#e27b0f" points="402.55 506.3 404.43 506.3 404.96 511.9 402.41 511.8 400.54 511.8 402.55 506.3" class="colore2410f svgShape"/><polygon fill="#fe9526" points="402.41 511.8 404.43 506.3 407.11 511.78 412.42 512.65 408.88 516.94 410.14 522.98 405.27 520.13 400.75 523 401.28 516.96 397.22 512.69 402.41 511.8" class="colorff550d svgShape"/><polygon fill="#e27b0f" points="397.22 512.69 395.34 512.69 399.4 516.96 401.28 516.96 397.22 512.69" class="colore2410f svgShape"/><polygon fill="#e27b0f" points="400.75 523 398.87 523 399.4 516.96 401.28 516.96 400.75 523" class="colore2410f svgShape"/><polygon fill="#e27b0f" points="378.99 511.8 381 506.3 383.68 511.78 388.99 512.65 385.45 516.94 386.71 522.98 381.84 520.13 377.31 523 377.85 516.96 373.79 512.69 378.99 511.8" class="colore2410f svgShape"/><polygon fill="#e27b0f" points="388.59 522.98 386.71 522.98 382.69 520.63 383.71 520.09 388.59 522.98" class="colore2410f svgShape"/><polygon fill="#e27b0f" points="381 506.3 382.88 506.3 383.4 511.9 380.86 511.8 378.99 511.8 381 506.3" class="colore2410f svgShape"/><polygon fill="#fe9526" points="380.86 511.8 382.88 506.3 385.56 511.78 390.86 512.65 387.32 516.94 388.59 522.98 383.71 520.13 379.19 523 379.72 516.96 375.66 512.69 380.86 511.8" class="colorff550d svgShape"/><polygon fill="#e27b0f" points="375.66 512.69 373.79 512.69 377.85 516.96 379.72 516.96 375.66 512.69" class="colore2410f svgShape"/><polygon fill="#e27b0f" points="379.19 523 377.31 523 377.85 516.96 379.72 516.96 379.19 523" class="colore2410f svgShape"/><path fill="#0003a7" d="M465.66 546.63H425.3a1.3 1.3 0 00-1 .4 1 1 0 00-.28.78 1.33 1.33 0 001.38 1.14H465.8a1.31 1.31 0 001-.39 1 1 0 00.28-.78A1.35 1.35 0 00465.66 546.63zM405.15 541.68a1.27 1.27 0 001-.4 1 1 0 00.28-.78 1.35 1.35 0 00-1.38-1.14H373.9a1.3 1.3 0 00-1 .4 1 1 0 00-.28.78 1.32 1.32 0 001.37 1.14zM405.32 534.17h24.84a1.32 1.32 0 001-.4 1 1 0 00.28-.78 1.35 1.35 0 00-1.38-1.14H405.19a1.3 1.3 0 00-1 .39 1.06 1.06 0 00-.28.79A1.34 1.34 0 00405.32 534.17zM399.34 534.17a1.34 1.34 0 001-.4 1 1 0 00.27-.78 1.33 1.33 0 00-1.37-1.14H373.08a1.32 1.32 0 00-1 .39 1.06 1.06 0 00-.28.79 1.35 1.35 0 001.38 1.14zM418.83 546.63H375a1.34 1.34 0 00-1 .4 1 1 0 00-.28.78 1.35 1.35 0 001.38 1.14H419a1.33 1.33 0 001-.39 1 1 0 00.27-.78A1.34 1.34 0 00418.83 546.63zM464.59 534.17h15.29a1.34 1.34 0 001-.4 1 1 0 00.27-.78 1.34 1.34 0 00-1.38-1.14H464.46a1.33 1.33 0 00-1 .39 1.06 1.06 0 00-.28.79A1.36 1.36 0 00464.59 534.17zM459.85 533a1.33 1.33 0 00-1.38-1.14H436.12a1.31 1.31 0 00-1 .39 1.06 1.06 0 00-.28.79 1.36 1.36 0 001.38 1.14h22.35a1.34 1.34 0 001-.4A1 1 0 00459.85 533zM480.29 539.36H450.94a1.34 1.34 0 00-1 .4 1 1 0 00-.28.78 1.35 1.35 0 001.38 1.14h29.35a1.27 1.27 0 001-.4 1 1 0 00.28-.78A1.35 1.35 0 00480.29 539.36zM444.56 539.36H411.29a1.3 1.3 0 00-1 .4 1 1 0 00-.28.78 1.34 1.34 0 001.38 1.14H444.7a1.27 1.27 0 001-.4 1 1 0 00.28-.78A1.33 1.33 0 00444.56 539.36z" class="color002ca7 svgShape"/><path fill="#006ae9" d="M460.32,482.42l-10.68-84.87-62,.1-6.85-8.22-.48.41a14.39,14.39,0,0,0-4.73,7.83h0L385,497.9l71.79-.11a1.9,1.9,0,0,0,1.93-2l-.21-12.17Z" class="color0066e9 svgShape"/><path fill="#ffffff" d="M390.16,489.66s-4,2.43-3.92,6.26l68.27-.72s-.55-2.42,4.43-6.14Z" class="colorfff svgShape"/><path fill="#167ffc" d="M461.06,489.55l-70.9.11-9.33-100.23,71.17-.11a3.21,3.21,0,0,1,3.14,2.88l8.53,94.47A2.58,2.58,0,0,1,461.06,489.55Z" class="color007fe2 svgShape"/><path fill="#cacbfb" d="M399,415.55,401.05,438a2.72,2.72,0,0,0,2.7,2.46l38.25,0a2.72,2.72,0,0,0,2.7-3l-2-22.4a2.72,2.72,0,0,0-2.7-2.47l-38.31,0A2.7,2.7,0,0,0,399,415.55Z" class="colorcae3fb svgShape"/><path fill="#0003aa" d="M416.83 431.41a1.34 1.34 0 001-.4 1 1 0 00.28-.78 1.35 1.35 0 00-1.38-1.14h-9.12a1.33 1.33 0 00-1 .39 1.06 1.06 0 00-.28.79 1.34 1.34 0 001.38 1.14zM437.62 431.41a1.32 1.32 0 001-.4 1 1 0 00.28-.78 1.35 1.35 0 00-1.38-1.14H423.25a1.3 1.3 0 00-1 .39 1.06 1.06 0 00-.28.79 1.33 1.33 0 001.38 1.14zM437 423.89a1.27 1.27 0 001-.4 1 1 0 00.28-.78 1.34 1.34 0 00-1.38-1.14H406.76a1.34 1.34 0 00-1 .4 1 1 0 00-.27.78 1.33 1.33 0 001.37 1.14z" class="color002caa svgShape"/><path fill="#000282" d="M556.13,476.45c-1.66-3.17-3.41-4.42-1.82-12.71,5.26-27.53-19.72-22-21.1-14.78-.34,1.78.34,3.06,2.25,1.6,3.24-2.46,12.61-2.93,3.2,12.19-2.48,4-9.63,8.07.56,19.19,9.21,10.06-.68,10.34-.94,13.78C537.61,504.55,564.32,492.13,556.13,476.45Z" class="color002382 svgShape"/><path fill="#000281" d="M498.15,534.4c-.81,5.79,11.5,148.41,11.5,148.41a5.66,5.66,0,0,0,6.66.2s2.3-32.88,6.73-63.9c3.82-26.78,3.25-52.18,5.37-53.85V536.88C517.54,537.59,501.75,536,498.15,534.4Z" class="color002381 svgShape"/><path fill="#006ae9" d="M517,679.75a18.75,18.75,0,0,1-4.78.09A4.75,4.75,0,0,0,512,678c-.77-.2-2.23-1.23-3-1.31.3,1.54.71,9.53-.85,10.69-1.89,1.41-5.49,1.45-6.06,1.45-2.86,0-3.48,1.63-3.48,2.26a1.34,1.34,0,0,0,1.48,1.46l13.89,0c1.47,0,3,.19,4.2-1.25a2.4,2.4,0,0,0,.19-2.23A69.05,69.05,0,0,1,517,679.75Z" class="color0066e9 svgShape"/><path fill="#ffffff" d="M436.37 456c-.51.2-.1 2.59.25 3 1.16.74 1.73.63 2.85 1.38a15.78 15.78 0 01-2.07-3.47C437.19 456.28 437.14 455.56 436.37 456zM515.22 472c-6.36-.72-26.79 2.36-36.84 2-12.34-.48-8.28 8.3-4.59 9.65 9.72 3.56 38.07 8.72 40.43 3.87C515.25 485.39 516.37 472.13 515.22 472z" class="colorfff svgShape"/><path fill="#e27b0f" d="M515.22,472c-4.49-.51-16.17.5-26,.21A77.33,77.33,0,0,0,488,483.28c0,1.34-.3,5.38-.23,6.71,11.46,2.23,24.91.73,26.48-2.5C515.25,485.39,516.37,472.13,515.22,472Z" class="colore2410f svgShape"/><path fill="#ffffff" d="M476.75,474.82c-6.21-3.06-31.15-10.37-37.12-14.59a22.89,22.89,0,0,1-2.81,5.13c9.95,6.73,36.61,20.7,40.31,17.64,3.39-2.8,2.22-5.87.68-7.4A4.16,4.16,0,0,0,476.75,474.82Z" class="colorfff svgShape"/><path fill="#ffffff" d="M429.5,461.75l.07,0c2.79,1.54,6.32,3.09,7.39,3.61,1.63-1,2.83-5,2.78-5.09-1.43-.63-3.32-1.94-4.56-2.54-1.45-.73-4.87-2-5.12-2.09-.7-.21-2.43-.88-3-1a1.39,1.39,0,0,0-1.64.72c-.09.26-.15,1,1.56,1.55a33.48,33.48,0,0,1,3.27,1.29s-1.17.54-.57,1.31c0,0-1.07.38-.5,1.28C429.18,460.84,428.71,461.33,429.5,461.75Z" class="colorfff svgShape"/><path fill="#0003a7" d="M552,534.4c-3.61,1.58-29.23,6.37-40.11,5.66,0,0,.5,14.33,2.8,23.05,3.6,13.67,8.33,36.37,10.66,48.17,6,30.3,17.12,70.39,17.12,70.39,3.05,1.74,6.75-1,6.81-1.23,0,0-.27-54.91-2.72-67.65C544.49,602.28,552.39,537.54,552,534.4Z" class="color002ca7 svgShape"/><path fill="#e27b0f" d="M497.32,544.8s-3.47,16.61-1.8,18.05c3.76,3.27,17.87.25,28.6-1.07s30.52.86,31-1.33c1.4-5.92-1.23-19-1.23-19Z" class="colore2410f svgShape"/><path fill="#ffffff" d="M525.23,454.65c-.76.55-8.6,4.91-10.84,4.57,0,.62,1.53,7.48.08,11,1.39,5.52,9.72,3,12.22-2.55C525.65,466.09,524.79,457.67,525.23,454.65Z" class="colorfff svgShape"/><path fill="#ffffff" d="M526,445.87c-3.4-2.35-7.31-3.57-10.09-.69-1,1-6.91,12.16-2.12,17.23,2,2.15,9.2.76,11.09-2l2.6-3.75C530,453.07,529.69,448.4,526,445.87Z" class="colorfff svgShape"/><path fill="#fe9526" d="M495.07,551c3.49,7,61.6,2.37,60.52-6.27-3.6-28.78-6.49-58-7.26-60.38-2.52-7.84-5.43-12-12.4-13.88-2.33-.63-9.23-2.78-9.23-2.78s-4.9,4.8-8.13,5.06c-2.22.19-4.1-2.51-4.1-2.51s-8,2.74-9.44,3.69c-5.63,3.7-5.72,9.94-6,15.11-1.16,18.21-2.17,30.93-2.92,39.89-.2,2.37-.39,4.49-.55,6.37C494.55,546.4,494.28,549.41,495.07,551Z" class="colorff550d svgShape"/><path fill="#000282" d="M535.07,448.84c-2.39-7.77-13.36-7.57-13.36-7.57-6.79-2.47-10.78,7.25-8.75,10.22,2.59-7.36,8.3-6.83,8.3-6.83,8.35,4.8,5.36,16.37,3.28,18.59C524.54,463.25,538.66,460.54,535.07,448.84Z" class="color002382 svgShape"/><path fill="#e27b0f" d="M495.51,535.29c1.55.05,3,.08,3.92.05h0c11.64-1.12,39.84-7.05,42.17-11.71a6,6,0,0,0,1.88-3.13,95.44,95.44,0,0,0,1-13.89c.72-.22,1.43-.47,2.1-.74.16-11.68-2-21.91-3.88-25-4.84-7.89-15.93-6.55-17.57-1-1.26,4.34,2.23,17.87,3.68,27.6a20.65,20.65,0,0,0,2.51.4c.82,3.63,1.51,7,1.89,9.75a2.38,2.38,0,0,0,.06.37c-9,2.95-28.11,10.89-34.72,11.52a0,0,0,0,1,0,0l-1-.1a8.18,8.18,0,0,1-1.47-.55C495.86,531.29,495.67,533.41,495.51,535.29Z" class="colore2410f svgShape"/><path fill="#ffffff" d="M528.26,455.11a3.68,3.68,0,0,0-1.91-.39c-.4,1.5-.75,4.06-.93,5.33a4,4,0,0,0,3.53-1.52C529.5,457.52,529.27,455.66,528.26,455.11Z" class="colorfff svgShape"/><path fill="#006ae9" d="M536.45,446.66a2.82,2.82,0,0,0-1.2-1.2,3.55,3.55,0,0,0-2.33-.19,14.56,14.56,0,0,1,2.72,5.89C536.92,450.27,537.66,448.94,536.45,446.66Z" class="color0066e9 svgShape"/><path fill="#ffffff" d="M495.73,523.51c-.51-.38-1-.94-1.37-.2-.31.46,1.36,2.21,1.89,2.36,1.38,0,1.35-.84,2.65-.68A11.75,11.75,0,0,1,495.73,523.51Z" class="colorfff svgShape"/><path fill="#ffffff" d="M499.88 525.09a28.36 28.36 0 00-4.05-.18c-1.63 0-5.25.46-5.5.49-.74.14-.72.3-1.24.56a3.08 3.08 0 00-1.13 1.46.93.93 0 00.49.92c-.28.74 1.68 1.09 1.57 1.26-.45.67-1.55 1.43 1.28 1 .17 0 7.32.32 9.61.24A29 29 0 00499.88 525.09zM527.16 477.77c.42 6.38 6 25.49 7.38 35.46 1.71 12.23 9.63 6.67 10.31 2.8 1.79-10.19 1.17-37.39-2.26-40C540.74 474.58 527.08 476.61 527.16 477.77z" class="colorfff svgShape"/><path fill="#fe9526" d="M525.35,477.53c-1.27,4.33,3.35,15.82,4.8,25.55,4.46,1.05,12.19.61,17.76-1.68.17-11.68-2-21.9-3.87-25C539.2,468.54,527,471.92,525.35,477.53Z" class="colorff550d svgShape"/><path fill="#ffffff" d="M538.91,512.64a4.55,4.55,0,0,0-1.31.07c-6.74,1.61-30.62,11.87-37.9,12.43a22.81,22.81,0,0,1,1.1,5.73c12-1.15,41.4-7.38,42.3-12.09C543.93,514.46,541.07,512.84,538.91,512.64Z" class="colorfff svgShape"/><path fill="#006ae9" d="M549,678.77a19,19,0,0,1-4.77.38,5,5,0,0,0-.33-1.8c-.78-.16-2.3-1.1-3.09-1.13.38,1.52,1.26,9.47-.22,10.72-1.81,1.52-5.4,1.77-6,1.81-2.85.17-3.37,1.83-3.34,2.46a1.35,1.35,0,0,0,1.56,1.37l13.86-.86c1.48-.08,3,0,4.12-1.49a2.39,2.39,0,0,0,.07-2.24A68.94,68.94,0,0,1,549,678.77Z" class="color0066e9 svgShape"/><path fill="#0003aa" d="M376.4,212.87c-.25-.56.12-1.42-.16-2s-1.22-.71-1.55-1.22-.08-1.43-.44-1.92-1.3-.53-1.7-1-.28-1.41-.71-1.84-1.37-.33-1.83-.74-.47-1.34-1-1.71-1.4-.14-1.91-.47-.67-1.27-1.2-1.56-1.41.06-2-.2-.84-1.15-1.41-1.37-1.38.26-2,.08-1-1-1.59-1.16-1.33.46-1.93.37-1.13-.88-1.74-.93-1.25.64-1.87.64-1.24-.71-1.85-.67-1.15.82-1.75.9-1.33-.52-1.94-.39-1,1-1.6,1.14-1.39-.33-2-.12-.88,1.11-1.43,1.35-1.43-.12-2,.17-.71,1.21-1.22,1.54-1.44.08-1.93.44-.52,1.3-1,1.7-1.4.28-1.83.71-.34,1.37-.74,1.83-1.35.48-1.72,1-.13,1.41-.46,1.92-1.27.66-1.57,1.19.07,1.41-.19,2-1.16.84-1.38,1.41.27,1.39.09,2-1,1-1.16,1.59.46,1.33.36,1.93-.88,1.13-.92,1.74.64,1.25.63,1.87-.7,1.24-.66,1.85.81,1.15.9,1.75-.53,1.33-.4,1.94,1,1,1.14,1.6-.32,1.39-.11,2,1.1.88,1.35,1.43-.13,1.43.16,2,1.22.71,1.54,1.23.08,1.43.44,1.92,1.31.52,1.71,1,.28,1.4.71,1.83,1.36.34,1.82.74.48,1.35,1,1.72,1.4.13,1.91.46.67,1.27,1.2,1.57,1.41-.07,2,.19.84,1.16,1.41,1.38,1.38-.27,2-.09,1,1,1.59,1.16,1.33-.45,1.93-.36,1.13.88,1.74.92,1.25-.64,1.87-.63,1.24.7,1.85.66,1.14-.81,1.75-.9,1.33.53,1.93.4,1-1,1.61-1.14,1.39.33,2,.12.88-1.11,1.44-1.36,1.43.13,2-.16.71-1.22,1.22-1.54,1.43-.08,1.92-.44.53-1.31,1-1.7,1.41-.29,1.84-.72.33-1.36.74-1.82,1.34-.48,1.71-1,.14-1.4.47-1.91,1.27-.67,1.56-1.2-.06-1.4.2-2,1.16-.84,1.37-1.41-.26-1.38-.08-2,1-1,1.16-1.58-.46-1.33-.36-1.94.87-1.13.92-1.74-.64-1.25-.64-1.86.71-1.24.67-1.86-.82-1.14-.9-1.75.52-1.33.39-1.93-1-1-1.13-1.61.32-1.38.11-2S376.65,213.43,376.4,212.87Z" class="color002caa svgShape"/><path fill="#e27b0f" d="M343.55,323.05c8.37-2.95,60.11-1.49,81.72,2.9,9.19,1.87,8.43,13.43.16,16.61-22.1,8.5-50.33,8.88-69.77,7.22C338.57,348.33,334.51,326.25,343.55,323.05Z" class="colore2410f svgShape"/><path fill="#0003aa" d="M364.61,394.9l3.37,4.45a19.7,19.7,0,0,0-2.27,2.27c-1.3,1.74,1.87,10.41-.49,11.33-1.11.44-3-2.11-3.79-4.2s-2.2-5.57-2.65-6.76c-.56-1.53-2-3.93-1.67-4.72.9-2,3.5-.92,4.94-1.48C363.29,395.3,364.61,394.9,364.61,394.9Z" class="color002caa svgShape"/><path fill="#ffffff" d="M368.25,399.43a10.51,10.51,0,0,0-2.54,2.19s-.33.75-1.34,0c-.82-.6-2.32-5.85-2.32-5.85,1.24-.51,3.71-1.45,3.71-1.45Z" class="colorfff svgShape"/><path fill="#fe9526" d="M333.08,314.48c8.8-1.14,63.54,12.63,83.75,21.44,8.6,3.75,5.44,14.89-3.31,16.28-23.38,3.69-54.85,3.4-73.52-2.28C323.6,344.92,323.58,315.72,333.08,314.48Z" class="colorff550d svgShape"/><path fill="#fe9526" d="M417.89,354.46c-28.47,26.15-49.68,45.6-49.68,45.6-2.16-.47-4.39-2.75-5.9-4.93,0,0,17.37-24.49,38-51.56C413.84,325.72,429.51,343.8,417.89,354.46Z" class="colorff550d svgShape"/><path fill="#0003aa" d="M437.94,402.7l5.52-.8a20.49,20.49,0,0,0,.89,3.07c.9,2,10,3.38,9.7,5.89-.16,1.19-3.29,1.59-5.51,1.3s-5.94-.75-7.2-.94c-1.61-.23-4.42-.12-4.94-.8-1.34-1.77.88-3.51,1.08-5.05C437.65,404.05,437.94,402.7,437.94,402.7Z" class="color002caa svgShape"/><path fill="#ffffff" d="M443.66,401.69a10.37,10.37,0,0,0,.69,3.28s.5.66-.63,1.18c-.92.44-6.24-.78-6.24-.78.15-1.32.52-3.95.52-3.95Z" class="colorfff svgShape"/><path fill="#e27b0f" d="M434.51,335.56c5.65,38.24,9.84,66.71,9.84,66.71-1.61,1.53-5.21,2.1-7.79,1.07,0,0-10.32-27.71-21.16-59.94C408.25,322.15,432.21,320,434.51,335.56Z" class="colore2410f svgShape"/><path fill="#ffffff" d="M395.32,279.61c-2.76-3.22-14.1-16.39-23-21.56-5.28-3.07-14.57.79-9.12,9.58,3.51,5.64,19.66,17.11,26.72,20l.05,0A16.58,16.58,0,0,1,395.32,279.61Z" class="colorfff svgShape"/><path fill="#ffffff" d="M424.55 269.84l-3.16-4.34c-2.93 2.48-12.45 6.75-20.11 10.19-3.5 1.57-6.82 3.07-9.25 4.26l-.9-.27a16.59 16.59 0 00-.15 9.64C398.28 288.06 417.12 275.86 424.55 269.84zM423.62 261.84c.17-.58.19-1.26.93-.94.49.17.22 2.44-.09 2.85-1 .77-1.45.27-2.33 1.13A11.31 11.31 0 00423.62 261.84z" class="colorfff svgShape"/><path fill="#ffffff" d="M430.4,264.72l0,.06c-2.16,2.07-5,4.34-5.84,5.06a33.7,33.7,0,0,1-3.12-4.34c1.15-.92,1.91-2.17,2.89-3,1.14-1,3.94-3,4.14-3.13.58-.37,2-1.4,2.48-1.63a1.32,1.32,0,0,1,1.67.25c.14.22.36.84-1.05,1.79a31.87,31.87,0,0,0-2.65,2s1.19.21.84,1c0,0,1.06.09.76,1.05C430.47,263.82,431,264.14,430.4,264.72Z" class="colorfff svgShape"/><path fill="#006ae9" d="M386.5,268.18A45.57,45.57,0,0,0,375,258c-9-5.18-12.52,4.23-9.28,9.41,2.3,3.66,5.23,8.47,9,12.15Z" class="color0066e9 svgShape"/><path fill="#ffffff" d="M355,239.53c.3,2.75-.76,10.35-1.76,11.75,2.09,5.13,10.33,5.41,11,2.45-1.19-3.24.39-9.14.43-9.7C362.67,244.26,355.71,240.06,355,239.53Z" class="colorfff svgShape"/><path fill="#167ffc" d="M378.46,324.58c-4.5,6.08-24.5,9-42.79,1.17l-.84-11.48-3.62,26.53c-1.7.5-3.54.68-4.6-.28-4.9-53.88-.46-80.69,17.76-87.32,2-.73,8.44-1.92,8.44-1.92s4.27,4.33,7.21,4.33c4,0,3.79-1.88,3.79-1.88s5.43,1.54,6.71,2.35c3.73,2.35,4.41,7.14,4.52,11.76,0,1.56,0,3.12,0,4.55s.1,3.46.25,5.64c.54,7.38,1.79,17.93,2.55,29.47.15,2.41.3,4.85.4,7.32C378.39,318.05,378.46,321.31,378.46,324.58Z" class="color007fe2 svgShape"/><path fill="#006ae9" d="M360.39,255.29c-2.94,0-7.58-4-7.58-4l-4.32.71a19.08,19.08,0,0,0-4.12,1.21c8,4.27,20.15,15.59,20.15,15.59s5.21-6.89,5.85-12.79a49.67,49.67,0,0,0-6.56-2.27S363.29,255.29,360.39,255.29Z" class="color0066e9 svgShape"/><path fill="#595bd4" d="M378.25,314.82c-10-4.23-23.8-11.22-27.68-15.64-2.69-3-6.63-9.15-9.86-15.31l-.94.39a46,46,0,0,1-4.69-14.65c-1.13-10.28,8.92-9.75,12.35-4.7,2.43,3.57,5.66,8.19,7.5,13.15l-1,.41v0c3.05,8.25,5,16.25,5.18,16.66,2.3,1.43,5.32,3.46,8.51,5.6s6.91,4.65,10.24,6.74C378,309.91,378.15,312.35,378.25,314.82Z" opacity=".26" class="color453574 svgShape"/><path fill="#000282" d="M339.93,316h0a1.87,1.87,0,0,0,1.87,1.87h44.07a1.87,1.87,0,0,0,1.87-1.87H339.93Z" class="color002382 svgShape"/><path fill="#000282" d="M392.5,277.14l-9.19,38.36c-.15.61,0,2.38,2.27,2.38l37.34-.47V274.62h-27A3.41,3.41,0,0,0,392.5,277.14Z" class="color002382 svgShape"/><path fill="#0003aa" d="M443.23,274.61H395.5a1.1,1.1,0,0,0-1.06.81l-9.83,41.07a1.1,1.1,0,0,0,1.06,1.39h44.44a5.42,5.42,0,0,0,5.22-4l9-37.91A1.1,1.1,0,0,0,443.23,274.61Z" class="color002caa svgShape"/><polygon fill="#ffffff" points="399.63 315.52 387.47 315.52 389.92 304.38 399.63 315.52" opacity=".2" class="colorfff svgShape"/><path fill="#ffffff" d="M393.71,287.25l2.43-11h3.44q17.12,19.65,34.23,39.29H418.34Z" opacity=".2" class="colorfff svgShape"/><path fill="#ffffff" d="M391.23 307.9a10.21 10.21 0 01-3 1.12 1.43 1.43 0 001.66 1.32 6.4 6.4 0 002.56-2.52C392.49 306.94 391.72 307.59 391.23 307.9zM385.52 313.71c-9.06-3.13-29.45-12.71-34.32-18.23-2.71-3-6.71-9.3-10-15.53-2.88-5.5-5.18-10.95-5.52-14.05-1.14-10.28 8.92-9.75 12.35-4.7a67.14 67.14 0 016.49 13.59c3.05 8.25 5 16.25 5.18 16.66 2.3 1.43 5.32 3.46 8.5 5.6 6.71 4.51 15 10.05 18.85 11.52l.09 0 .36.13h0l-2 4.92z" class="colorfff svgShape"/><path fill="#ffffff" d="M387.31,308.65a38.92,38.92,0,0,1,4.2,1.54c1.38.57,4.34,2.18,4.55,2.3a19.5,19.5,0,0,1,2.52,1.48,2.82,2.82,0,0,1,.47,1.64.86.86,0,0,1-.74.62c0,.73-1.81.37-1.77.55.16.73-.8,1.17-3.08-.15-.14-.08-6.4-2.21-8.34-3.05A50.1,50.1,0,0,1,387.31,308.65Z" class="colorfff svgShape"/><path fill="#167ffc" d="M340.41,280.55a45.78,45.78,0,0,1-4.69-14.65c-1.14-10.28,8.92-9.75,12.35-4.7,2.43,3.57,5.65,8.19,7.49,13.15Z" class="color007fe2 svgShape"/><path fill="#ffffff" d="M357.37,225.61c-4.49,1.8-6,6.68-4.18,11.13l1.85,4.61c1.34,3.35,8.62,6.55,11.29,4.76,6.32-4.22,2.72-17.45,1.91-18.79C366,223.59,361.54,223.94,357.37,225.61Z" class="colorfff svgShape"/><path fill="#ffffff" d="M351.81,235.18c-1.08.62-1.28,2.66-.66,3.74a4.3,4.3,0,0,0,3.89,1.55c-.23-1.37-.69-4.15-1.17-5.77A4,4,0,0,0,351.81,235.18Z" class="colorfff svgShape"/><path fill="#000282" d="M1046.93,496.92l-32.05,191.15A16.12,16.12,0,0,1,1000,701c-.23,0-.46,0-.7,0h-.89l-59-1.45-13.18-.32-117.31-2.9-24.48-.61-26.79-.66,1-6.13,1.92-12.36,28.74-184.75a5.2,5.2,0,0,1,5.17-4.15l76.81-1,26.85-.34,16.13-.21,10.36-.12,30.26-.38,79.58-1c6.67,0,10,2.91,11.5,6A10.82,10.82,0,0,1,1046.93,496.92Z" class="color002382 svgShape"/><path fill="#167ffc" d="M1040.46,490.57a6,6,0,0,1-.11,1.26l-32.48,195.28A25.53,25.53,0,0,1,1000,701c-.32.29-.66.58-1,.86a26.17,26.17,0,0,1-16.55,5.74h-229a6.1,6.1,0,0,1-5.95-7.17l1.94-11.47,33.93-200.13a5.19,5.19,0,0,1,5.16-4.15h245.89A6.16,6.16,0,0,1,1040.46,490.57Z" class="color007fe2 svgShape"/><polygon fill="#ffffff" points="1028.81 495.33 1028.78 495.52 1026.2 511.03 997.74 682.13 761.53 682.13 790.6 510.66 793.19 495.33 1028.81 495.33" class="colorfff svgShape"/><polygon fill="#ffffff" points="849.66 688.94 876.33 688.94 995.45 484.66 968.79 484.66 849.66 688.94" opacity=".5" class="colorfff svgShape"/><polygon fill="#ffffff" points="892.33 688.94 902.62 688.94 1021.74 484.66 1011.45 484.66 892.33 688.94" opacity=".5" class="colorfff svgShape"/><path fill="#0003aa" d="M799.77,688.94H580.49a9.32,9.32,0,1,0,0,18.64H799.77a9.32,9.32,0,1,0,0-18.64Z" class="color002caa svgShape"/><path fill="#000282" d="M990.35,688.94h-197a9.32,9.32,0,1,0,0,18.64h197a9.32,9.32,0,0,0,0-18.64Z" class="color002382 svgShape"/><rect width="23.2" height="6.96" x="950.62" y="692.69" fill="#167ffc" rx="2.91" class="color007fe2 svgShape"/><rect width="16.82" height="6.96" x="924.78" y="692.69" fill="#167ffc" rx="2.91" class="color007fe2 svgShape"/><path fill="#ffffff" d="M704.15,344.06H593.58a13.38,13.38,0,0,0-13.38,13.38V406.7a13.38,13.38,0,0,0,13.38,13.39H660l38.26,28.42-7.63-28.42h13.51a13.38,13.38,0,0,0,13.38-13.39V357.44A13.38,13.38,0,0,0,704.15,344.06Z" class="colorfff svgShape"/><path fill="#167ffc" d="M684.61 381.2h-51a2 2 0 00-1.47.6 1.57 1.57 0 00-.43 1.19 2.06 2.06 0 002.1 1.74h51.05a2 2 0 001.47-.6 1.59 1.59 0 00.42-1.19A2 2 0 00684.61 381.2zM650.47 373.66a2 2 0 001.47-.61 1.59 1.59 0 00.42-1.19 2 2 0 00-2.1-1.73H594.84a2 2 0 00-1.47.6 1.55 1.55 0 00-.42 1.19 2 2 0 002.09 1.74zM637.94 362.21h31.34a2 2 0 001.46-.6 1.56 1.56 0 00.43-1.19 2 2 0 00-2.1-1.74H637.74a2 2 0 00-1.47.6 1.58 1.58 0 00-.42 1.2A2 2 0 00637.94 362.21zM627.83 362.21a2 2 0 001.47-.6 1.56 1.56 0 00.43-1.19 2 2 0 00-2.1-1.74H594.84a2 2 0 00-1.47.61 1.54 1.54 0 00-.42 1.19 2 2 0 002.09 1.73zM623.23 381.2H594.84a2 2 0 00-1.47.6A1.52 1.52 0 00593 383a2 2 0 002.09 1.74h28.4a2 2 0 001.46-.6 1.57 1.57 0 00.43-1.19A2 2 0 00623.23 381.2zM704.49 360.42a2 2 0 00-2.09-1.74h-23a2 2 0 00-1.47.61 1.59 1.59 0 00-.42 1.19 2 2 0 002.1 1.73h23a2 2 0 001.47-.6A1.52 1.52 0 00704.49 360.42zM702.39 370.13H660.83a2 2 0 00-1.47.6 1.52 1.52 0 00-.42 1.19 2 2 0 002.09 1.74H702.6a2 2 0 001.47-.61 1.52 1.52 0 00.42-1.19A2 2 0 00702.39 370.13zM677.61 403.78h-33a2 2 0 00-1.47.6 1.57 1.57 0 00-.43 1.19 2.06 2.06 0 002.1 1.74h33.05a2 2 0 001.47-.6 1.59 1.59 0 00.42-1.19A2 2 0 00677.61 403.78zM655.47 396.24a2 2 0 001.47-.61 1.59 1.59 0 00.42-1.19 2 2 0 00-2.1-1.73H594.84a2 2 0 00-1.47.6 1.55 1.55 0 00-.42 1.19 2 2 0 002.09 1.74zM634.23 403.78H594.84a2 2 0 00-1.47.6 1.52 1.52 0 00-.42 1.19 2 2 0 002.09 1.74h39.4a2 2 0 001.46-.6 1.57 1.57 0 00.43-1.19A2 2 0 00634.23 403.78zM702.39 392.71H665.83a2 2 0 00-1.47.6 1.52 1.52 0 00-.42 1.19 2 2 0 002.09 1.74H702.6a2 2 0 001.47-.61 1.52 1.52 0 00.42-1.19A2 2 0 00702.39 392.71z" class="color007fe2 svgShape"/><polygon fill="#cacbfb" points="1021.74 325.99 974.07 644.95 694.83 644.95 742.84 325.99 1021.74 325.99" class="colorcae3fb svgShape"/><polygon fill="#006ae9" points="870.55 565.98 891.07 565.98 896.82 527.58 876.31 527.58 870.55 565.98" class="color0066e9 svgShape"/><polygon fill="#167ffc" points="870.55 565.98 886.07 565.98 891.82 527.58 876.31 527.58 870.55 565.98" class="color007fe2 svgShape"/><polygon fill="#ffffff" points="873.33 565.98 870.55 565.98 876.31 527.58 879.09 527.58 873.33 565.98" opacity=".2" class="colorfff svgShape"/><polygon fill="#e27b0f" points="893.03 565.98 911.02 565.98 919.03 512.45 901.05 512.45 893.03 565.98" class="colore2410f svgShape"/><polygon fill="#fe9526" points="889.98 565.98 907.02 565.98 915.03 512.45 898 512.45 889.98 565.98" class="colorff550d svgShape"/><polygon fill="#ffffff" points="893.03 565.98 889.98 565.98 898 512.45 901.05 512.45 893.03 565.98" opacity=".2" class="colorfff svgShape"/><polygon fill="#006ae9" points="922.71 567.3 943.67 561.24 935.86 510.01 914.9 516.07 922.71 567.3" class="color0066e9 svgShape"/><polygon fill="#167ffc" points="922.71 567.3 939.76 562.36 931.95 511.13 914.9 516.07 922.71 567.3" class="color007fe2 svgShape"/><polygon fill="#ffffff" points="925.76 566.42 922.71 567.3 914.9 516.07 917.96 515.18 925.76 566.42" opacity=".2" class="colorfff svgShape"/><polygon fill="#006ae9" points="771.59 493.09 789.58 493.09 797.59 439.56 779.61 439.56 771.59 493.09" class="color0066e9 svgShape"/><polygon fill="#167ffc" points="768.53 493.09 785.58 493.09 793.59 439.56 776.56 439.56 768.53 493.09" class="color007fe2 svgShape"/><polygon fill="#ffffff" points="771.59 493.09 768.53 493.09 776.56 439.56 779.61 439.56 771.59 493.09" opacity=".2" class="colorfff svgShape"/><polygon fill="#000282" points="801.27 494.41 822.23 488.35 814.42 437.12 793.46 443.18 801.27 494.41" class="color002382 svgShape"/><polygon fill="#0003aa" points="801.27 494.41 818.32 489.47 810.51 438.24 793.46 443.18 801.27 494.41" class="color002caa svgShape"/><polygon fill="#ffffff" points="804.32 493.53 801.27 494.41 793.46 443.18 796.52 442.29 804.32 493.53" opacity=".2" class="colorfff svgShape"/><polygon fill="#000282" points="749.73 638.51 767.71 638.51 775.73 584.98 757.75 584.98 749.73 638.51" class="color002382 svgShape"/><polygon fill="#0003aa" points="746.67 638.51 763.71 638.51 771.73 584.98 754.69 584.98 746.67 638.51" class="color002caa svgShape"/><polygon fill="#ffffff" points="749.73 638.51 746.67 638.51 754.69 584.98 757.75 584.98 749.73 638.51" opacity=".2" class="colorfff svgShape"/><polygon fill="#006ae9" points="779.4 639.83 800.36 633.77 792.55 582.54 771.6 588.6 779.4 639.83" class="color0066e9 svgShape"/><polygon fill="#167ffc" points="779.4 639.83 796.46 634.9 788.65 583.66 771.6 588.6 779.4 639.83" class="color007fe2 svgShape"/><polygon fill="#ffffff" points="782.46 638.95 779.4 639.83 771.6 588.6 774.65 587.72 782.46 638.95" opacity=".2" class="colorfff svgShape"/><polygon fill="#e27b0f" points="889.57 420.55 910.08 420.55 915.84 382.16 895.32 382.16 889.57 420.55" class="colore2410f svgShape"/><polygon fill="#fe9526" points="889.57 420.55 905.08 420.55 910.84 382.16 895.32 382.16 889.57 420.55" class="colorff550d svgShape"/><polygon fill="#ffffff" points="892.35 420.55 889.57 420.55 895.32 382.16 898.1 382.16 892.35 420.55" opacity=".2" class="colorfff svgShape"/><polygon fill="#000282" points="912.04 420.55 930.03 420.55 938.05 367.03 920.07 367.03 912.04 420.55" class="color002382 svgShape"/><polygon fill="#0003aa" points="908.99 420.55 926.03 420.55 934.05 367.03 917.01 367.03 908.99 420.55" class="color002caa svgShape"/><polygon fill="#ffffff" points="912.04 420.55 908.99 420.55 917.01 367.03 920.07 367.03 912.04 420.55" opacity=".2" class="colorfff svgShape"/><polygon fill="#006ae9" points="941.72 421.88 962.68 415.82 954.87 364.58 933.92 370.64 941.72 421.88" class="color0066e9 svgShape"/><polygon fill="#167ffc" points="941.72 421.88 958.78 416.94 950.97 365.71 933.92 370.64 941.72 421.88" class="color007fe2 svgShape"/><polygon fill="#ffffff" points="944.78 420.99 941.72 421.88 933.92 370.64 936.97 369.76 944.78 420.99" opacity=".2" class="colorfff svgShape"/><polygon fill="#fe9526" points="860.37 371.25 857.73 387.51 796.34 387.51 798.81 371.03 860.37 371.25" class="colorff550d svgShape"/><polygon fill="#53d86a" points="864.47 371.25 861.83 387.51 800.22 387.51 802.9 371.03 864.47 371.25" class="colore9f5fb svgShape"/><polygon fill="#e27b0f" points="867.26 373.77 798.4 373.77 798.81 371.03 867.67 371.03 867.26 373.77" class="colore2410f svgShape"/><polygon fill="#e27b0f" points="865.2 387.51 796.34 387.51 796.75 384.77 865.61 384.77 865.2 387.51" class="colore2410f svgShape"/><polygon fill="#fe9526" points="852.37 371.25 849.73 387.51 794.34 387.51 796.81 371.03 852.37 371.25" class="colorff550d svgShape"/><polygon fill="#ffffff" points="856.47 371.25 853.83 387.51 798.22 387.51 800.9 371.03 856.47 371.25" class="colorfff svgShape"/><polygon fill="#fe9526" points="859.26 373.77 796.4 373.77 796.81 371.03 859.67 371.03 859.26 373.77" class="colorff550d svgShape"/><polygon fill="#fe9526" points="857.2 387.51 794.34 387.51 794.75 384.77 857.61 384.77 857.2 387.51" class="colorff550d svgShape"/><polygon fill="#fe9526" points="840.99 387.73 838.35 403.99 776.95 403.99 779.43 387.51 840.99 387.73" class="colorff550d svgShape"/><polygon fill="#53d86a" points="845.09 387.73 842.45 403.99 780.84 403.99 783.52 387.51 845.09 387.73" class="colore9f5fb svgShape"/><polygon fill="#000282" points="847.88 390.25 779.02 390.25 779.43 387.51 848.29 387.51 847.88 390.25" class="color002382 svgShape"/><polygon fill="#000282" points="845.82 403.99 776.95 403.99 777.36 401.25 846.23 401.25 845.82 403.99" class="color002382 svgShape"/><polygon fill="#0003aa" points="832.99 387.73 830.35 403.99 774.95 403.99 777.43 387.51 832.99 387.73" class="color002caa svgShape"/><polygon fill="#ffffff" points="837.09 387.73 834.45 403.99 778.84 403.99 781.52 387.51 837.09 387.73" class="colorfff svgShape"/><polygon fill="#0003aa" points="839.88 390.25 777.02 390.25 777.43 387.51 840.29 387.51 839.88 390.25" class="color002caa svgShape"/><polygon fill="#0003aa" points="837.82 403.99 774.95 403.99 775.36 401.25 838.23 401.25 837.82 403.99" class="color002caa svgShape"/><polygon fill="#fe9526" points="863.5 404.21 860.86 420.47 788.46 420.47 790.93 403.99 863.5 404.21" class="colorff550d svgShape"/><polygon fill="#53d86a" points="867.59 404.21 864.95 420.47 792.35 420.47 795.03 403.99 867.59 404.21" class="colore9f5fb svgShape"/><polygon fill="#006ae9" points="870.38 406.73 790.52 406.73 790.93 403.99 870.79 403.99 870.38 406.73" class="color0066e9 svgShape"/><polygon fill="#006ae9" points="868.32 420.47 788.46 420.47 788.87 417.73 868.73 417.73 868.32 420.47" class="color0066e9 svgShape"/><polygon fill="#167ffc" points="855.5 404.21 852.86 420.47 786.46 420.47 788.93 403.99 855.5 404.21" class="color007fe2 svgShape"/><polygon fill="#ffffff" points="859.59 404.21 856.95 420.47 790.35 420.47 793.03 403.99 859.59 404.21" class="colorfff svgShape"/><polygon fill="#167ffc" points="862.38 406.73 788.52 406.73 788.93 403.99 862.79 403.99 862.38 406.73" class="color007fe2 svgShape"/><polygon fill="#167ffc" points="860.32 420.47 786.46 420.47 786.87 417.73 860.73 417.73 860.32 420.47" class="color007fe2 svgShape"/><polygon fill="#fe9526" points="919.2 443.21 916.55 459.47 855.16 459.47 857.63 442.99 919.2 443.21" class="colorff550d svgShape"/><polygon fill="#53d86a" points="923.29 443.21 920.65 459.47 859.04 459.47 861.73 442.99 923.29 443.21" class="colore9f5fb svgShape"/><polygon fill="#006ae9" points="926.08 445.73 857.22 445.73 857.63 442.99 926.49 442.99 926.08 445.73" class="color0066e9 svgShape"/><polygon fill="#006ae9" points="924.02 459.47 855.16 459.47 855.57 456.73 924.43 456.73 924.02 459.47" class="color0066e9 svgShape"/><polygon fill="#167ffc" points="911.2 443.21 908.55 459.47 853.16 459.47 855.63 442.99 911.2 443.21" class="color007fe2 svgShape"/><polygon fill="#ffffff" points="915.29 443.21 912.65 459.47 857.04 459.47 859.73 442.99 915.29 443.21" class="colorfff svgShape"/><polygon fill="#167ffc" points="918.08 445.73 855.22 445.73 855.63 442.99 918.49 442.99 918.08 445.73" class="color007fe2 svgShape"/><polygon fill="#167ffc" points="916.02 459.47 853.16 459.47 853.57 456.73 916.43 456.73 916.02 459.47" class="color007fe2 svgShape"/><polygon fill="#fe9526" points="928.81 459.69 926.17 475.95 864.77 475.95 867.25 459.47 928.81 459.69" class="colorff550d svgShape"/><polygon fill="#53d86a" points="932.9 459.69 930.26 475.95 868.66 475.95 871.34 459.47 932.9 459.69" class="colore9f5fb svgShape"/><polygon fill="#000282" points="935.7 462.2 866.84 462.2 867.25 459.47 936.11 459.47 935.7 462.2" class="color002382 svgShape"/><polygon fill="#000282" points="933.64 475.95 864.77 475.95 865.18 473.21 934.05 473.21 933.64 475.95" class="color002382 svgShape"/><polygon fill="#0003aa" points="920.81 459.69 918.17 475.95 862.77 475.95 865.25 459.47 920.81 459.69" class="color002caa svgShape"/><polygon fill="#ffffff" points="924.9 459.69 922.26 475.95 866.66 475.95 869.34 459.47 924.9 459.69" class="colorfff svgShape"/><polygon fill="#0003aa" points="927.7 462.2 864.84 462.2 865.25 459.47 928.11 459.47 927.7 462.2" class="color002caa svgShape"/><polygon fill="#0003aa" points="925.64 475.95 862.77 475.95 863.18 473.21 926.05 473.21 925.64 475.95" class="color002caa svgShape"/><polygon fill="#fe9526" points="933.32 476.17 930.68 492.43 854.28 492.43 856.76 475.95 933.32 476.17" class="colorff550d svgShape"/><polygon fill="#53d86a" points="937.41 476.17 934.77 492.43 858.17 492.43 860.85 475.95 937.41 476.17" class="colore9f5fb svgShape"/><polygon fill="#e27b0f" points="940.2 478.69 856.35 478.69 856.76 475.95 940.62 475.95 940.2 478.69" class="colore2410f svgShape"/><polygon fill="#e27b0f" points="938.14 492.43 854.28 492.43 854.69 489.69 938.55 489.69 938.14 492.43" class="colore2410f svgShape"/><polygon fill="#fe9526" points="925.32 476.17 922.68 492.43 852.28 492.43 854.76 475.95 925.32 476.17" class="colorff550d svgShape"/><polygon fill="#ffffff" points="929.41 476.17 926.77 492.43 856.17 492.43 858.85 475.95 929.41 476.17" class="colorfff svgShape"/><polygon fill="#fe9526" points="932.2 478.69 854.35 478.69 854.76 475.95 932.62 475.95 932.2 478.69" class="colorff550d svgShape"/><polygon fill="#fe9526" points="930.14 492.43 852.28 492.43 852.69 489.69 930.55 489.69 930.14 492.43" class="colorff550d svgShape"/><polygon fill="#fe9526" points="849.32 516.6 846.68 532.85 785.28 532.85 787.76 516.37 849.32 516.6" class="colorff550d svgShape"/><polygon fill="#53d86a" points="853.41 516.6 850.77 532.85 789.17 532.85 791.85 516.37 853.41 516.6" class="colore9f5fb svgShape"/><polygon fill="#006ae9" points="856.21 519.11 787.35 519.11 787.76 516.37 856.62 516.37 856.21 519.11" class="color0066e9 svgShape"/><polygon fill="#006ae9" points="854.14 532.85 785.28 532.85 785.69 530.12 854.55 530.12 854.14 532.85" class="color0066e9 svgShape"/><polygon fill="#167ffc" points="841.32 516.6 838.68 532.85 783.28 532.85 785.76 516.37 841.32 516.6" class="color007fe2 svgShape"/><polygon fill="#ffffff" points="845.41 516.6 842.77 532.85 787.17 532.85 789.85 516.37 845.41 516.6" class="colorfff svgShape"/><polygon fill="#167ffc" points="848.21 519.11 785.35 519.11 785.76 516.37 848.62 516.37 848.21 519.11" class="color007fe2 svgShape"/><polygon fill="#167ffc" points="846.14 532.85 783.28 532.85 783.69 530.12 846.55 530.12 846.14 532.85" class="color007fe2 svgShape"/><polygon fill="#fe9526" points="835.93 533.08 833.29 549.33 771.9 549.33 774.37 532.85 835.93 533.08" class="colorff550d svgShape"/><polygon fill="#53d86a" points="840.03 533.08 837.39 549.33 775.78 549.33 778.47 532.85 840.03 533.08" class="colore9f5fb svgShape"/><polygon fill="#000282" points="842.82 535.59 773.96 535.59 774.37 532.85 843.23 532.85 842.82 535.59" class="color002382 svgShape"/><polygon fill="#000282" points="840.76 549.33 771.9 549.33 772.31 546.6 841.17 546.6 840.76 549.33" class="color002382 svgShape"/><polygon fill="#0003aa" points="827.93 533.08 825.29 549.33 769.9 549.33 772.37 532.85 827.93 533.08" class="color002caa svgShape"/><polygon fill="#ffffff" points="832.03 533.08 829.39 549.33 773.78 549.33 776.47 532.85 832.03 533.08" class="colorfff svgShape"/><polygon fill="#0003aa" points="834.82 535.59 771.96 535.59 772.37 532.85 835.23 532.85 834.82 535.59" class="color002caa svgShape"/><polygon fill="#0003aa" points="832.76 549.33 769.9 549.33 770.31 546.6 833.17 546.6 832.76 549.33" class="color002caa svgShape"/><polygon fill="#fe9526" points="828.44 549.56 825.8 565.81 761.4 565.81 763.88 549.33 828.44 549.56" class="colorff550d svgShape"/><polygon fill="#53d86a" points="832.53 549.56 829.89 565.81 765.29 565.81 767.97 549.33 832.53 549.56" class="colore9f5fb svgShape"/><polygon fill="#e27b0f" points="835.33 552.07 763.47 552.07 763.88 549.33 835.74 549.33 835.33 552.07" class="colore2410f svgShape"/><polygon fill="#e27b0f" points="833.26 565.81 761.4 565.81 761.81 563.07 833.68 563.07 833.26 565.81" class="colore2410f svgShape"/><polygon fill="#fe9526" points="820.44 549.56 817.8 565.81 759.4 565.81 761.88 549.33 820.44 549.56" class="colorff550d svgShape"/><polygon fill="#ffffff" points="824.53 549.56 821.89 565.81 763.29 565.81 765.97 549.33 824.53 549.56" class="colorfff svgShape"/><polygon fill="#fe9526" points="827.33 552.07 761.47 552.07 761.88 549.33 827.74 549.33 827.33 552.07" class="colorff550d svgShape"/><polygon fill="#fe9526" points="825.26 565.81 759.4 565.81 759.81 563.07 825.68 563.07 825.26 565.81" class="colorff550d svgShape"/><polygon fill="#fe9526" points="911.55 588.43 908.91 604.69 847.51 604.69 849.99 588.21 911.55 588.43" class="colorff550d svgShape"/><polygon fill="#53d86a" points="915.64 588.43 913 604.69 851.4 604.69 854.08 588.21 915.64 588.43" class="colore9f5fb svgShape"/><polygon fill="#000282" points="918.44 590.95 849.58 590.95 849.99 588.21 918.85 588.21 918.44 590.95" class="color002382 svgShape"/><polygon fill="#000282" points="916.38 604.69 847.51 604.69 847.92 601.95 916.79 601.95 916.38 604.69" class="color002382 svgShape"/><polygon fill="#0003aa" points="903.55 588.43 900.91 604.69 845.51 604.69 847.99 588.21 903.55 588.43" class="color002caa svgShape"/><polygon fill="#ffffff" points="907.64 588.43 905 604.69 849.4 604.69 852.08 588.21 907.64 588.43" class="colorfff svgShape"/><polygon fill="#0003aa" points="910.44 590.95 847.58 590.95 847.99 588.21 910.85 588.21 910.44 590.95" class="color002caa svgShape"/><polygon fill="#0003aa" points="908.38 604.69 845.51 604.69 845.92 601.95 908.79 601.95 908.38 604.69" class="color002caa svgShape"/><polygon fill="#fe9526" points="898.17 604.91 895.53 621.17 834.13 621.17 836.61 604.69 898.17 604.91" class="colorff550d svgShape"/><polygon fill="#53d86a" points="902.26 604.91 899.62 621.17 838.02 621.17 840.7 604.69 902.26 604.91" class="colore9f5fb svgShape"/><polygon fill="#e27b0f" points="905.05 607.43 836.19 607.43 836.61 604.69 905.47 604.69 905.05 607.43" class="colore2410f svgShape"/><polygon fill="#e27b0f" points="902.99 621.17 834.13 621.17 834.54 618.43 903.4 618.43 902.99 621.17" class="colore2410f svgShape"/><polygon fill="#fe9526" points="890.17 604.91 887.53 621.17 832.13 621.17 834.61 604.69 890.17 604.91" class="colorff550d svgShape"/><polygon fill="#ffffff" points="894.26 604.91 891.62 621.17 836.02 621.17 838.7 604.69 894.26 604.91" class="colorfff svgShape"/><polygon fill="#fe9526" points="897.05 607.43 834.19 607.43 834.61 604.69 897.47 604.69 897.05 607.43" class="colorff550d svgShape"/><polygon fill="#fe9526" points="894.99 621.17 832.13 621.17 832.54 618.43 895.4 618.43 894.99 621.17" class="colorff550d svgShape"/><polygon fill="#fe9526" points="910.67 621.39 908.03 637.65 843.63 637.65 846.11 621.17 910.67 621.39" class="colorff550d svgShape"/><polygon fill="#53d86a" points="914.77 621.39 912.13 637.65 847.52 637.65 850.2 621.17 914.77 621.39" class="colore9f5fb svgShape"/><polygon fill="#006ae9" points="917.56 623.9 845.7 623.9 846.11 621.17 917.97 621.17 917.56 623.9" class="color0066e9 svgShape"/><polygon fill="#006ae9" points="915.5 637.65 843.63 637.65 844.05 634.91 915.91 634.91 915.5 637.65" class="color0066e9 svgShape"/><polygon fill="#167ffc" points="902.67 621.39 900.03 637.65 841.63 637.65 844.11 621.17 902.67 621.39" class="color007fe2 svgShape"/><polygon fill="#ffffff" points="906.77 621.39 904.13 637.65 845.52 637.65 848.2 621.17 906.77 621.39" class="colorfff svgShape"/><polygon fill="#167ffc" points="909.56 623.9 843.7 623.9 844.11 621.17 909.97 621.17 909.56 623.9" class="color007fe2 svgShape"/><polygon fill="#167ffc" points="907.5 637.65 841.63 637.65 842.05 634.91 907.91 634.91 907.5 637.65" class="color007fe2 svgShape"/><polygon fill="#000282" points="974.07 644.95 963.08 644.95 1007.31 349.13 1018.28 349.13 974.07 644.95" class="color002382 svgShape"/><polygon fill="#0003aa" points="705.66 572.98 973.84 572.98 974.95 565.57 706.78 565.57 705.66 572.98" class="color002caa svgShape"/><polygon fill="#0003aa" points="694.83 644.95 963.08 644.95 964.18 637.54 695.94 637.54 694.83 644.95" class="color002caa svgShape"/><polygon fill="#000282" points="765.81 349.13 739.36 349.13 694.83 644.95 721.31 644.95 765.81 349.13" class="color002382 svgShape"/><polygon fill="#0003aa" points="963.08 644.95 945.63 644.95 989.88 349.13 1007.31 349.13 963.08 644.95" class="color002caa svgShape"/><polygon fill="#0003aa" points="712.27 644.95 694.83 644.95 738.24 356.55 755.66 356.55 712.27 644.95" class="color002caa svgShape"/><polygon fill="#0003aa" points="738.24 356.55 1006.2 356.55 1007.31 349.13 739.36 349.13 738.24 356.55" class="color002caa svgShape"/><polygon fill="#0003aa" points="727.55 427.56 995.58 427.56 996.69 420.14 728.67 420.14 727.55 427.56" class="color002caa svgShape"/><polygon fill="#0003aa" points="716.72 499.53 984.82 499.53 985.93 492.11 717.83 492.11 716.72 499.53" class="color002caa svgShape"/><polygon fill="#006ae9" points="1018.28 349.13 1007.31 349.13 1010.76 325.99 1021.74 325.99 1018.28 349.13" class="color0066e9 svgShape"/><polygon fill="#167ffc" points="739.36 349.13 1007.31 349.13 1010.76 325.99 742.84 325.99 739.36 349.13" class="color007fe2 svgShape"/><path fill="#ffffff" d="M966.37 337.56a3.58 3.58 0 003.6 3.84 4.14 4.14 0 004.06-3.84 3.55 3.55 0 00-3.59-3.84A4.12 4.12 0 00966.37 337.56zM980.72 337.56a3.57 3.57 0 003.59 3.84 4.13 4.13 0 004.06-3.84 3.55 3.55 0 00-3.59-3.84A4.12 4.12 0 00980.72 337.56zM995.06 337.56a3.58 3.58 0 003.6 3.84 4.15 4.15 0 004.06-3.84 3.57 3.57 0 00-3.6-3.84A4.12 4.12 0 00995.06 337.56zM675.07 669.93a23 23 0 01-2.45 5.9 17.2 17.2 0 01-6.31-3.71s1.53-2.09 2.66-4.06C671.46 666 674.73 669.93 675.07 669.93z" class="colorfff svgShape"/><path fill="#0003aa" d="M666.61,671.9l0,0a4.35,4.35,0,0,1,4.56-.78l.07,0a3,3,0,0,1,1.62,3.12,7.93,7.93,0,0,1-1.08,3.48c-.58.7-3.85,3.79-5.41,4.4-1.25.49-3.14.31-5.26-.12s-4.56-2-4.36-3.21C657.2,676.32,664.87,673.4,666.61,671.9Z" class="color002caa svgShape"/><path fill="#000282" d="M667.53,673.85c2.17-1.35,5.63,1.37,3,4.6a19.92,19.92,0,0,1-4.56,3.71,8.6,8.6,0,0,1-4.43-.11c-1.79-.36-3.84-1.65-3.67-2.7C658.21,677.28,665.29,675.23,667.53,673.85Z" class="color002382 svgShape"/><path fill="#e27b0f" d="M710.1,612.77c-19,30.84-34.55,59.08-34.55,59.08-1.77-.89-5.66-3.9-8.09-2.73,0,0,9.95-33.66,22.25-63.61C697.82,585.76,717.85,600.19,710.1,612.77Z" class="colore2410f svgShape"/><path fill="#e27b0f" d="M657.21,551c6.91,2.64,43.52,31.44,53.5,48.84,4.24,7.41-6.72,19.29-12.52,14.6-10.36-8.37-51.29-26.67-56.38-37.3C633.73,560.21,653.53,549.57,657.21,551Z" class="colore2410f svgShape"/><path fill="#0003aa" d="M684.66,658.41l5.76.21s.08,2,.3,3.3c.41,2.6,6.62,8.07,5.13,10.51-.74,1.24-4,.77-6.18-.43a17.13,17.13,0,0,1-4.67-3.79c-1-1.17-3.15-4.06-3.14-5.09a4.08,4.08,0,0,1,1.56-3C684,658.67,684.66,658.41,684.66,658.41Z" class="color002caa svgShape"/><path fill="#ffffff" d="M691.75,659.24a2.47,2.47,0,0,0-1,2.68s-.55.91-2.72.82c-1.23,0-4.58-2.57-4.58-2.57a21.74,21.74,0,0,1,1.91-3.4Z" class="colorfff svgShape"/><path fill="#fe9526" d="M668.86,549c8.19,1.65,54,27.6,68.12,45.81,6,7.74-4.33,23.85-11.62,19.59-13-7.6-62-20.43-69.43-31.76C644.05,564.62,664.49,548.12,668.86,549Z" class="colorff550d svgShape"/><path fill="#fe9526" d="M738.66,611.17c-25.11,26.1-46,48.47-46,48.47-1.39-.12-5.58-3.11-7.64-2.47,0,0,16.89-30.78,35.28-57.43C732.41,582.17,748.91,600.52,738.66,611.17Z" class="colorff550d svgShape"/><path fill="#ffffff" d="M668.68,470.1c.42,2.87-.85,12.11-1.84,13.61,2.38,5.27,11.35,4.51,11.94,1.4-1.37-3.34.16-10.1.17-10.69C676.83,474.75,669.4,470.63,668.68,470.1Z" class="colorfff svgShape"/><path fill="#ffffff" d="M676.47,459.78c-4.19.29-6.72,3.94-6.43,8.1,0,0,.3,4.31.3,4.31.21,3.13,5.38,7.73,8.07,7,6.36-1.81,6.92-13.73,6.61-15C684.16,460.41,680.38,459.51,676.47,459.78Z" class="colorfff svgShape"/><path fill="#0003aa" d="M687.4,461.14c-2.72-6.26-13-10.86-19.13-6.05-5.37,4.24-4.63,11.85-1.34,16.91,1.7,2.61-1.5,2.09-1.5,2.09a15.26,15.26,0,0,0,5.51,3.82c9.91,3.22,16.27-10.09,16.27-10.09s-4.05-1.23-2.79-1.14c6,.43,7.3-2.27,6.68-5.37C691.3,462.55,689.43,465.8,687.4,461.14Z" class="color002caa svgShape"/><path fill="#006ae9" d="M646.56,548.88c10.54,1.33,21,2.81,31.65,3a64.67,64.67,0,0,0,18.69-2.18c0,9.86,2.31,13.76,6.71,16.42-3.11,10.83-9.68,11.44-15.09,13.2-14.24,4.66-49.86-6-50.87-6.08a240.84,240.84,0,0,1,1.78-25.44C641.74,548.26,644.13,548.57,646.56,548.88Z" class="color0066e9 svgShape"/><path fill="#167ffc" d="M657.9,485.08c2.27-.48,9-2.11,9-2.11s1.32,1.64,5.42,2.43a12.54,12.54,0,0,0,6.49-.44s7.77,2.13,9.18,2.87c5.48,2.85,5.51,4.91,5.86,11.63.17,3.14.58,53.66,9.1,64.73-.29.44-3.7,4.61-10.73,6.27l-1.72-13.62-1.56,14.25c-16.48,3.15-29.1-2.67-42.34-4.47l-1.27-17.87L641.52,566c-1.28-.14-2.44-.25-3.45-.32.18-27.28,8.63-68.28,9-69.52C648.66,490.87,651.1,486.52,657.9,485.08Z" class="color007fe2 svgShape"/><path fill="#ffffff" d="M704.26,522.3a4,4,0,0,1,.33-1.17c2.8-5.72,17.29-25.13,19.27-31.55a23.26,23.26,0,0,1,5,.19c-2.35,9-15.5,37.68-19.91,37.53C704.87,527.17,704,524.28,704.26,522.3Z" class="colorfff svgShape"/><path fill="#167ffc" d="M679.48,499.85c1-2,9-9.73,11.2-10a1.54,1.54,0,0,1,1.29.42c2.1,2.14,5.42,7.27,8.94,12.7,2.38,3.68,4.81,7.43,7,10.53l2.26-3.37c4.63-6.88,10.39-15.45,11.56-19.06l7.22,3C725.88,503,716.48,523.2,711,528c-.07.06-.57.36-1.18.72a3.94,3.94,0,0,1-4.48-.37C698.48,522.64,677.22,504.48,679.48,499.85Z" class="color007fe2 svgShape"/><path fill="#ffffff" d="M722.12,485.17c.38-.29,2,1.07,2.11,1.51,0,1.18-.29,1.56-.24,2.71a13,13,0,0,0-1.64-3.05C722,485.92,721.5,485.56,722.12,485.17Z" class="colorfff svgShape"/><path fill="#ffffff" d="M729.43,482.65a.21.21,0,0,1,0,.08c-.09,2.73-.5,6-.6,7-1.44.76-5-.13-5-.19.16-1.33,0-3.31.13-4.49.1-1.39.68-4.47.71-4.69.16-.62.42-2.19.6-2.66a1.19,1.19,0,0,1,1.25-.89c.23,0,.78.32.46,1.84a25.84,25.84,0,0,0-.49,3s.91-.63,1.22.15c0,0,.75-.62,1.16.2C728.9,482,729.47,481.88,729.43,482.65Z" class="colorfff svgShape"/><path fill="#167ffc" d="M686.09 594.54H649.88a1.08 1.08 0 100 2.15H660.6a7.39 7.39 0 017.39 7.39V630.9h2.3V604.08a7.38 7.38 0 017.38-7.39h8.42a1.08 1.08 0 100-2.15zM683.68 666.58H671.5v-30.3h-4.73v30.3H654.59a.89.89 0 100 1.77h12.18v16.48h4.73V668.35h12.18a.89.89 0 100-1.77z" class="color007fe2 svgShape"/><rect width="10.32" height="7.76" x="663.98" y="629.71" fill="#006ae9" rx="3.18" class="color0066e9 svgShape"/><path fill="#006ae9" d="M682.19,687.29l-10.54-4a1,1,0,0,0-.3-.05h-4.42a1,1,0,0,0-.3.05l-10.55,4a.85.85,0,0,0,.3,1.65h25.51A.85.85,0,0,0,682.19,687.29Z" class="color0066e9 svgShape"/><path fill="#0003aa" d="M692.6,586H643.8a4.26,4.26,0,1,0,0,8.51h48.8a4.26,4.26,0,1,0,0-8.51Z" class="color002caa svgShape"/></g></svg>